<svg width="32" height="32" viewBox="0 0 32 32" fill="none" xmlns="http://www.w3.org/2000/svg">
<path d="M23 2L24.593 5L28 5.414L25.5 7.667L26 11L23 9.125L20 11L20.5 7.667L18 5.414L21.5 5L23 2Z" fill="#01274F"/>
<path d="M22.7174 13.2484L20.7799 12.7504C20.4325 14.0887 19.6964 15.294 18.6643 16.2141C17.6323 17.1342 16.3507 17.7277 14.9815 17.9198C13.6123 18.1118 12.2168 17.8938 10.9715 17.2931C9.72616 16.6925 8.68678 15.7362 7.98466 14.5451C7.28255 13.354 6.9492 11.9816 7.02675 10.6011C7.10429 9.22068 7.58923 7.89418 8.42032 6.78922C9.25141 5.68425 10.3913 4.8504 11.6961 4.393C13.0009 3.9356 14.412 3.87518 15.7511 4.21936L16.2501 2.28286C14.2984 1.77595 12.233 1.93987 10.3858 2.74828C8.5385 3.5567 7.01665 4.96267 6.06477 6.74025C5.11289 8.51784 4.78625 10.5638 5.13733 12.5494C5.48842 14.535 6.49684 16.345 8.00056 17.6884V29.9994L14.0006 25.9994L20.0006 29.9994V17.7072C21.3286 16.5235 22.2743 14.9713 22.7174 13.2484ZM18.0006 26.2621L14.0006 23.5956L10.0006 26.2621V19.0494C11.2416 19.6729 12.611 19.9981 13.9998 19.9992C15.3887 20.0002 16.7586 19.6771 18.0006 19.0556V26.2621Z" fill="#01274F"/>
</svg>
