<svg width="16" height="16" viewBox="0 0 16 16" fill="none" xmlns="http://www.w3.org/2000/svg">
<path d="M10.666 2H0.666016V10.6667H10.666V2Z" stroke="#828282" stroke-width="1.33333" stroke-linecap="round" stroke-linejoin="round"/>
<path d="M10.666 5.33301H13.3327L15.3327 7.33301V10.6663H10.666V5.33301Z" stroke="#828282" stroke-width="1.33333" stroke-linecap="round" stroke-linejoin="round"/>
<path d="M3.66667 14.0003C4.58714 14.0003 5.33333 13.2541 5.33333 12.3337C5.33333 11.4132 4.58714 10.667 3.66667 10.667C2.74619 10.667 2 11.4132 2 12.3337C2 13.2541 2.74619 14.0003 3.66667 14.0003Z" stroke="#828282" stroke-width="1.33333" stroke-linecap="round" stroke-linejoin="round"/>
<path d="M12.3327 14.0003C13.2532 14.0003 13.9993 13.2541 13.9993 12.3337C13.9993 11.4132 13.2532 10.667 12.3327 10.667C11.4122 10.667 10.666 11.4132 10.666 12.3337C10.666 13.2541 11.4122 14.0003 12.3327 14.0003Z" stroke="#828282" stroke-width="1.33333" stroke-linecap="round" stroke-linejoin="round"/>
</svg>
