<svg width="28" height="28" viewBox="0 0 28 28" fill="none" xmlns="http://www.w3.org/2000/svg">
<path fill-rule="evenodd" clip-rule="evenodd" d="M14 0C6.26801 0 0 6.26801 0 14C0 21.732 6.26801 28 14 28C21.732 28 28 21.732 28 14C28 6.26801 21.732 0 14 0ZM10.7921 6.26933C11.6218 6.23158 11.8869 6.22234 13.9992 6.22234H13.9968C16.1098 6.22234 16.3739 6.23158 17.2035 6.26933C18.0315 6.30725 18.5971 6.43833 19.0929 6.63067C19.6049 6.82917 20.0376 7.09491 20.4702 7.52755C20.9029 7.95986 21.1686 8.3938 21.3679 8.90535C21.5591 9.39989 21.6904 9.96507 21.7293 10.7931C21.7665 11.6227 21.7763 11.8878 21.7763 14.0001C21.7763 16.1124 21.7665 16.3769 21.7293 17.2065C21.6904 18.0342 21.5591 18.5995 21.3679 19.0942C21.1686 19.6056 20.9029 20.0396 20.4702 20.4719C20.0381 20.9045 19.6048 21.1709 19.0934 21.3696C18.5985 21.5619 18.0327 21.693 17.2047 21.7309C16.375 21.7687 16.1107 21.7779 13.9982 21.7779C11.8861 21.7779 11.6211 21.7687 10.7915 21.7309C9.96364 21.693 9.39828 21.5619 8.90342 21.3696C8.39218 21.1709 7.95824 20.9045 7.52609 20.4719C7.09361 20.0396 6.82786 19.6056 6.62904 19.0941C6.43686 18.5995 6.30577 18.0344 6.26769 17.2063C6.2301 16.3767 6.2207 16.1124 6.2207 14.0001C6.2207 11.8878 6.23043 11.6225 6.26753 10.7929C6.3048 9.96523 6.43605 9.39989 6.62888 8.90519C6.82819 8.3938 7.09393 7.95986 7.52657 7.52755C7.95889 7.09507 8.39283 6.82933 8.90439 6.63067C9.39893 6.43833 9.96412 6.30725 10.7921 6.26933Z" fill="white"/>
<path fill-rule="evenodd" clip-rule="evenodd" d="M13.3187 7.77924C13.451 7.77903 13.5932 7.7791 13.7467 7.77917L13.9996 7.77924C16.0262 7.77924 16.2664 7.78652 17.0667 7.82289C17.8067 7.85673 18.2084 7.9804 18.4759 8.08431C18.8301 8.2219 19.0826 8.38637 19.3481 8.65206C19.6138 8.91774 19.7782 9.17078 19.9161 9.52503C20.02 9.7923 20.1438 10.194 20.1775 10.9341C20.2139 11.7343 20.2218 11.9747 20.2218 14.0006C20.2218 16.0265 20.2139 16.2668 20.1775 17.0671C20.1437 17.8072 20.02 18.2089 19.9161 18.4762C19.7786 18.8304 19.6138 19.0827 19.3481 19.3482C19.0825 19.6139 18.8303 19.7783 18.4759 19.9159C18.2087 20.0203 17.8067 20.1437 17.0667 20.1775C16.2666 20.2139 16.0262 20.2218 13.9996 20.2218C11.9729 20.2218 11.7327 20.2139 10.9326 20.1775C10.1926 20.1433 9.79093 20.0197 9.52323 19.9158C9.16902 19.7782 8.91602 19.6137 8.65036 19.348C8.38471 19.0823 8.22026 18.8299 8.08237 18.4755C7.97848 18.2083 7.85467 17.8066 7.82099 17.0664C7.78462 16.2662 7.77734 16.0258 7.77734 13.9987C7.77734 11.9716 7.78462 11.7324 7.82099 10.9322C7.85483 10.1921 7.97848 9.7904 8.08237 9.52281C8.21994 9.16856 8.38471 8.91553 8.65036 8.64984C8.91602 8.38415 9.16902 8.21968 9.52323 8.08178C9.79078 7.9774 10.1926 7.85405 10.9326 7.82004C11.6328 7.78841 11.9041 7.77893 13.3187 7.77734V7.77924ZM17.8872 9.33312C17.4578 9.33312 17.1094 9.6811 17.1094 10.1106C17.1094 10.54 17.4578 10.8884 17.8872 10.8884C18.3166 10.8884 18.665 10.54 18.665 10.1106C18.665 9.68123 18.3166 9.33285 17.8872 9.33285V9.33312ZM10.1104 13.9998C10.1104 11.852 11.8517 10.1106 13.9995 10.1105C16.1473 10.1105 17.8882 11.852 17.8882 13.9998C17.8882 16.1477 16.1475 17.8883 13.9996 17.8883C11.8518 17.8883 10.1104 16.1477 10.1104 13.9998Z" fill="white"/>
<path fill-rule="evenodd" clip-rule="evenodd" d="M13.9974 11.667C15.286 11.667 16.3307 12.7116 16.3307 14.0003C16.3307 15.2889 15.286 16.3337 13.9974 16.3337C12.7087 16.3337 11.6641 15.2889 11.6641 14.0003C11.6641 12.7116 12.7087 11.667 13.9974 11.667V11.667Z" fill="white"/>
</svg>
