<?xml version="1.0" standalone="no"?>
<!DOCTYPE svg PUBLIC "-//W3C//DTD SVG 1.1//EN" "http://www.w3.org/Graphics/SVG/1.1/DTD/svg11.dtd" >
<svg>
<metadata>
Created by FontForge 20090914 at Sat Oct 24 20:32:00 2020
 By www-data
Copyright &#194;&#169; 2012 Christian Schwartz for Commercial Type.
</metadata>
<defs>
<font id="GraphikLCG-Bold" horiz-adv-x="608" >
  <font-face 
    font-family="Graphik LCG"
    font-weight="700"
    font-stretch="normal"
    units-per-em="1000"
    panose-1="2 11 8 3 3 2 2 6 2 3"
    ascent="825"
    descent="-175"
    x-height="523"
    cap-height="715"
    bbox="-239 -232.001 1202 1137"
    underline-thickness="50"
    underline-position="-150"
    unicode-range="U+000D-U+FB02"
  />
<missing-glyph horiz-adv-x="519" 
 />
    <glyph glyph-name="f_f" unicode="ff" horiz-adv-x="724" 
d="M84 401h-66v122h66v40c0 62.667 18 110.167 54 142.5s86 48.5 150 48.5c31.333 0 58 -3.33301 80 -10v-131c-15.333 4.66699 -31.333 7 -48 7c-19.333 0 -33.833 -5.16699 -43.5 -15.5s-14.5 -24.166 -14.5 -41.499v-40h152v46c0 63.333 18.667 111.666 56 144.999
c35.333 31.333 85 47 149 47c29.333 0 56.666 -3.66699 81.999 -11v-131c-15.333 4.66699 -31.666 7 -48.999 7c-39.333 0 -59 -19 -59 -57v-46h106v-122h-106v-401h-179v401h-152v-401h-178v401z" />
    <glyph glyph-name=".notdef" horiz-adv-x="519" 
 />
    <glyph glyph-name="NULL" horiz-adv-x="0" 
 />
    <glyph glyph-name="NULL" horiz-adv-x="0" 
 />
    <glyph glyph-name="CR" unicode="&#xd;" horiz-adv-x="197" 
 />
    <glyph glyph-name="space" unicode=" " horiz-adv-x="197" 
 />
    <glyph glyph-name="exclam" unicode="!" horiz-adv-x="342" 
d="M171 -11c-30 0 -55.167 9.50098 -75.5 28.501s-30.5 42.5 -30.5 70.5s10.167 51.667 30.5 71s45.5 29 75.5 29c28 0 53.333 -9.66699 76 -29c20.667 -20.667 31 -44.334 31 -71.001c0 -28 -10.333 -51.333 -31 -70c-20.667 -19.333 -46 -29 -76 -29zM70 715.001h202
l-27 -480h-148z" />
    <glyph glyph-name="quotedbl" unicode="&#x22;" horiz-adv-x="470" 
d="M45 715h168l-21 -275h-127zM257 715h169l-21 -275h-127z" />
    <glyph glyph-name="numbersign" unicode="#" horiz-adv-x="584" 
d="M295 241h-62l-21 -142h-121l21 142h-69v141h90l11 76h-77v134h97l18 123h121l-18 -123h62l19 123h121l-19 -123h72v-134h-92l-11 -76h79v-141h-100l-21 -142h-121zM254 382h62l11 76h-62z" />
    <glyph glyph-name="dollar" unicode="$" horiz-adv-x="655" 
d="M292 -10c-84 6 -148.166 29.833 -192.499 71.5s-68.166 96.5 -71.499 164.5h185c5.33301 -52.667 31.666 -84 78.999 -94v146c-86.667 12 -149.667 35.667 -189 71s-59 87.333 -59 156c0 61.333 22.333 111.666 67 150.999c47.333 40.667 107.666 63.334 180.999 68.001
v89h78v-90c150.667 -12.667 231.667 -84.667 243 -216h-181c-4 20.667 -10.5 37 -19.5 49s-23.167 20.667 -42.5 26v-138c82.667 -12 144 -33 184 -63c46 -36.667 69 -88.667 69 -156c0 -65.333 -20.333 -118.333 -61 -159c-44 -46 -108 -71.333 -192 -76v-125h-78v125z
M437.001 203c0 17.333 -4.66699 30.5 -14 39.5s-27 16.5 -53 22.5v-133c44.667 9.33301 67 33 67 71zM224.001 520c0 -18 4.66699 -31.833 14 -41.5s27.333 -17.167 54 -22.5v128c-45.333 -8 -68 -29.333 -68 -64z" />
    <glyph glyph-name="percent" unicode="%" horiz-adv-x="835" 
d="M219 468c18 0 32 6.83203 42 20.499s15 32.5 15 56.5s-5 42.667 -15 56s-24 20 -42 20c-18.667 0 -33.167 -6.66699 -43.5 -20s-15.5 -31.666 -15.5 -54.999c0 -52 19.667 -78 59 -78zM218 363.999c-57.333 0 -103.334 17.334 -138.001 52.001
c-34 32.667 -51 75.667 -51 129c0 51.333 18.333 93.666 55 126.999c35.333 34 80.333 51 135 51c53.333 0 98.333 -16.333 135 -49c36 -34.667 54 -76.667 54 -126c0 -52 -17 -95.667 -51 -131c-35.333 -35.333 -81.666 -53 -138.999 -53zM617.999 715h98l-496 -715h-98z
M616.999 93c38.667 0 58 25.666 58 76.999c0 50 -19.333 75 -58 75c-18 0 -32.167 -6.66699 -42.5 -20s-15.5 -31.666 -15.5 -54.999c0 -51.333 19.333 -77 58 -77zM615.999 -12.001c-57.333 0 -103.334 17.334 -138.001 52.001c-34 32.667 -51 75.667 -51 129
c0 51.333 18.333 93.666 55 126.999c35.333 34 80.333 51 135 51c55.333 0 100.333 -16.333 135 -49c36 -34 54 -76 54 -126c0 -52 -17 -95.667 -51 -131c-35.333 -35.333 -81.666 -53 -138.999 -53z" />
    <glyph glyph-name="ampersand" unicode="&#x26;" horiz-adv-x="770" 
d="M636 146l118.999 -145.999h-233l-42 52c-53.333 -42.667 -117.666 -64 -192.999 -64c-77.333 0 -138 19 -182 57c-46 38.667 -69 91.667 -69 159c0 88.667 52.333 158 157 208c-29.333 41.333 -44 83 -44 125c0 59.333 22.667 106 68 140c41.333 31.333 95.333 47 162 47
c60.667 0 111 -14 151 -42c44 -30.667 66 -72.334 66 -125.001c0 -77.333 -47.667 -136.333 -143 -177l90 -110l52 102h156zM317.999 137.001c28 0 51.333 10.001 70 30.001l-113 136c-32 -18.667 -48 -44.334 -48 -77.001c0 -26.667 7.83301 -48.167 23.5 -64.5
s38.167 -24.5 67.5 -24.5zM324.999 535.002c0 -21.333 13.667 -48 41 -80c47.333 22.667 71 51.667 71 87c0 16 -4.83301 29.167 -14.5 39.5s-22.5 15.5 -38.5 15.5c-18 0 -32.333 -5.5 -43 -16.5s-16 -26.167 -16 -45.5z" />
    <glyph glyph-name="quotesingle" unicode="'" horiz-adv-x="264" 
d="M45 715h175l-21 -275h-134z" />
    <glyph glyph-name="parenleft" unicode="(" horiz-adv-x="364" 
d="M208 -148c-48 58 -85.333 118.668 -112 182.001c-36 85.333 -54 178.333 -54 279c0 101.333 18 194.666 54 279.999c26.667 63.333 64 124 112 182h140c-40 -62 -70.667 -125.333 -92 -190c-28.667 -88 -43 -178.667 -43 -272c0 -92.667 14.333 -182.667 43 -270
c21.333 -65.333 52 -129 92 -191h-140z" />
    <glyph glyph-name="parenright" unicode=")" horiz-adv-x="364" 
d="M15 -148c41.333 64 72.333 127.667 93 191c28 85.333 42 175.666 42 270.999c0 94.667 -14 185 -42 271c-20.667 62.667 -51.667 126 -93 190h140c49.333 -59.333 87 -120 113 -182c36 -85.333 54 -178.333 54 -279c0 -101.333 -18 -194.666 -54 -279.999
c-26 -62 -63.667 -122.667 -113 -182h-140z" />
    <glyph glyph-name="asterisk" unicode="*" horiz-adv-x="448" 
d="M61 447l89 90l-117 13l34 123l110 -53l-24 123h143l-24 -123l109 53l35 -123l-118 -13l89 -90l-107 -77l-56 115l-55 -115z" />
    <glyph glyph-name="plus" unicode="+" horiz-adv-x="578" 
d="M217 275h-176v130h176v192h144v-192h176v-130h-176v-192h-144v192z" />
    <glyph glyph-name="comma" unicode="," horiz-adv-x="314" 
d="M20 -81l84 263l166 -59l-144 -245z" />
    <glyph glyph-name="hyphen" unicode="-" horiz-adv-x="390" 
d="M55 353h280v-135h-280v135z" />
    <glyph glyph-name="period" unicode="." horiz-adv-x="307" 
d="M152 -11c-30.667 0 -54.999 10 -72.999 30c-19.333 17.333 -29 41 -29 71c0 28.667 9.66699 52.667 29 72s43.666 29 72.999 29c28.667 0 53.667 -9.66699 75 -29c20 -20 30 -44 30 -72c0 -29.333 -10 -53 -30 -71c-20 -20 -45 -30 -75 -30z" />
    <glyph glyph-name="slash" unicode="/" horiz-adv-x="442" 
d="M297 776h143l-318 -924h-142z" />
    <glyph glyph-name="zero" unicode="0" horiz-adv-x="740" 
d="M372 147c43.333 0 74.667 16 94 48s29 81.667 29 149v29c0 66.667 -10 116.167 -30 148.5s-51.667 48.5 -95 48.5s-75 -16 -95 -48s-30 -81.667 -30 -149v-30c0 -66.667 10.167 -116 30.5 -148s52.5 -48 96.5 -48zM366.001 -12c-102 0 -181.334 31 -238.001 93
c-58.667 62.667 -88 149.667 -88 261v30c0 110 31.333 197 94 261c60 61.333 138.667 92 236 92c96 0 174.667 -29 236 -87c62.667 -62.667 94 -150 94 -262v-28c0 -112.667 -30 -201 -90 -265c-61.333 -63.333 -142.666 -95 -243.999 -95z" />
    <glyph glyph-name="one" unicode="1" horiz-adv-x="458" 
d="M172 513l-136 -84v171l164 115h177v-715h-205v513z" />
    <glyph glyph-name="two" unicode="2" horiz-adv-x="623" 
d="M12 29l250.001 265c39.333 42 68.833 78.333 88.5 109s29.5 60 29.5 88c0 24.667 -6.5 44.167 -19.5 58.5s-31.833 21.5 -56.5 21.5c-53.333 0 -84 -38.667 -92 -116h-186c3.33301 88 30.166 155 80.499 201s119.5 69 207.5 69c85.333 0 152 -21.333 200 -64
c45.333 -41.333 68 -95.333 68 -162c0 -45.333 -12.333 -89.333 -37 -132c-19.333 -33.333 -52 -72.333 -98 -117l-100 -97h240v-153h-575v29z" />
    <glyph glyph-name="three" unicode="3" horiz-adv-x="660" 
d="M330 -12c-97.333 0 -170.667 21.334 -220 64.001s-75.333 103.667 -78 183h182c4 -32 14 -56.5 30 -73.5s41 -25.5 75 -25.5c62.667 0 94 27 94 81c0 56 -31.333 84 -94 84h-57v127h53c63.333 0 95 26.333 95 79c0 22 -7 39.333 -21 52s-34.333 19 -61 19
c-55.333 0 -87 -30.333 -95 -91h-181c4 71.333 29.667 128.666 77 171.999c50.667 44 118.667 66 204 66c82 0 148 -17.667 198 -53c47.333 -36.667 71 -84.334 71 -143.001c0 -78 -40.333 -129.333 -121 -154c42.667 -8.66699 76.5 -27 101.5 -55s37.5 -63.667 37.5 -107
c0 -69.333 -25.167 -124.166 -75.5 -164.499s-121.833 -60.5 -214.5 -60.5z" />
    <glyph glyph-name="four" unicode="4" horiz-adv-x="686" 
d="M370 137h-348v77l298 501h247v-437h92v-141h-92v-137h-197v137zM375 278v283l-160 -283h160z" />
    <glyph glyph-name="five" unicode="5" horiz-adv-x="639" 
d="M311 -12c-92 0 -161.668 22.667 -209.001 68c-44.667 40.667 -68.667 97 -72 169h186c4.66699 -28 13 -48 25 -60c13.333 -15.333 36 -23 68 -23c28.667 0 50.167 9.33301 64.5 28s21.5 43 21.5 73c0 32 -8.33301 57 -25 75s-40.667 27 -72 27
c-49.333 0 -88.666 -17 -117.999 -51h-122l15 421h482v-150h-334l-4 -158c35.333 50.667 91 76 167 76c65.333 0 118 -21 158 -63c39.333 -43.333 59 -103.333 59 -180c0 -76 -25.667 -137 -77 -183c-53.333 -46 -124.333 -69 -213 -69z" />
    <glyph glyph-name="six" unicode="6" horiz-adv-x="682" 
d="M355 -12c-108.667 0 -189.668 32.998 -243.001 98.998c-48 57.333 -72 141 -72 251v19c0 112.667 30.667 203.334 92 272.001c58 64 134.333 96 229 96c81.333 0 145 -17.667 191 -53s72.667 -88 80 -158h-188c-8 40 -33.333 60 -76 60
c-39.333 0 -69.5 -16.167 -90.5 -48.5s-32.5 -79.166 -34.5 -140.499c36 55.333 91.667 83 167 83c68.667 0 124.334 -19.333 167.001 -58c46.667 -42 70 -99 70 -171c0 -75.333 -25.667 -136 -77 -182c-53.333 -46 -125 -69 -215 -69zM352.999 132.998
c28.667 0 51.667 9.66699 69 29s26 44.333 26 75s-8.5 55.5 -25.5 74.5s-40.167 28.5 -69.5 28.5s-52.833 -9.5 -70.5 -28.5s-26.5 -43.167 -26.5 -72.5c0 -32 8.66699 -57.667 26 -77s41 -29 71 -29z" />
    <glyph glyph-name="seven" unicode="7" horiz-adv-x="584" 
d="M316 549h-288v166h544v-21l-248 -694h-208z" />
    <glyph glyph-name="eight" unicode="8" horiz-adv-x="665" 
d="M332 -12c-92 0 -164.332 18.3359 -216.999 55.0029c-54 37.333 -81 90.333 -81 159c0 85.333 43.333 143.666 130 174.999c-66.667 29.333 -100 78.666 -100 147.999c0 60.667 26.667 110 80 148c51.333 34.667 114.666 52 189.999 52c78.667 0 142.667 -17 192 -51
c52 -38 78 -87.333 78 -148c0 -68 -33.667 -117.333 -101 -148c85.333 -29.333 128 -86.333 128 -171c0 -68.667 -27.333 -122.334 -82 -161.001s-127 -58 -217 -58zM333.001 132.003c28.667 0 52.001 8.16699 70.001 24.5s27 38.5 27 66.5s-8.83301 50.167 -26.5 66.5
s-40.834 24.5 -69.501 24.5s-52.167 -8 -70.5 -24s-27.5 -38.333 -27.5 -67c0 -28 9 -50.167 27 -66.5s41.333 -24.5 70 -24.5zM335.002 430.003c24 0 44 7.16699 60 21.5s24 33.5 24 57.5c0 23.333 -8.16699 42.166 -24.5 56.499s-36.5 21.5 -60.5 21.5
s-44 -7.16699 -60 -21.5s-24 -33.166 -24 -56.499c0 -24 8.16699 -43.167 24.5 -57.5s36.5 -21.5 60.5 -21.5z" />
    <glyph glyph-name="nine" unicode="9" horiz-adv-x="683" 
d="M326 -11c-84.667 0 -150.999 18.333 -198.999 55s-75.667 89.334 -83 158.001h188c8 -40.667 36 -61 84 -61c42 0 72.667 15.333 92 46s29.666 77.334 30.999 140.001c-35.333 -56 -89.333 -84 -162 -84s-130 19.667 -172 59c-46.667 41.333 -70 98.666 -70 171.999
c0 76 26.333 136.667 79 182c54 46.667 125.667 70 215 70c102.667 0 181.667 -32.333 237 -97c50.667 -62.667 76 -147 76 -253v-24c0 -116.667 -27.167 -206.334 -81.5 -269.001s-132.5 -94 -234.5 -94zM326.001 375c29.333 0 53 9.33496 71 28.002s27 42.667 27 72
c0 32 -8.83301 57.833 -26.5 77.5s-41.5 29.5 -71.5 29.5c-28 0 -50.833 -9.83301 -68.5 -29.5s-26.5 -44.834 -26.5 -75.501s8.5 -55.334 25.5 -74.001s40.167 -28 69.5 -28z" />
    <glyph glyph-name="colon" unicode=":" horiz-adv-x="313" 
d="M155 -11c-30 0 -54 10 -72 30c-20 18 -30 41.667 -30 71c0 28 10 52 30 72c19.333 19.333 43.333 29 72 29s53.667 -9.66699 75 -29c20 -20 30 -44 30 -72c0 -29.333 -10 -53 -30 -71c-20 -20 -45 -30 -75 -30zM155 275c-29.333 0 -53.667 9.66699 -73 29
s-29 43.333 -29 72c0 28 10 52 30 72c19.333 19.333 43.333 29 72 29s53.667 -9.66699 75 -29c20 -20 30 -44 30 -72c0 -28.667 -10 -52.667 -30 -72s-45 -29 -75 -29z" />
    <glyph glyph-name="semicolon" unicode=";" horiz-adv-x="329" 
d="M14 -81l83 263l166 -59l-143 -245zM178 275c-30 0 -54.499 9.66699 -73.499 29s-28.5 43.333 -28.5 72s9.66699 52.667 29 72s43.666 29 72.999 29c28.667 0 53.667 -9.66699 75 -29c20 -20 30 -44 30 -72c0 -28.667 -10 -52.667 -30 -72s-45 -29 -75 -29z" />
    <glyph glyph-name="less" unicode="&#x3c;" horiz-adv-x="521" 
d="M46 305v34l421 246v-162l-190 -100l190 -106v-158z" />
    <glyph glyph-name="equal" unicode="=" horiz-adv-x="565" 
d="M43 289h479v-122h-479v122zM43 486h479v-122h-479v122z" />
    <glyph glyph-name="greater" unicode="&#x3e;" horiz-adv-x="521" 
d="M53 223l191 99l-191 106v158l422 -246v-34l-422 -246v163z" />
    <glyph glyph-name="question" unicode="?" horiz-adv-x="564" 
d="M173 254c0 34 10.667 66 32 96c9.33301 13.333 31.333 37.333 66 72c22 20.667 38.333 38.167 49 52.5s16 29.5 16 45.5c0 40 -20.333 60 -61 60c-21.333 0 -39 -7.66699 -53 -23s-22.667 -37 -26 -65h-174c2.66699 75.333 28.667 133.333 78 174
c47.333 39.333 110.333 59 189 59c77.333 0 136.833 -16.333 178.5 -49s62.5 -79 62.5 -139c0 -52.667 -24.333 -102.667 -73 -150c-8 -8 -20.333 -19.667 -37 -35s-28.334 -26.333 -35.001 -33c-25.333 -25.333 -39.666 -48.333 -42.999 -69v-15h-169v19zM258 -11
c-31.333 0 -56.666 9.66797 -75.999 29.001c-21.333 18 -32 41.333 -32 70c0 27.333 10.667 51 32 71c21.333 19.333 46.666 29 75.999 29c27.333 0 52.333 -9.66699 75 -29c20.667 -20.667 31 -44.334 31 -71.001c0 -28 -10.333 -51.333 -31 -70
c-20.667 -19.333 -45.667 -29 -75 -29z" />
    <glyph glyph-name="at" unicode="@" horiz-adv-x="929" 
d="M464 -158c-132 0 -237.667 39.6631 -317 118.996c-76.667 76.667 -115 173.334 -115 290.001c0 128.667 45.667 235.334 137 320.001c87.333 80 192 120 314 120c119.333 0 218 -33.333 296 -100c78 -68.667 117 -156.667 117 -264c0 -92 -22.333 -162.667 -67 -212
c-39.333 -42 -89 -63 -149 -63c-82.667 0 -131.667 27.333 -147 82c-28.667 -56 -73.334 -84 -134.001 -84c-50 0 -89.667 16.667 -119 50s-44 78.666 -44 135.999c0 70 19.333 127 58 171c38.667 42.667 85.334 64 140.001 64s91 -20 109 -60l7 52h147l-34 -273
c-5.33301 -44 9.33398 -66 44.001 -66c30.667 0 55.667 16 75 48c22.667 36 34 88.333 34 157c0 86.667 -30 157.334 -90 212.001c-59.333 53.333 -139.666 80 -240.999 80c-106 0 -193 -33.333 -261 -100c-71.333 -69.333 -107 -159.666 -107 -270.999
c0 -100 29.333 -180.333 88 -241c62.667 -64.667 150.334 -97 263.001 -97c55.333 0 105.166 8.16699 149.499 24.5s80.166 37.5 107.499 63.5h91c-32.667 -47.333 -80.334 -85.666 -143.001 -114.999c-61.333 -28.667 -131 -43 -209 -43zM447 167.996
c22.667 0 41.667 10.833 57 32.5s23 49.5 23 83.5c0 47.333 -21.333 71 -64 71c-22.667 0 -41.167 -10.333 -55.5 -31s-21.5 -48 -21.5 -82c0 -22 5.33301 -39.833 16 -53.5s25.667 -20.5 45 -20.5z" />
    <glyph glyph-name="A" unicode="A" horiz-adv-x="755" 
d="M246 715h265l227 -715h-217l-38 133h-237l-38 -133h-191zM286 274h157l-78 275z" />
    <glyph glyph-name="B" unicode="B" horiz-adv-x="687" 
d="M73 715h319c82 0 143.333 -17.333 184 -52c38 -32 57 -77 57 -135v-4c0 -82 -40.333 -133.333 -121 -154c95.333 -16 143 -71.667 143 -167v-4c0 -132.667 -86.667 -199 -260 -199h-322v715zM358 137c63.333 0 95 27.667 95 83v4c0 28 -8 48.667 -24 62
s-41.667 20 -77 20h-79v-169h85zM351 431c32 0 54.667 5.66699 68 17s20 30 20 56v4c0 24.667 -6.83301 42.667 -20.5 54s-36.167 17 -67.5 17h-78v-148h78z" />
    <glyph glyph-name="C" unicode="C" horiz-adv-x="767" 
d="M409 -12c-123.333 0 -216.665 33.333 -279.998 100c-62 62.667 -93 151 -93 265v8c0 108.667 34.667 197 104 265c68 66.667 155 100 261 100c94 0 170.667 -22 230 -66c60 -47.333 94 -117 102 -209h-211c-8 75.333 -48 113 -120 113
c-46.667 0 -83.334 -17.5 -110.001 -52.5s-40 -84.833 -40 -149.5v-8c0 -64.667 13.167 -114.5 39.5 -149.5s64.166 -52.5 113.499 -52.5c78 0 122.333 39 133 117h204c-6.66699 -89.333 -40.667 -159.333 -102 -210c-59.333 -47.333 -136.333 -71 -231 -71z" />
    <glyph glyph-name="D" unicode="D" horiz-adv-x="751" 
d="M326 158c60.667 0 105.167 16 133.5 48s42.5 81.667 42.5 149v8c0 68.667 -14 118.167 -42 148.5s-73.333 45.5 -136 45.5h-45v-399h47zM73 715l260 -0.000976562c125.333 0 220.5 -30.167 285.5 -90.5s97.5 -146.5 97.5 -258.5v-8
c0 -113.333 -32.333 -200.666 -97 -261.999c-66 -64 -161.667 -96 -287 -96h-259v715z" />
    <glyph glyph-name="E" unicode="E" horiz-adv-x="620" 
d="M73 715h494v-158h-290v-123h231v-146h-231v-130h306v-158h-510v715z" />
    <glyph glyph-name="F" unicode="F" horiz-adv-x="587" 
d="M73 715h483v-159h-277v-152h221v-151h-221v-253h-206v715z" />
    <glyph glyph-name="G" unicode="G" horiz-adv-x="795" 
d="M410 -12c-118.667 0 -211.331 34.335 -277.998 103.002c-64.667 64.667 -97 152 -97 262v8c0 108 35.667 196 107 264c70.667 67.333 160 101 268 101c91.333 0 166.333 -20.667 225 -62c65.333 -46.667 101.333 -113.667 108 -201h-203
c-9.33301 68 -52.333 102 -129 102c-50.667 0 -90.334 -18.333 -119.001 -55s-43 -87.334 -43 -152.001v-8c0 -64.667 12.333 -113.334 37 -146.001c29.333 -40 72.666 -60 129.999 -60c46 0 81.667 11 107 33c20 17.333 31.667 42.333 35 75h-134v143h336v-88
c0 -95.333 -29.333 -171.333 -88 -228c-62.667 -60.667 -150 -91 -262 -91z" />
    <glyph glyph-name="H" unicode="H" horiz-adv-x="792" 
d="M73 715h206v-273h235v273h205v-715h-205v282h-235v-282h-206v715z" />
    <glyph glyph-name="I" unicode="I" horiz-adv-x="360" 
d="M77 715h207v-715h-207v715z" />
    <glyph glyph-name="J" unicode="J" horiz-adv-x="486" 
d="M167 -9c-56 0 -99.333 8 -130 24v153c28 -9.33301 57 -14 87 -14c62 0 93 33 93 99v462h206v-464c0 -173.333 -85.333 -260 -256 -260z" />
    <glyph glyph-name="K" unicode="K" horiz-adv-x="734" 
d="M73 715h206v-283l215 283h214l-262 -332l276 -383h-237l-206 299v-299h-206v715z" />
    <glyph glyph-name="L" unicode="L" horiz-adv-x="583" 
d="M73 715h206v-556h270v-159h-476v715z" />
    <glyph glyph-name="M" unicode="M" horiz-adv-x="950" 
d="M73 715h267l137 -381l137 381h262v-715h-204v445l-175 -445h-68l-173 445v-445h-183v715z" />
    <glyph glyph-name="N" unicode="N" horiz-adv-x="785" 
d="M73 715h231l229 -403v403h179v-715h-198l-261 449v-449h-180v715z" />
    <glyph glyph-name="O" unicode="O" horiz-adv-x="827" 
d="M414 149c50.667 0 90.667 18.333 120 55s44 87 44 151v8c0 63.333 -14.833 112.833 -44.5 148.5s-69.834 53.5 -120.501 53.5c-51.333 0 -91.5 -17.667 -120.5 -53s-43.5 -85.333 -43.5 -150v-8c0 -64.667 14.833 -115 44.5 -151s69.834 -54 120.501 -54zM410 -12
c-113.333 0 -204.667 34 -274 102c-67.333 66 -101 153.667 -101 263v8c0 107.333 36.333 195.333 109 264c70.667 66.667 160.334 100 269.001 100c110 0 200.667 -32 272 -96c71.333 -67.333 107 -155 107 -263v-8c0 -112 -34.667 -201 -104 -267
c-70.667 -68.667 -163.334 -103 -278.001 -103z" />
    <glyph glyph-name="P" unicode="P" horiz-adv-x="660" 
d="M73 715l272 -0.000976562c96.667 0 168.667 -20.5 216 -61.5s71 -100.167 71 -177.5v-4c0 -75.333 -23.833 -132.666 -71.5 -171.999s-116.5 -59 -206.5 -59h-77v-241h-204v715zM336 380.999c67.333 0 101 30 101 90v4c0 57.333 -33.333 86 -100 86h-60v-180h59z" />
    <glyph glyph-name="Q" unicode="Q" horiz-adv-x="827" 
d="M501 -3c-24.667 -6 -55.002 -9 -91.002 -9c-113.333 0 -204.666 34 -273.999 102c-67.333 66 -101 153.667 -101 263v8c0 107.333 36.333 195.333 109 264c70.667 66.667 160.334 100 269.001 100c110 0 200.667 -32 272 -96c71.333 -67.333 107 -155 107 -263v-8
c0 -126 -44.333 -223.333 -133 -292l72 -72l-114 -114zM248.998 354c0 -106.667 34.334 -173.333 103.001 -200l115 106l64 -65c31.333 36 47 89.333 47 160v8c0 63.333 -14.833 112.833 -44.5 148.5s-69.834 53.5 -120.501 53.5c-51.333 0 -91.5 -17.667 -120.5 -53
s-43.5 -85.333 -43.5 -150v-8z" />
    <glyph glyph-name="R" unicode="R" horiz-adv-x="705" 
d="M73 715h279.999c94.667 0 166.834 -19 216.501 -57s74.5 -94.667 74.5 -170v-4c0 -92 -43 -154.667 -129 -188l171 -296h-216l-145 256h-48v-256h-204v715zM342.999 389c68.667 0 103.001 28.999 103.001 86.999v4c0 28.667 -8.33301 49.334 -25 62.001
s-42.334 19 -77.001 19h-67v-172h66z" />
    <glyph glyph-name="S" unicode="S" horiz-adv-x="655" 
d="M335 -12c-198 0 -300.668 79.668 -308.001 239.001h195c3.33301 -30 12.333 -51.667 27 -65c17.333 -18.667 46 -28 86 -28c29.333 0 52 6.33301 68 19s24 30 24 52c0 20.667 -8 36.334 -24 47.001c-13.333 7.33301 -43 14.666 -89 21.999
c-101.333 12 -171.333 35 -210 69c-40 33.333 -60 86.333 -60 159c0 65.333 24.667 118.666 74 159.999c50.667 42 118.334 63 203.001 63c175.333 0 269.333 -74.333 282 -223h-190c-7.33301 51.333 -38 77 -92 77c-27.333 0 -48 -5.5 -62 -16.5s-21 -25.833 -21 -44.5
c0 -20 7.66699 -35 23 -45c16 -12 45.333 -20.333 88 -25c96 -11.333 164.333 -31.333 205 -60c46 -36 69 -90 69 -162c0 -68 -25 -124 -75 -168c-53.333 -46.667 -124.333 -70 -213 -70z" />
    <glyph glyph-name="T" unicode="T" horiz-adv-x="626" 
d="M210 557h-185v158h576v-158h-185v-557h-206v557z" />
    <glyph glyph-name="U" unicode="U" horiz-adv-x="772" 
d="M385 -12c-102.667 0 -181.167 25.5029 -235.5 76.5029s-81.5 126.167 -81.5 225.5v425h205v-416c0 -52.667 8.16699 -90.834 24.5 -114.501s45.5 -35.5 87.5 -35.5s71.167 11.667 87.5 35s24.5 62.666 24.5 117.999v413h207v-422
c0 -102.667 -28.333 -179.334 -85 -230.001c-54.667 -50 -132.667 -75 -234 -75z" />
    <glyph glyph-name="V" unicode="V" horiz-adv-x="736" 
d="M16 715h221l145 -502l146 502h192l-234 -715h-233z" />
    <glyph glyph-name="W" unicode="W" horiz-adv-x="1004" 
d="M18 715h207l92 -446l96 446h182l104 -450l97 450h190l-167 -715h-214l-110 454l-111 -454h-200z" />
    <glyph glyph-name="X" unicode="X" horiz-adv-x="763" 
d="M247 368l-204 347h233l112 -213l110 213h210l-192 -340l221 -375h-234l-133 246l-133 -246h-211z" />
    <glyph glyph-name="Y" unicode="Y" horiz-adv-x="685" 
d="M245 306l-233 409h223l121 -241l121 241h196l-222 -409v-306h-206v306z" />
    <glyph glyph-name="Z" unicode="Z" horiz-adv-x="635" 
d="M17 23l304 535h-265v157h556v-22l-300 -535h285v-158h-580v23z" />
    <glyph glyph-name="bracketleft" unicode="[" horiz-adv-x="417" 
d="M70 776h305v-131h-125v-662h125v-131h-305v924z" />
    <glyph glyph-name="backslash" unicode="\" horiz-adv-x="442" 
d="M2 776h143l317 -924h-142z" />
    <glyph glyph-name="bracketright" unicode="]" horiz-adv-x="417" 
d="M43 -17h124v662h-124v131h304v-924h-304v131z" />
    <glyph glyph-name="asciicircum" unicode="^" horiz-adv-x="539" 
d="M191 715h157l164 -322h-153l-91 176l-91 -176h-150z" />
    <glyph glyph-name="underscore" unicode="_" horiz-adv-x="442" 
d="M3 -75h436v-86h-436v86z" />
    <glyph glyph-name="grave" unicode="`" horiz-adv-x="408" 
d="M42 749h180l53 -166h-128z" />
    <glyph glyph-name="a" unicode="a" horiz-adv-x="586" 
d="M204 -12c-50.667 0 -91.666 12.333 -122.999 37c-36 27.333 -54 67.333 -54 120c0 114 92.667 171 278 171h50v12c0 28 -4.83301 48.833 -14.5 62.5s-27.834 20.5 -54.501 20.5c-42 0 -65.667 -20.667 -71 -62h-168c4 61.333 29 108.666 75 141.999
c42.667 30.667 101 46 175 46c74.667 0 132 -15.667 172 -47c42.667 -33.333 64 -83.666 64 -150.999v-339h-174v61c-31.333 -48.667 -83 -73 -155 -73zM266.001 109c26 0 47.333 6.83203 64 20.499s25 31.5 25 53.5v32h-47c-36.667 0 -63.167 -4.16699 -79.5 -12.5
s-24.5 -23.166 -24.5 -44.499c0 -32.667 20.667 -49 62 -49z" />
    <glyph glyph-name="b" unicode="b" horiz-adv-x="651" 
d="M398 -12c-78 0 -131.999 31.001 -161.999 93.001v-81h-179v753h179v-308c37.333 61.333 91.666 92 162.999 92c64 0 116 -22.667 156 -68c43.333 -48.667 65 -116.334 65 -203.001v-8c0 -86.667 -21.667 -154 -65 -202c-40 -45.333 -92.333 -68 -157 -68z
M335.001 125.001c68.667 0 103 44.332 103 132.999v8c0 45.333 -9 79.333 -27 102s-43.333 34 -76 34s-58.167 -11.667 -76.5 -35s-27.5 -56.666 -27.5 -99.999v-8c0 -44 9 -77.333 27 -100s43.667 -34 77 -34z" />
    <glyph glyph-name="c" unicode="c" horiz-adv-x="591" 
d="M304 -12c-81.333 0 -146.666 22.668 -195.999 68.001c-52.667 47.333 -79 113.666 -79 198.999v8c0 84 27.333 151.333 82 202c52 48 117.667 72 197 72c70 0 127.333 -15.667 172 -47c51.333 -38 79.333 -94 84 -168h-168c-8 50.667 -36 76 -84 76
c-66.667 0 -100 -44.333 -100 -133v-8c0 -92 34.333 -138 103 -138c53.333 0 83.666 29 90.999 87h161c-2.66699 -67.333 -26.5 -120.5 -71.5 -159.5s-108.833 -58.5 -191.5 -58.5z" />
    <glyph glyph-name="d" unicode="d" horiz-adv-x="650" 
d="M251 -12c-63.333 0 -115.001 22 -155.001 66c-43.333 48 -65 115.333 -65 202v8c0 86 21.333 154 64 204c40.667 46 93.334 69 158.001 69c73.333 0 127 -29.333 161 -88v304h179v-753h-179v85c-14 -29.333 -35.167 -52.833 -63.5 -70.5s-61.5 -26.5 -99.5 -26.5z
M313.999 125c33.333 0 59.167 11.333 77.5 34s27.5 56 27.5 100v8c0 90 -34.333 135 -103 135s-103 -45.333 -103 -136v-8c0 -43.333 8.83301 -76.333 26.5 -99s42.5 -34 74.5 -34z" />
    <glyph glyph-name="e" unicode="e" horiz-adv-x="606" 
d="M313 -12c-85.333 0 -153 23 -203 69c-54 47.333 -81 113.333 -81 198v8c0 82 27.333 148.667 82 200c52.667 49.333 119.667 74 201 74c76.667 0 139 -21.667 187 -65c52.667 -48 79 -116.333 79 -205v-47h-368c2.66699 -34.667 13.5 -61.5 32.5 -80.5
s44.5 -28.5 76.5 -28.5c52.667 0 83 20.667 91 62h168c-8 -60 -34.5 -105.833 -79.5 -137.5s-106.833 -47.5 -185.5 -47.5zM404 321c-3.33301 65.333 -34.001 98 -92.001 98c-57.333 0 -90.666 -32.667 -99.999 -98h192z" />
    <glyph glyph-name="f" unicode="f" horiz-adv-x="394" 
d="M84 401l-66 -0.000976562v122h66v46c0 62.667 18.167 110.334 54.5 143.001s86.5 49 150.5 49c29.333 0 56.666 -3.66699 81.999 -11v-131c-15.333 4.66699 -31.666 7 -48.999 7c-40 0 -60 -19 -60 -57v-46h106v-122h-106v-401h-178v401z" />
    <glyph glyph-name="g" unicode="g" horiz-adv-x="649" 
d="M302 -194c-86 0 -152 17.334 -198 52.001c-43.333 34 -68.666 81.333 -75.999 142h178c9.33301 -45.333 41.333 -68 96 -68c74 0 111 36.667 111 110v80c-14 -27.333 -34.333 -49.333 -61 -66c-29.333 -20 -63 -30 -101 -30c-64.667 0 -117 21.667 -157 65
c-43.333 46.667 -65 108.667 -65 186v8c0 75.333 21.667 136.666 65 183.999c41.333 45.333 93.666 68 156.999 68c74 0 128 -29.333 162 -88v74h179v-479c0 -78 -24.667 -137.167 -74 -177.5s-121.333 -60.5 -216 -60.5zM314 158.001c32 0 57.333 10.668 76 32.001
s28 50.666 28 87.999v7c0 36.667 -8.83301 65.5 -26.5 86.5s-43.167 31.5 -76.5 31.5s-58.833 -10.667 -76.5 -32s-26.5 -50.333 -26.5 -87v-8c0 -36 9 -64.667 27 -86s43 -32 75 -32z" />
    <glyph glyph-name="h" unicode="h" horiz-adv-x="632" 
d="M57 753l179.001 0.000976562v-314c33.333 65.333 90.666 98 171.999 98c52 0 93.5 -16.667 124.5 -50s46.5 -82.333 46.5 -147v-340h-179v304c0 58.667 -25 88 -75 88c-27.333 0 -49 -8.33301 -65 -25s-24 -41.334 -24 -74.001v-293h-179v753z" />
    <glyph glyph-name="i" unicode="i" horiz-adv-x="303" 
d="M62 523h179v-523h-179v523zM151 573c-28 0 -51.333 8.66699 -70 26s-28 39.333 -28 66s9.33301 48.834 28 66.501s42 26.5 70 26.5s51.5 -8.83301 70.5 -26.5s28.5 -39.834 28.5 -66.501s-9.5 -48.667 -28.5 -66s-42.5 -26 -70.5 -26z" />
    <glyph glyph-name="j" unicode="j" horiz-adv-x="303" 
d="M-2 -54c22 1.33301 38.167 7 48.5 17s15.5 25 15.5 45v515h178v-519c0 -61.333 -16.667 -107 -50 -137c-39.333 -34 -103.333 -51 -192 -51v130zM151 573c-28 0 -51.333 8.66699 -70 26s-28 39.333 -28 66s9.33301 48.834 28 66.501s42 26.5 70 26.5
s51.5 -8.83301 70.5 -26.5s28.5 -39.834 28.5 -66.501s-9.5 -48.667 -28.5 -66s-42.5 -26 -70.5 -26z" />
    <glyph glyph-name="k" unicode="k" horiz-adv-x="585" 
d="M57 753h179v-437l141 207h186l-171 -235l185 -288h-200l-141 229v-229h-179v753z" />
    <glyph glyph-name="l" unicode="l" horiz-adv-x="302" 
d="M62 753h178v-753h-178v753z" />
    <glyph glyph-name="m" unicode="m" horiz-adv-x="939" 
d="M57 523h178.998v-80c34.667 62.667 89.334 94 164.001 94c70 0 117.333 -29 142 -87c42.667 58 100.334 87 173.001 87c51.333 0 92.333 -16 123 -48c32 -36.667 48 -85.667 48 -147v-342h-179v312c0 26 -6 45.667 -18 59s-28.333 20 -49 20
c-24.667 0 -44.167 -7.66699 -58.5 -23s-21.5 -37 -21.5 -65v-303h-177v312c0 26 -6 45.667 -18 59s-28.333 20 -49 20c-24.667 0 -44.167 -7.66699 -58.5 -23s-21.5 -37 -21.5 -65v-303h-179v523z" />
    <glyph glyph-name="n" unicode="n" horiz-adv-x="632" 
d="M57 523l179.001 0.000976562v-84c33.333 65.333 90.666 98 171.999 98c52 0 93.5 -16.667 124.5 -50s46.5 -82.333 46.5 -147v-340h-179v304c0 58.667 -25 88 -75 88c-27.333 0 -49 -8.33301 -65 -25s-24 -41.334 -24 -74.001v-293h-179v523z" />
    <glyph glyph-name="o" unicode="o" horiz-adv-x="630" 
d="M316 121c68.667 0 103 45.667 103 137v8c0 91.333 -34.333 137 -103 137c-69.333 0 -104 -45 -104 -135v-8c0 -92.667 34.667 -139 104 -139zM315 -12c-82.667 0 -150.333 23.335 -203 70.002c-55.333 48 -83 113.667 -83 197v8c0 82 27.667 148.667 83 200
c52.667 49.333 120.667 74 204 74s151 -24 203 -72c54.667 -50.667 82 -116.334 82 -197.001v-8c0 -82.667 -27.333 -149.334 -82 -200.001c-53.333 -48 -121.333 -72 -204 -72z" />
    <glyph glyph-name="p" unicode="p" horiz-adv-x="651" 
d="M57 523l179.001 0.000976562v-78c37.333 61.333 91.666 92 162.999 92c64 0 116 -22.667 156 -68c43.333 -48.667 65 -116.334 65 -203.001v-8c0 -86.667 -21.667 -154 -65 -202c-40 -45.333 -92.333 -68 -157 -68c-77.333 0 -131.333 29.667 -162 89v-252h-179v698z
M335.001 125.001c68.667 0 103 44.332 103 132.999v8c0 45.333 -9 79.333 -27 102s-43.333 34 -76 34s-58.167 -11.667 -76.5 -35s-27.5 -56.666 -27.5 -99.999v-8c0 -44 9 -77.333 27 -100s43.667 -34 77 -34z" />
    <glyph glyph-name="q" unicode="q" horiz-adv-x="650" 
d="M414 81c-14.667 -27.333 -36.001 -49.667 -64.001 -67s-61 -26 -99 -26c-63.333 0 -115 22 -155 66c-43.333 48 -65 115.333 -65 202v8c0 86 21.333 154 64 204c40.667 46 93.334 69 158.001 69c73.333 0 127 -29.333 161 -88v74h179v-698h-179v256zM313.999 124.999
c33.333 0 59.167 11.333 77.5 34s27.5 56 27.5 100v8c0 90 -34.333 135 -103 135s-103 -45.333 -103 -136v-8c0 -43.333 8.83301 -76.333 26.5 -99s42.5 -34 74.5 -34z" />
    <glyph glyph-name="r" unicode="r" horiz-adv-x="436" 
d="M57 523h179.001v-104c31.333 75.333 87.666 112.333 168.999 111v-167c-112.667 3.33301 -169 -35 -169 -115v-248h-179v523z" />
    <glyph glyph-name="s" unicode="s" horiz-adv-x="523" 
d="M262 -12c-75.333 0 -133.665 15.168 -174.998 45.501s-63 74.5 -65 132.5h165c4 -20.667 11.167 -35.667 21.5 -45s27.833 -14 52.5 -14c42.667 0 64 14.333 64 43c0 12.667 -7 22.334 -21 29.001s-39.333 12.667 -76 18c-72.667 9.33301 -123.334 26 -152.001 50
c-31.333 24.667 -47 64 -47 118c0 55.333 22.333 98.666 67 129.999c40 28 92.333 42 157 42c68.667 0 121.667 -12.667 159 -38c41.333 -28 65.333 -71.667 72 -131h-162c-6.66699 34.667 -29 52 -67 52c-18.667 0 -33.167 -3.66699 -43.5 -11s-15.5 -17.333 -15.5 -30
c0 -12 6.5 -21.167 19.5 -27.5s35.833 -11.5 68.5 -15.5c75.333 -9.33301 129.333 -25.333 162 -48c35.333 -26.667 53 -66.667 53 -120c0 -60.667 -20.833 -105.834 -62.5 -135.501s-99.834 -44.5 -174.501 -44.5z" />
    <glyph glyph-name="t" unicode="t" horiz-adv-x="397" 
d="M265 -12c-122.667 0 -184 60 -184 180v233h-63v122h63v109h179v-109h103v-122h-103v-216c0 -36.667 17.667 -55 53 -55c20 0 37 3 51 9v-136c-32.667 -10 -65.667 -15 -99 -15z" />
    <glyph glyph-name="u" unicode="u" horiz-adv-x="631" 
d="M229 -12c-52.667 0 -94.334 15.667 -125.001 47c-34 34 -51 83 -51 147v341h179v-312c0 -58.667 24.667 -88 74 -88c59.333 0 89 33 89 99v301h179v-523h-179v81c-31.333 -62 -86.666 -93 -165.999 -93z" />
    <glyph glyph-name="v" unicode="v" horiz-adv-x="601" 
d="M12 523h191l109 -337l107 337h171l-191 -523h-195z" />
    <glyph glyph-name="w" unicode="w" horiz-adv-x="853" 
d="M13 523h187l76 -313l88 313h144l78 -313l85 313h170l-166 -523h-171l-78 292l-81 -292h-174z" />
    <glyph glyph-name="x" unicode="x" 
d="M189 266l-163 257h206l81 -138l79 138h184l-165 -243l181 -280h-206l-93 156l-95 -156h-183z" />
    <glyph glyph-name="y" unicode="y" horiz-adv-x="597" 
d="M221 53l-209 470h194l108 -279l100 279h171l-280 -698h-171z" />
    <glyph glyph-name="z" unicode="z" horiz-adv-x="516" 
d="M14 18l229 370h-205v135h461v-19l-235 -369h223v-135h-473v18z" />
    <glyph glyph-name="braceleft" unicode="{" horiz-adv-x="426" 
d="M384 -148c-102.667 0 -176.167 18.666 -220.5 55.999s-59.833 95.666 -46.5 174.999l15 85c4 24.667 -2 45 -18 61s-42.333 24 -79 24v125c36.667 0 63 7.83301 79 23.5s22 35.834 18 60.501l-15 84c-13.333 82 1.83398 141 45.501 177s117.5 54 221.5 54v-130
c-40.667 -3.33301 -66.334 -11 -77.001 -23c-12.667 -12.667 -17 -37 -13 -73l13 -101c4.66699 -34 -2.16602 -62.5 -20.499 -85.5s-45.833 -38.833 -82.5 -47.5c36.667 -8.66699 64.167 -24.667 82.5 -48s25.166 -52 20.499 -86l-13 -101
c-4.66699 -36 -0.5 -61.167 12.5 -75.5s38.833 -22.166 77.5 -23.499v-131z" />
    <glyph glyph-name="bar" unicode="|" horiz-adv-x="276" 
d="M75 776h125v-924h-125v924z" />
    <glyph glyph-name="braceright" unicode="}" horiz-adv-x="426" 
d="M42 -17c38.667 1.33301 64.5 9.16699 77.5 23.5s17.167 39.5 12.5 75.5l-13 101c-4.66699 34 2.16602 62.667 20.499 86s45.833 39.333 82.5 48c-36.667 8.66699 -64.167 24.5 -82.5 47.5s-25.166 51.5 -20.499 85.5l13 101c4 34.667 0 59 -12 73
c-12 12 -38 19.667 -78 23v130c104 0 177.333 -17.667 220 -53c44 -36.667 59.667 -96 47 -178l-15 -84c-4 -24.667 2 -44.834 18 -60.501s42.333 -23.5 79 -23.5v-125c-36.667 0 -63 -8 -79 -24s-22 -36.333 -18 -61l15 -85
c13.333 -79.333 -2.16699 -137.666 -46.5 -174.999s-117.833 -56 -220.5 -56v131z" />
    <glyph glyph-name="asciitilde" unicode="~" horiz-adv-x="526" 
d="M32 214c4 68 20.668 119 50.001 153c26 30 58.667 45 98 45c27.333 0 57.666 -7.33301 90.999 -22c32 -14.667 52.667 -22 62 -22c26 0 41 15.333 45 46h116c-2.66699 -64 -18.667 -113.667 -48 -149c-26.667 -32.667 -59.334 -49 -98.001 -49
c-28.667 0 -59 7.33301 -91 22c-33.333 14.667 -54.333 22 -63 22c-25.333 0 -40.666 -15.333 -45.999 -46h-116z" />
    <glyph glyph-name="uni00A0" unicode="&#xa0;" horiz-adv-x="258" 
 />
    <glyph glyph-name="exclamdown" unicode="&#xa1;" horiz-adv-x="342" 
d="M171 608c30 0 55.168 -9.33398 75.501 -28.001s30.5 -42 30.5 -70s-10.167 -51.667 -30.5 -71s-45.5 -29 -75.5 -29c-28 0 -53.333 9.66699 -76 29c-20.667 20.667 -31 44.334 -31 71.001c0 28 10.333 51.333 31 70c19.333 18.667 44.666 28 75.999 28zM272.001 -117.001
h-202l27 480h148z" />
    <glyph glyph-name="cent" unicode="&#xa2;" horiz-adv-x="603" 
d="M279 -10c-76.667 7.33301 -136.333 33 -179 77c-47.333 47.333 -71 110 -71 188v8c0 76 24 139 72 189c46.667 46.667 106 74 178 82v95h78v-94c62 -5.33301 112.333 -25 151 -59c42 -38.667 65.333 -90 70 -154h-164c-5.33301 40 -24.333 66 -57 78v-284
c40.667 12 63 42 67 90h157c-3.33301 -61.333 -24.5 -111 -63.5 -149s-92.5 -60.333 -160.5 -67v-125h-78v125zM206.001 257c0 -75.333 24.333 -121.667 73 -139v281c-48.667 -17.333 -73 -62 -73 -134v-8z" />
    <glyph glyph-name="sterling" unicode="&#xa3;" horiz-adv-x="665" 
d="M38 407l50.998 -0.00195312c-8 30.667 -12 60.334 -12 89.001c0 70.667 26.333 127.334 79 170.001c49.333 39.333 114.666 59 195.999 59c88 0 156 -22 204 -66c42.667 -41.333 66 -99.666 70 -174.999h-187c-4 30 -12.333 52 -25 66s-31 21 -55 21
s-43.167 -7.66699 -57.5 -23s-21.5 -36.333 -21.5 -63c0 -20.667 2.33301 -46.667 7 -78h177v-120h-157c2.66699 -16.667 4 -35.334 4 -56.001c0 -21.333 -3.33301 -41 -10 -59c46.667 -14.667 77 -22 91 -22c38.667 0 59.667 19.667 63 59h184
c-3.33301 -66 -22 -118 -56 -156c-37.333 -41.333 -87.666 -62 -150.999 -62c-38.667 0 -80 8.66699 -124 26c-46.667 17.333 -75.334 26 -86.001 26c-29.333 0 -45.666 -14.333 -48.999 -43h-151c2.66699 40.667 12.834 76.834 30.501 108.501s42.834 54.167 75.501 67.5
c5.33301 17.333 8 35.666 8 54.999c0 16 -2.66699 34.667 -8 56h-90v120z" />
    <glyph glyph-name="yen" unicode="&#xa5;" horiz-adv-x="654" 
d="M68 365h138l-191 350h222l104 -233l103 233h195l-182 -350h140v-72h-162v-50h162v-72h-162v-171h-205v171h-162v72h162v50h-162v72z" />
    <glyph glyph-name="brokenbar" unicode="&#xa6;" horiz-adv-x="278" 
d="M75 301h125v-449h-125v449zM75 776h125v-404h-125v404z" />
    <glyph glyph-name="section" unicode="&#xa7;" horiz-adv-x="614" 
d="M296 -137c-69.333 0 -123.004 16.165 -161.004 48.498s-58.333 77.166 -61 134.499h163c3.33301 -41.333 24.333 -62 63 -62s58 15.333 58 46c0 15.333 -7.33301 27 -22 35s-43 17 -85 27c-74.667 17.333 -129 39.666 -163 66.999c-41.333 30 -62 73 -62 129
c0 64.667 36 110.334 108 137.001c-30 32 -45 70.667 -45 116c0 56 21.667 101 65 135c40.667 32.667 95.334 49 164.001 49s121.834 -16.167 159.501 -48.5s57.834 -77.166 60.501 -134.499h-162c-2 20.667 -7.66699 35.834 -17 45.501s-24.333 14.5 -45 14.5
c-38 0 -57 -15.333 -57 -46c0 -17.333 7 -29.333 21 -36c17.333 -9.33301 45 -18.333 83 -27c76.667 -18 131.334 -39 164.001 -63c42.667 -30.667 64 -74.667 64 -132c0 -62 -36 -108 -108 -138c29.333 -29.333 44 -67.666 44 -114.999c0 -54.667 -21 -98.667 -63 -132
c-42.667 -33.333 -98 -50 -166 -50zM371.996 223.998c29.333 6.66699 43.999 22.333 43.999 47c0 16 -7.66699 28.333 -23 37c-11.333 6 -36.666 15.333 -75.999 28l-74 24c-29.333 -5.33301 -44 -21 -44 -47c0 -14.667 7.16699 -26 21.5 -34s40.5 -18 78.5 -30z" />
    <glyph glyph-name="dieresis" unicode="&#xa8;" horiz-adv-x="408" 
d="M97 580c-24 0 -44 7.99902 -60 23.999c-16.667 15.333 -25 35 -25 59c0 23.333 8.33301 43.333 25 60c16 16 36 24 60 24s44.333 -8.16699 61 -24.5s25 -36.166 25 -59.499s-8.33301 -43 -25 -59s-37 -24 -61 -24zM310 579.999c-24 0 -44.167 8 -60.5 24
s-24.5 35.667 -24.5 59s8.16699 43.166 24.5 59.499s36.5 24.5 60.5 24.5s44.333 -8.16699 61 -24.5s25 -36.166 25 -59.499s-8.33301 -43 -25 -59s-37 -24 -61 -24z" />
    <glyph glyph-name="copyright" unicode="&#xa9;" horiz-adv-x="851" 
d="M432 151c-70 0 -122.833 18 -158.5 54s-53.5 85.667 -53.5 149v8c0 60 20 109 60 147c38 36.667 87.333 55 148 55c55.333 0 99.5 -13 132.5 -39s51.5 -65.333 55.5 -118h-128c-4 39.333 -24 59 -60 59c-50.667 0 -76 -34.667 -76 -104v-7c0 -70 26 -105 78 -105
c41.333 0 64 20.333 68 61h123c-3.33301 -51.333 -22 -90.833 -56 -118.5s-78.333 -41.5 -133 -41.5zM424 31c91.333 0 167.333 30.334 228 91.001c63.333 61.333 95 140.333 95 237c0 94.667 -31 173 -93 235c-62 60 -138 90 -228 90c-91.333 0 -167.333 -30.333 -228 -91
c-62.667 -60.667 -94 -139.334 -94 -236.001c0 -97.333 31.667 -176 95 -236c60 -60 135 -90 225 -90zM424 -19.999c-106.667 0 -197 36.334 -271 109.001c-74.667 72.667 -112 162 -112 268c0 105.333 37.333 194.666 112 267.999s165.667 110 273 110
c108.667 0 200 -36.333 274 -109c73.333 -73.333 110 -162.333 110 -267c0 -106.667 -37.333 -196.667 -112 -270c-74 -72.667 -165.333 -109 -274 -109z" />
    <glyph glyph-name="ordfeminine" unicode="&#xaa;" horiz-adv-x="491" 
d="M172 287c-41.333 0 -73.999 10.002 -97.999 30.002c-28.667 21.333 -43 53.333 -43 96c0 47.333 18.167 81.166 54.5 101.499s91.5 30.5 165.5 30.5h40v15c0 18 -3.33301 31.5 -10 40.5s-19.334 13.5 -38.001 13.5c-28.667 0 -45 -14.667 -49 -44h-148
c3.33301 49.333 23 87.166 59 113.499s84.667 39.5 146 39.5c130.667 0 196 -52.667 196 -158v-267h-153v47c-26 -38.667 -66.667 -58 -122 -58zM230.001 393.002c18 0 32.667 4.5 44 13.5s17 21.167 17 36.5v23h-36c-46 0 -69 -13 -69 -39c0 -22.667 14.667 -34 44 -34z
" />
    <glyph glyph-name="guillemotleft" unicode="&#xab;" horiz-adv-x="488" 
d="M35 261l124 191h115l-119 -191l119 -191h-115zM215 261l124 191h115l-119 -191l119 -191h-115z" />
    <glyph glyph-name="uni00AD" unicode="&#xad;" horiz-adv-x="390" 
d="M55 353h280v-135h-280v135z" />
    <glyph glyph-name="registered" unicode="&#xae;" horiz-adv-x="525" 
d="M177 615h90c60.667 0 91 -23.667 91 -71v-1c0 -26.667 -12.333 -46 -37 -58l50 -89h-72l-40 75h-12v-75h-70v219zM262 516c18.667 0 28 7.66699 28 23v1c0 14.667 -9.33301 22 -28 22h-15v-46h15zM262 319c53.333 0 97.333 17.333 132 52c36 34.667 54 78.667 54 132
c0 52.667 -17.333 97 -52 133c-35.333 34 -80 51 -134 51s-98.333 -17.333 -133 -52s-52 -79 -52 -133c0 -53.333 18 -97.333 54 -132c34 -34 77.667 -51 131 -51zM262 281c-64 0 -118.001 21.333 -162.001 64c-44.667 42.667 -67 95 -67 157s22.333 114.667 67 158
c43.333 43.333 97.333 65 162 65s119.334 -21.667 164.001 -65c44 -42.667 66 -95 66 -157s-22.333 -114.667 -67 -158c-44 -42.667 -98.333 -64 -163 -64z" />
    <glyph glyph-name="macron" unicode="&#xaf;" horiz-adv-x="408" 
d="M50 712h307v-100h-307v100z" />
    <glyph glyph-name="degree" unicode="&#xb0;" horiz-adv-x="461" 
d="M231 451c26 0 47.667 9.66699 65 29s26 43 26 71c0 30 -8.5 54.667 -25.5 74s-38.833 29 -65.5 29c-27.333 0 -49.666 -9.66699 -66.999 -29s-26 -44 -26 -74c0 -28.667 8.66699 -52.5 26 -71.5s39.666 -28.5 66.999 -28.5zM231 381c-49.333 0 -91.001 17 -125.001 51
c-34.667 33.333 -52 73 -52 119c0 47.333 17.333 88.333 52 123c34.667 33.333 76.334 50 125.001 50c48 0 89.333 -16.667 124 -50c34.667 -34.667 52 -75.667 52 -123c0 -46 -17.333 -85.667 -52 -119c-34 -34 -75.333 -51 -124 -51z" />
    <glyph glyph-name="plusminus" unicode="&#xb1;" horiz-adv-x="578" 
d="M217 341h-176v131h176v164h144v-164h176v-131h-176v-165h-144v165zM41 118h498v-118h-498v118z" />
    <glyph glyph-name="twosuperior" unicode="&#xb2;" horiz-adv-x="361" 
d="M9 356l128.001 133c24.667 24.667 42.167 44.167 52.5 58.5s15.5 28.833 15.5 43.5c0 21.333 -10.333 32 -31 32c-22.667 0 -36 -17.333 -40 -52h-120c1.33301 48.667 16.666 85.667 45.999 111s69.333 38 120 38s89.167 -11 115.5 -33s39.5 -51 39.5 -87
c0 -41.333 -25.667 -85.333 -77 -132l-35 -34h113v-95h-327v17z" />
    <glyph glyph-name="threesuperior" unicode="&#xb3;" horiz-adv-x="382" 
d="M190 332c-56 0 -98.333 12.667 -127 38c-26 23.333 -39.667 55.333 -41 96h116c3.33301 -28 18.333 -42 45 -42c26 0 39 11.333 39 34s-15 34 -45 34h-30v74h30c30 0 45 11.333 45 34c0 19.333 -11.333 29 -34 29c-24 0 -38 -12.667 -42 -38h-116
c3.33301 40 18.5 71.5 45.5 94.5s65.5 34.5 115.5 34.5s88.5 -9 115.5 -27s40.5 -43.667 40.5 -77c0 -41.333 -22.667 -68.333 -68 -81c22.667 -3.33301 41 -12.333 55 -27s21 -33 21 -55c0 -37.333 -14 -66.833 -42 -88.5s-69 -32.5 -123 -32.5z" />
    <glyph glyph-name="acute" unicode="&#xb4;" horiz-adv-x="408" 
d="M186 749h180l-105 -166h-128z" />
    <glyph glyph-name="mu" unicode="&#xb5;" horiz-adv-x="625" 
d="M53 523h178.999v-317c0 -57.333 24.667 -86 74 -86c59.333 0 89 33 89 99v304h179v-523h-176v71c-17.333 -47.333 -49.666 -71 -96.999 -71c-30 -0 -53 12.333 -69 37v-212h-179v698z" />
    <glyph glyph-name="paragraph" unicode="&#xb6;" horiz-adv-x="559" 
d="M260 329h-8.00098c-68.667 0 -122.5 16 -161.5 48s-58.5 79 -58.5 141c0 65.333 20.667 115 62 149c38.667 32 91.334 48 158.001 48h233v-815h-76v751h-74v-751h-75v429z" />
    <glyph glyph-name="periodcentered" unicode="&#xb7;" horiz-adv-x="307" 
d="M152 225c-30.667 0 -54.999 10 -72.999 30c-19.333 17.333 -29 41 -29 71c0 28.667 9.66699 52.667 29 72s43.666 29 72.999 29c28.667 0 53.667 -9.66699 75 -29c20 -20 30 -44 30 -72c0 -29.333 -10 -53 -30 -71c-20 -20 -45 -30 -75 -30z" />
    <glyph glyph-name="cedilla" unicode="&#xb8;" horiz-adv-x="408" 
d="M208 -226c-36 0 -65 8 -87 24s-35.333 39 -40 69h84c4.66699 -18.667 16.667 -28 36 -28c10 0 17.833 2.83301 23.5 8.5s8.5 12.834 8.5 21.501c0 20.667 -11 31 -33 31c-11.333 0 -22 -3.66699 -32 -11l-39 38l48 73h72l-31 -45
c31.333 3.33301 57.333 -2.33398 78 -17.001c22 -14 33 -37 33 -69c0 -30 -11 -53.333 -33 -70s-51.333 -25 -88 -25z" />
    <glyph glyph-name="onesuperior" unicode="&#xb9;" horiz-adv-x="294" 
d="M106 587l-82 -46v107l102 67h114v-376h-134v248z" />
    <glyph glyph-name="ordmasculine" unicode="&#xba;" horiz-adv-x="530" 
d="M266 403c46.667 0 70 33.333 70 100v6c0 65.333 -23.333 98 -70 98c-48 0 -72 -32 -72 -96v-6c0 -68 24 -102 72 -102zM265 287c-67.333 0 -122 18.334 -164 55.001c-44.667 39.333 -67 91.666 -67 156.999v6c0 66.667 22.333 120 67 160c42.667 38.667 97.667 58 165 58
c66 0 120.333 -18.667 163 -56c44.667 -40 67 -92.333 67 -157v-6c0 -66.667 -22.333 -120 -67 -160c-42 -38 -96.667 -57 -164 -57z" />
    <glyph glyph-name="guillemotright" unicode="&#xbb;" horiz-adv-x="488" 
d="M154 261l-120 191h115l125 -191l-125 -191h-115zM334 261l-120 191h115l125 -191l-125 -191h-115z" />
    <glyph glyph-name="onequarter" unicode="&#xbc;" horiz-adv-x="803" 
d="M109 587l-82 -46v107l102 67h114v-376h-134v248zM630 715h94l-560 -715h-94zM600 70h-187v49l156 257h159v-219h48v-87h-48v-70h-128v70zM604 157v132l-77 -132h77z" />
    <glyph glyph-name="onehalf" unicode="&#xbd;" horiz-adv-x="815" 
d="M109 587l-82 -46v107l102 67h114v-376h-134v248zM617 715h94l-560 -715h-94zM459 17l128.001 133c24.667 24.667 42.167 44.167 52.5 58.5s15.5 28.833 15.5 43.5c0 21.333 -10.333 32 -31 32c-22.667 0 -36 -17.333 -40 -52h-120
c1.33301 48.667 16.666 85.667 45.999 111s69.333 38 120 38s89.167 -11 115.5 -33s39.5 -51 39.5 -87c0 -41.333 -25.667 -85.333 -77 -132l-35 -34h113v-95h-327v17z" />
    <glyph glyph-name="threequarters" unicode="&#xbe;" horiz-adv-x="834" 
d="M193 332c-56 0 -98.333 12.667 -127 38c-26 23.333 -39.667 55.333 -41 96h116c3.33301 -28 18.333 -42 45 -42c26 0 39 11.333 39 34s-15 34 -45 34h-30v74h30c30 0 45 11.333 45 34c0 19.333 -11.333 29 -34 29c-24 0 -38 -12.667 -42 -38h-116
c3.33301 40 18.5 71.5 45.5 94.5s65.5 34.5 115.5 34.5s88.5 -9 115.5 -27s40.5 -43.667 40.5 -77c0 -41.333 -22.667 -68.333 -68 -81c22.667 -3.33301 41 -12.333 55 -27s21 -33 21 -55c0 -37.333 -14 -66.833 -42 -88.5s-69 -32.5 -123 -32.5zM678 715h94l-560 -715h-94z
M629 70h-187v49l156 257h159v-219h48v-87h-48v-70h-128v70zM633 157v132l-77 -132h77z" />
    <glyph glyph-name="questiondown" unicode="&#xbf;" horiz-adv-x="564" 
d="M391 345c0 -34 -10.667 -66 -32 -96c-9.33301 -13.333 -31.333 -37.333 -66 -72c-22 -20.667 -38.333 -38.167 -49 -52.5s-16 -29.5 -16 -45.5c0 -40 20.333 -60 61 -60c21.333 0 39 7.66699 53 23s22.667 37 26 65h174c-2.66699 -75.333 -28.667 -133.333 -78 -174
c-47.333 -39.333 -110.333 -59 -189 -59c-77.333 0 -136.833 16.333 -178.5 49s-62.5 79 -62.5 139c0 52.667 24.333 102.667 73 150c8 8 20.333 19.667 37 35s28.334 26.333 35.001 33c25.333 25.333 39.666 48.333 42.999 69v15h169v-19zM306 609
c32 0 57.332 -9.33398 75.999 -28.001c21.333 -18 32 -41.333 32 -70c0 -27.333 -10.667 -51 -32 -71c-21.333 -19.333 -46.666 -29 -75.999 -29c-27.333 0 -52.333 9.66699 -75 29c-20.667 20.667 -31 44.334 -31 71.001c0 28 10.333 51.333 31 70
c19.333 18.667 44.333 28 75 28z" />
    <glyph glyph-name="Agrave" unicode="&#xc0;" horiz-adv-x="755" 
d="M246 715h265l227 -715h-217l-38 133h-237l-38 -133h-191zM286 274h157l-78 275zM216 905h186l49 -146h-135z" />
    <glyph glyph-name="Aacute" unicode="&#xc1;" horiz-adv-x="755" 
d="M246 715h265l227 -715h-217l-38 133h-237l-38 -133h-191zM286 274h157l-78 275zM350 905h187l-103 -146h-135z" />
    <glyph glyph-name="Acircumflex" unicode="&#xc2;" horiz-adv-x="755" 
d="M246 715h265l227 -715h-217l-38 133h-237l-38 -133h-191zM286 274h157l-78 275zM302 905h150l110 -146h-130l-59 49l-58 -49h-127z" />
    <glyph glyph-name="Atilde" unicode="&#xc3;" horiz-adv-x="755" 
d="M246 715h265l227 -715h-217l-38 133h-237l-38 -133h-191zM286 274h157l-78 275zM440 758c-20 0 -43.333 5.66699 -70 17s-43.334 17 -50.001 17c-8 0 -14.833 -3 -20.5 -9s-9.16699 -14 -10.5 -24h-102c4 52 17.667 90.667 41 116c20.667 24.667 47.667 37 81 37
c19.333 0 42.333 -5.33301 69 -16c24 -11.333 41.333 -17 52 -17c16.667 0 27.334 10.667 32.001 32h101c-4 -49.333 -17.667 -88 -41 -116c-22.667 -24.667 -50 -37 -82 -37z" />
    <glyph glyph-name="Adieresis" unicode="&#xc4;" horiz-adv-x="755" 
d="M246 715h265l227 -715h-217l-38 133h-237l-38 -133h-191zM286 274h157l-78 275zM263 758c-24 0 -44 8 -60 24c-16.667 15.333 -25 35 -25 59c0 23.333 8.33301 43.166 25 59.499s36.667 24.5 60 24.5c24 0 44.333 -8.16699 61 -24.5s25 -36.166 25 -59.499
s-8.33301 -43 -25 -59s-37 -24 -61 -24zM486 758c-24 0 -44.167 8 -60.5 24s-24.5 35.667 -24.5 59s8.16699 43.166 24.5 59.499s36.5 24.5 60.5 24.5s44.333 -8.16699 61 -24.5s25 -36.166 25 -59.499s-8.33301 -43 -25 -59s-37 -24 -61 -24z" />
    <glyph glyph-name="Aring" unicode="&#xc5;" horiz-adv-x="755" 
d="M246 715h265l227 -715h-217l-38 133h-237l-38 -133h-191zM286 274h157l-78 275zM375 810c13.333 0 24.333 4.66699 33 14s13 21.333 13 36c0 15.333 -4.16699 27.5 -12.5 36.5s-19.5 13.5 -33.5 13.5s-25.167 -4.5 -33.5 -13.5s-12.5 -21.167 -12.5 -36.5
c0 -14.667 4.16699 -26.667 12.5 -36s19.5 -14 33.5 -14zM375 744c-32.667 0 -60.668 11.666 -84.001 34.999c-24 20.667 -36 47.667 -36 81c0 32.667 12 60 36 82c22.667 22.667 50.667 34 84 34c32 0 60.333 -11.333 85 -34c23.333 -23.333 35 -50.666 35 -81.999
c0 -32 -11.667 -59 -35 -81c-25.333 -23.333 -53.666 -35 -84.999 -35z" />
    <glyph glyph-name="AE" unicode="&#xc6;" horiz-adv-x="1010" 
d="M336 715h622v-158h-283v-123h223v-146h-223v-130h299v-158h-504v146h-197l-63 -146h-195zM332 284h138v273h-20z" />
    <glyph glyph-name="Ccedilla" unicode="&#xc7;" horiz-adv-x="767" 
d="M383 -226c-36 0 -64.9971 7.99902 -86.9971 23.999s-35.333 39 -40 69h84c4.66699 -18.667 16.667 -28 36 -28c10 0 17.833 2.83301 23.5 8.5s8.5 12.834 8.5 21.501c0 20.667 -11 31 -33 31c-11.333 0 -22 -3.66699 -32 -11l-39 38l42 65
c-101.333 10.667 -179 48.667 -233 114c-51.333 62 -77 144.333 -77 247v8c0 108.667 34.667 197 104 265c68 66.667 155 100 261 100c94 0 170.667 -22 230 -66c60 -47.333 94 -117 102 -209h-211c-8 75.333 -48 113 -120 113c-46.667 0 -83.334 -17.5 -110.001 -52.5
s-40 -84.833 -40 -149.5v-8c0 -64.667 13.167 -114.5 39.5 -149.5s64.166 -52.5 113.499 -52.5c78 0 122.333 39 133 117h204c-6.66699 -88.667 -40 -158 -100 -208c-56.667 -47.333 -132.334 -71.666 -227.001 -72.999l-22 -33c31.333 3.33301 57.333 -2.33398 78 -17.001
c22 -14 33 -37 33 -69c0 -30 -11 -53.333 -33 -70s-51.333 -25 -88 -25z" />
    <glyph glyph-name="Egrave" unicode="&#xc8;" horiz-adv-x="620" 
d="M73 715h494v-158h-290v-123h231v-146h-231v-130h306v-158h-510v715zM168 905h186l49 -146h-135z" />
    <glyph glyph-name="Eacute" unicode="&#xc9;" horiz-adv-x="620" 
d="M73 715h494v-158h-290v-123h231v-146h-231v-130h306v-158h-510v715zM302 905h187l-103 -146h-135z" />
    <glyph glyph-name="Ecircumflex" unicode="&#xca;" horiz-adv-x="620" 
d="M73 715h494v-158h-290v-123h231v-146h-231v-130h306v-158h-510v715zM254 905h150l110 -146h-130l-59 49l-58 -49h-127z" />
    <glyph glyph-name="Edieresis" unicode="&#xcb;" horiz-adv-x="620" 
d="M73 715h494v-158h-290v-123h231v-146h-231v-130h306v-158h-510v715zM215 758c-24 0 -44 8 -60 24c-16.667 15.333 -25 35 -25 59c0 23.333 8.33301 43.166 25 59.499s36.667 24.5 60 24.5c24 0 44.333 -8.16699 61 -24.5s25 -36.166 25 -59.499s-8.33301 -43 -25 -59
s-37 -24 -61 -24zM438 758c-24 0 -44.167 8 -60.5 24s-24.5 35.667 -24.5 59s8.16699 43.166 24.5 59.499s36.5 24.5 60.5 24.5s44.333 -8.16699 61 -24.5s25 -36.166 25 -59.499s-8.33301 -43 -25 -59s-37 -24 -61 -24z" />
    <glyph glyph-name="Igrave" unicode="&#xcc;" horiz-adv-x="360" 
d="M77 715h207v-715h-207v715zM21 905h186l49 -146h-135z" />
    <glyph glyph-name="Iacute" unicode="&#xcd;" horiz-adv-x="360" 
d="M77 715h207v-715h-207v715zM155 905h187l-103 -146h-135z" />
    <glyph glyph-name="Icircumflex" unicode="&#xce;" horiz-adv-x="360" 
d="M77 715h207v-715h-207v715zM107 905h150l110 -146h-130l-59 49l-58 -49h-127z" />
    <glyph glyph-name="Idieresis" unicode="&#xcf;" horiz-adv-x="360" 
d="M77 715h207v-715h-207v715zM68 758c-24 0 -44 8 -60 24c-16.667 15.333 -25 35 -25 59c0 23.333 8.33301 43.166 25 59.499s36.667 24.5 60 24.5c24 0 44.333 -8.16699 61 -24.5s25 -36.166 25 -59.499s-8.33301 -43 -25 -59s-37 -24 -61 -24zM291 758
c-24 0 -44.167 8 -60.5 24s-24.5 35.667 -24.5 59s8.16699 43.166 24.5 59.499s36.5 24.5 60.5 24.5s44.333 -8.16699 61 -24.5s25 -36.166 25 -59.499s-8.33301 -43 -25 -59s-37 -24 -61 -24z" />
    <glyph glyph-name="Eth" unicode="&#xd0;" horiz-adv-x="782" 
d="M33 428l58.999 -0.000976562v287h259c126 0 221.333 -30.167 286 -90.5s97 -146.5 97 -258.5v-8c0 -113.333 -32.333 -200.666 -97 -261.999c-65.333 -64 -160.666 -96 -285.999 -96h-259v290h-59v138zM344.999 157.999c60 0 104.168 16.167 132.501 48.5
s42.5 81.833 42.5 148.5v8c0 68.667 -13.833 118.167 -41.5 148.5s-72.834 45.5 -135.501 45.5h-50v-129h120v-138h-120v-132h52z" />
    <glyph glyph-name="Ntilde" unicode="&#xd1;" horiz-adv-x="785" 
d="M73 715h231l229 -403v403h179v-715h-198l-261 449v-449h-180v715zM475 758c-20 0 -43.333 5.66699 -70 17s-43.334 17 -50.001 17c-8 0 -14.833 -3 -20.5 -9s-9.16699 -14 -10.5 -24h-102c4 52 17.667 90.667 41 116c20.667 24.667 47.667 37 81 37
c19.333 0 42.333 -5.33301 69 -16c24 -11.333 41.333 -17 52 -17c16.667 0 27.334 10.667 32.001 32h101c-4 -49.333 -17.667 -88 -41 -116c-22.667 -24.667 -50 -37 -82 -37z" />
    <glyph glyph-name="Ograve" unicode="&#xd2;" horiz-adv-x="827" 
d="M414 149c50.667 0 90.667 18.333 120 55s44 87 44 151v8c0 63.333 -14.833 112.833 -44.5 148.5s-69.834 53.5 -120.501 53.5c-51.333 0 -91.5 -17.667 -120.5 -53s-43.5 -85.333 -43.5 -150v-8c0 -64.667 14.833 -115 44.5 -151s69.834 -54 120.501 -54zM410 -12
c-113.333 0 -204.667 34 -274 102c-67.333 66 -101 153.667 -101 263v8c0 107.333 36.333 195.333 109 264c70.667 66.667 160.334 100 269.001 100c110 0 200.667 -32 272 -96c71.333 -67.333 107 -155 107 -263v-8c0 -112 -34.667 -201 -104 -267
c-70.667 -68.667 -163.334 -103 -278.001 -103zM252.999 905h186l49 -146h-135z" />
    <glyph glyph-name="Oacute" unicode="&#xd3;" horiz-adv-x="827" 
d="M414 149c50.667 0 90.667 18.333 120 55s44 87 44 151v8c0 63.333 -14.833 112.833 -44.5 148.5s-69.834 53.5 -120.501 53.5c-51.333 0 -91.5 -17.667 -120.5 -53s-43.5 -85.333 -43.5 -150v-8c0 -64.667 14.833 -115 44.5 -151s69.834 -54 120.501 -54zM410 -12
c-113.333 0 -204.667 34 -274 102c-67.333 66 -101 153.667 -101 263v8c0 107.333 36.333 195.333 109 264c70.667 66.667 160.334 100 269.001 100c110 0 200.667 -32 272 -96c71.333 -67.333 107 -155 107 -263v-8c0 -112 -34.667 -201 -104 -267
c-70.667 -68.667 -163.334 -103 -278.001 -103zM386.999 905h187l-103 -146h-135z" />
    <glyph glyph-name="Ocircumflex" unicode="&#xd4;" horiz-adv-x="827" 
d="M414 149c50.667 0 90.667 18.333 120 55s44 87 44 151v8c0 63.333 -14.833 112.833 -44.5 148.5s-69.834 53.5 -120.501 53.5c-51.333 0 -91.5 -17.667 -120.5 -53s-43.5 -85.333 -43.5 -150v-8c0 -64.667 14.833 -115 44.5 -151s69.834 -54 120.501 -54zM410 -12
c-113.333 0 -204.667 34 -274 102c-67.333 66 -101 153.667 -101 263v8c0 107.333 36.333 195.333 109 264c70.667 66.667 160.334 100 269.001 100c110 0 200.667 -32 272 -96c71.333 -67.333 107 -155 107 -263v-8c0 -112 -34.667 -201 -104 -267
c-70.667 -68.667 -163.334 -103 -278.001 -103zM338.999 905h150l110 -146h-130l-59 49l-58 -49h-127z" />
    <glyph glyph-name="Otilde" unicode="&#xd5;" horiz-adv-x="827" 
d="M414 149c50.667 0 90.667 18.333 120 55s44 87 44 151v8c0 63.333 -14.833 112.833 -44.5 148.5s-69.834 53.5 -120.501 53.5c-51.333 0 -91.5 -17.667 -120.5 -53s-43.5 -85.333 -43.5 -150v-8c0 -64.667 14.833 -115 44.5 -151s69.834 -54 120.501 -54zM410 -12
c-113.333 0 -204.667 34 -274 102c-67.333 66 -101 153.667 -101 263v8c0 107.333 36.333 195.333 109 264c70.667 66.667 160.334 100 269.001 100c110 0 200.667 -32 272 -96c71.333 -67.333 107 -155 107 -263v-8c0 -112 -34.667 -201 -104 -267
c-70.667 -68.667 -163.334 -103 -278.001 -103zM476.999 758c-20 0 -43.333 5.66699 -70 17s-43.334 17 -50.001 17c-8 0 -14.833 -3 -20.5 -9s-9.16699 -14 -10.5 -24h-102c4 52 17.667 90.667 41 116c20.667 24.667 47.667 37 81 37c19.333 0 42.333 -5.33301 69 -16
c24 -11.333 41.333 -17 52 -17c16.667 0 27.334 10.667 32.001 32h101c-4 -49.333 -17.667 -88 -41 -116c-22.667 -24.667 -50 -37 -82 -37z" />
    <glyph glyph-name="Odieresis" unicode="&#xd6;" horiz-adv-x="827" 
d="M414 149c50.667 0 90.667 18.333 120 55s44 87 44 151v8c0 63.333 -14.833 112.833 -44.5 148.5s-69.834 53.5 -120.501 53.5c-51.333 0 -91.5 -17.667 -120.5 -53s-43.5 -85.333 -43.5 -150v-8c0 -64.667 14.833 -115 44.5 -151s69.834 -54 120.501 -54zM410 -12
c-113.333 0 -204.667 34 -274 102c-67.333 66 -101 153.667 -101 263v8c0 107.333 36.333 195.333 109 264c70.667 66.667 160.334 100 269.001 100c110 0 200.667 -32 272 -96c71.333 -67.333 107 -155 107 -263v-8c0 -112 -34.667 -201 -104 -267
c-70.667 -68.667 -163.334 -103 -278.001 -103zM299.999 758c-24 0 -44 8 -60 24c-16.667 15.333 -25 35 -25 59c0 23.333 8.33301 43.166 25 59.499s36.667 24.5 60 24.5c24 0 44.333 -8.16699 61 -24.5s25 -36.166 25 -59.499s-8.33301 -43 -25 -59s-37 -24 -61 -24z
M522.999 758c-24 0 -44.167 8 -60.5 24s-24.5 35.667 -24.5 59s8.16699 43.166 24.5 59.499s36.5 24.5 60.5 24.5s44.333 -8.16699 61 -24.5s25 -36.166 25 -59.499s-8.33301 -43 -25 -59s-37 -24 -61 -24z" />
    <glyph glyph-name="multiply" unicode="&#xd7;" horiz-adv-x="579" 
d="M43 184l152 152l-155 154l95 96l154 -156l153 153l94 -95l-153 -152l155 -154l-95 -95l-154 155l-152 -152z" />
    <glyph glyph-name="Oslash" unicode="&#xd8;" horiz-adv-x="827" 
d="M36 26l80 85c-54 65.333 -81 146 -81 242v8c0 107.333 36.333 195.333 109 264c70.667 66.667 160.334 100 269.001 100c86 0 161.667 -20.667 227 -62l73 77l59 -58l-69 -73c59.333 -63.333 89 -144.333 89 -243v-8c0 -112 -34.667 -201 -104 -267
c-70.667 -68.667 -163.334 -103 -278.001 -103c-92 0 -169.667 22.333 -233 67l-82 -87zM414 149c51.333 0 91.832 18.167 121.499 54.5s44.5 86.833 44.5 151.5v8c0 38.667 -5.33301 71.667 -16 99l-260 -273c28.667 -26.667 65.334 -40 110.001 -40zM246.999 354
c0 -34 4.33301 -64.667 13 -92l255 270c-26 22 -60 33 -102 33c-52 0 -92.667 -17.667 -122 -53s-44 -85.333 -44 -150v-8z" />
    <glyph glyph-name="Ugrave" unicode="&#xd9;" horiz-adv-x="772" 
d="M385 -12c-102.667 0 -181.167 25.5029 -235.5 76.5029s-81.5 126.167 -81.5 225.5v425h205v-416c0 -52.667 8.16699 -90.834 24.5 -114.501s45.5 -35.5 87.5 -35.5s71.167 11.667 87.5 35s24.5 62.666 24.5 117.999v413h207v-422
c0 -102.667 -28.333 -179.334 -85 -230.001c-54.667 -50 -132.667 -75 -234 -75zM225 905.003h186l49 -146h-135z" />
    <glyph glyph-name="Uacute" unicode="&#xda;" horiz-adv-x="772" 
d="M385 -12c-102.667 0 -181.167 25.5029 -235.5 76.5029s-81.5 126.167 -81.5 225.5v425h205v-416c0 -52.667 8.16699 -90.834 24.5 -114.501s45.5 -35.5 87.5 -35.5s71.167 11.667 87.5 35s24.5 62.666 24.5 117.999v413h207v-422
c0 -102.667 -28.333 -179.334 -85 -230.001c-54.667 -50 -132.667 -75 -234 -75zM359 905.003h187l-103 -146h-135z" />
    <glyph glyph-name="Ucircumflex" unicode="&#xdb;" horiz-adv-x="772" 
d="M385 -12c-102.667 0 -181.167 25.5029 -235.5 76.5029s-81.5 126.167 -81.5 225.5v425h205v-416c0 -52.667 8.16699 -90.834 24.5 -114.501s45.5 -35.5 87.5 -35.5s71.167 11.667 87.5 35s24.5 62.666 24.5 117.999v413h207v-422
c0 -102.667 -28.333 -179.334 -85 -230.001c-54.667 -50 -132.667 -75 -234 -75zM311 905.003h150l110 -146h-130l-59 49l-58 -49h-127z" />
    <glyph glyph-name="Udieresis" unicode="&#xdc;" horiz-adv-x="772" 
d="M385 -12c-102.667 0 -181.167 25.5029 -235.5 76.5029s-81.5 126.167 -81.5 225.5v425h205v-416c0 -52.667 8.16699 -90.834 24.5 -114.501s45.5 -35.5 87.5 -35.5s71.167 11.667 87.5 35s24.5 62.666 24.5 117.999v413h207v-422
c0 -102.667 -28.333 -179.334 -85 -230.001c-54.667 -50 -132.667 -75 -234 -75zM272 758.003c-24 0 -44 8 -60 24c-16.667 15.333 -25 35 -25 59c0 23.333 8.33301 43.166 25 59.499s36.667 24.5 60 24.5c24 0 44.333 -8.16699 61 -24.5s25 -36.166 25 -59.499
s-8.33301 -43 -25 -59s-37 -24 -61 -24zM495 758.003c-24 0 -44.167 8 -60.5 24s-24.5 35.667 -24.5 59s8.16699 43.166 24.5 59.499s36.5 24.5 60.5 24.5s44.333 -8.16699 61 -24.5s25 -36.166 25 -59.499s-8.33301 -43 -25 -59s-37 -24 -61 -24z" />
    <glyph glyph-name="Yacute" unicode="&#xdd;" horiz-adv-x="685" 
d="M245 306l-233 409h223l121 -241l121 241h196l-222 -409v-306h-206v306zM324 905h187l-103 -146h-135z" />
    <glyph glyph-name="Thorn" unicode="&#xde;" horiz-adv-x="660" 
d="M73 715h204v-117h68c98 0 170.333 -18.833 217 -56.5s70 -95.5 70 -173.5v-4c0 -74 -23.833 -130.667 -71.5 -170s-116.5 -59 -206.5 -59h-77v-135h-204v715zM336 275c67.333 0 101 29.333 101 88v4c0 30.667 -8.33301 52.5 -25 65.5s-41.667 19.5 -75 19.5h-60v-177h59z
" />
    <glyph glyph-name="germandbls" unicode="&#xdf;" horiz-adv-x="644" 
d="M385 -10c-36 0 -67.998 3.66309 -95.998 10.9961v135c18 -6 34.333 -9 49 -9c26.667 0 49 8 67 24c19.333 19.333 29 50 29 92v6c0 41.333 -13 72.333 -39 93c-24.667 16.667 -58 25 -100 25v133c31.333 0 55.666 8 72.999 24c14.667 14.667 22 32.667 22 54v3
c0 22.667 -6.5 40.334 -19.5 53.001s-31.5 19 -55.5 19s-43.167 -8.33301 -57.5 -25s-21.5 -39.667 -21.5 -69v-559h-179v544c0 76 26.667 134 80 174c47.333 35.333 110.333 53 189 53c73.333 0 130.666 -15.667 171.999 -47s62 -76.666 62 -135.999v-2
c0 -33.333 -11 -62.666 -33 -87.999s-50.667 -43.333 -86 -54c50.667 -12 91.667 -34 123 -66c34.667 -38 52 -85 52 -141v-7c0 -77.333 -21.667 -137.666 -65 -180.999c-40 -39.333 -95.333 -59 -166 -59z" />
    <glyph glyph-name="agrave" unicode="&#xe0;" horiz-adv-x="586" 
d="M204 -12c-50.667 0 -91.666 12.333 -122.999 37c-36 27.333 -54 67.333 -54 120c0 114 92.667 171 278 171h50v12c0 28 -4.83301 48.833 -14.5 62.5s-27.834 20.5 -54.501 20.5c-42 0 -65.667 -20.667 -71 -62h-168c4 61.333 29 108.666 75 141.999
c42.667 30.667 101 46 175 46c74.667 0 132 -15.667 172 -47c42.667 -33.333 64 -83.666 64 -150.999v-339h-174v61c-31.333 -48.667 -83 -73 -155 -73zM266.001 109c26 0 47.333 6.83203 64 20.499s25 31.5 25 53.5v32h-47c-36.667 0 -63.167 -4.16699 -79.5 -12.5
s-24.5 -23.166 -24.5 -44.499c0 -32.667 20.667 -49 62 -49zM131.001 748.999h180l53 -166h-128z" />
    <glyph glyph-name="aacute" unicode="&#xe1;" horiz-adv-x="586" 
d="M204 -12c-50.667 0 -91.666 12.333 -122.999 37c-36 27.333 -54 67.333 -54 120c0 114 92.667 171 278 171h50v12c0 28 -4.83301 48.833 -14.5 62.5s-27.834 20.5 -54.501 20.5c-42 0 -65.667 -20.667 -71 -62h-168c4 61.333 29 108.666 75 141.999
c42.667 30.667 101 46 175 46c74.667 0 132 -15.667 172 -47c42.667 -33.333 64 -83.666 64 -150.999v-339h-174v61c-31.333 -48.667 -83 -73 -155 -73zM266.001 109c26 0 47.333 6.83203 64 20.499s25 31.5 25 53.5v32h-47c-36.667 0 -63.167 -4.16699 -79.5 -12.5
s-24.5 -23.166 -24.5 -44.499c0 -32.667 20.667 -49 62 -49zM279.001 748.999h180l-105 -166h-128z" />
    <glyph glyph-name="acircumflex" unicode="&#xe2;" horiz-adv-x="586" 
d="M204 -12c-50.667 0 -91.666 12.333 -122.999 37c-36 27.333 -54 67.333 -54 120c0 114 92.667 171 278 171h50v12c0 28 -4.83301 48.833 -14.5 62.5s-27.834 20.5 -54.501 20.5c-42 0 -65.667 -20.667 -71 -62h-168c4 61.333 29 108.666 75 141.999
c42.667 30.667 101 46 175 46c74.667 0 132 -15.667 172 -47c42.667 -33.333 64 -83.666 64 -150.999v-339h-174v61c-31.333 -48.667 -83 -73 -155 -73zM266.001 109c26 0 47.333 6.83203 64 20.499s25 31.5 25 53.5v32h-47c-36.667 0 -63.167 -4.16699 -79.5 -12.5
s-24.5 -23.166 -24.5 -44.499c0 -32.667 20.667 -49 62 -49zM229.001 747.999h128l118 -163h-125l-61 56l-60 -56h-123z" />
    <glyph glyph-name="atilde" unicode="&#xe3;" horiz-adv-x="586" 
d="M204 -12c-50.667 0 -91.666 12.333 -122.999 37c-36 27.333 -54 67.333 -54 120c0 114 92.667 171 278 171h50v12c0 28 -4.83301 48.833 -14.5 62.5s-27.834 20.5 -54.501 20.5c-42 0 -65.667 -20.667 -71 -62h-168c4 61.333 29 108.666 75 141.999
c42.667 30.667 101 46 175 46c74.667 0 132 -15.667 172 -47c42.667 -33.333 64 -83.666 64 -150.999v-339h-174v61c-31.333 -48.667 -83 -73 -155 -73zM266.001 109c26 0 47.333 6.83203 64 20.499s25 31.5 25 53.5v32h-47c-36.667 0 -63.167 -4.16699 -79.5 -12.5
s-24.5 -23.166 -24.5 -44.499c0 -32.667 20.667 -49 62 -49zM359.001 586.999c-21.333 0 -44.002 5.66797 -68.002 17.001c-25.333 10.667 -41.666 16 -48.999 16c-17.333 0 -27.666 -10.667 -30.999 -32h-97c3.33301 51.333 15.166 90.166 35.499 116.499
s46.833 39.5 79.5 39.5c17.333 0 40 -5.66699 68 -17c26.667 -11.333 43.667 -17 51 -17c16.667 0 27.334 10.667 32.001 32h97c-4 -50 -16.833 -88.333 -38.5 -115s-48.167 -40 -79.5 -40z" />
    <glyph glyph-name="adieresis" unicode="&#xe4;" horiz-adv-x="586" 
d="M204 -12c-50.667 0 -91.666 12.333 -122.999 37c-36 27.333 -54 67.333 -54 120c0 114 92.667 171 278 171h50v12c0 28 -4.83301 48.833 -14.5 62.5s-27.834 20.5 -54.501 20.5c-42 0 -65.667 -20.667 -71 -62h-168c4 61.333 29 108.666 75 141.999
c42.667 30.667 101 46 175 46c74.667 0 132 -15.667 172 -47c42.667 -33.333 64 -83.666 64 -150.999v-339h-174v61c-31.333 -48.667 -83 -73 -155 -73zM266.001 109c26 0 47.333 6.83203 64 20.499s25 31.5 25 53.5v32h-47c-36.667 0 -63.167 -4.16699 -79.5 -12.5
s-24.5 -23.166 -24.5 -44.499c0 -32.667 20.667 -49 62 -49zM188.001 579.999c-24 0 -44 7.99902 -60 23.999c-16.667 15.333 -25 35 -25 59c0 23.333 8.33301 43.333 25 60c16 16 36 24 60 24s44.333 -8.16699 61 -24.5s25 -36.166 25 -59.499s-8.33301 -43 -25 -59
s-37 -24 -61 -24zM401.001 579.998c-24 0 -44.167 8 -60.5 24s-24.5 35.667 -24.5 59s8.16699 43.166 24.5 59.499s36.5 24.5 60.5 24.5s44.333 -8.16699 61 -24.5s25 -36.166 25 -59.499s-8.33301 -43 -25 -59s-37 -24 -61 -24z" />
    <glyph glyph-name="aring" unicode="&#xe5;" horiz-adv-x="586" 
d="M204 -12c-50.667 0 -91.666 12.333 -122.999 37c-36 27.333 -54 67.333 -54 120c0 114 92.667 171 278 171h50v12c0 28 -4.83301 48.833 -14.5 62.5s-27.834 20.5 -54.501 20.5c-42 0 -65.667 -20.667 -71 -62h-168c4 61.333 29 108.666 75 141.999
c42.667 30.667 101 46 175 46c74.667 0 132 -15.667 172 -47c42.667 -33.333 64 -83.666 64 -150.999v-339h-174v61c-31.333 -48.667 -83 -73 -155 -73zM266.001 109c26 0 47.333 6.83203 64 20.499s25 31.5 25 53.5v32h-47c-36.667 0 -63.167 -4.16699 -79.5 -12.5
s-24.5 -23.166 -24.5 -44.499c0 -32.667 20.667 -49 62 -49zM295.001 641.999c13.333 0 24.333 4.66699 33 14s13 21.333 13 36c0 15.333 -4.33301 27.666 -13 36.999s-19.667 14 -33 14s-24.333 -4.66699 -33 -14s-13 -21.666 -13 -36.999
c0 -14.667 4.33301 -26.667 13 -36s19.667 -14 33 -14zM295.001 577.999c-32.667 0 -60.334 11.333 -83.001 34c-23.333 22 -35 48.667 -35 80c0 30.667 11.667 57.667 35 81c22.667 22.667 50.334 34 83.001 34s60.334 -11.333 83.001 -34
c23.333 -23.333 35 -50.333 35 -81c0 -31.333 -11.667 -58 -35 -80c-22.667 -22.667 -50.334 -34 -83.001 -34z" />
    <glyph glyph-name="ae" unicode="&#xe6;" horiz-adv-x="916" 
d="M631 -12c-94 0 -161.668 30.332 -203.001 90.999c-46 -60.667 -115 -91 -207 -91c-56 0 -101.333 12.333 -136 37c-38.667 26.667 -58 66.667 -58 120c0 116.667 92.333 174.334 277 173.001h53v9c0 28 -5 49 -15 63s-28.333 21 -55 21c-42 0 -66 -20.667 -72 -62h-168
c4 60.667 28.667 108 74 142c42.667 30.667 99 46 169 46c80.667 0 137 -20.667 169 -62c44.667 41.333 100.334 62 167.001 62c76 0 137.333 -21.333 184 -64c52 -47.333 78 -116.333 78 -207v-46h-360c5.33301 -72.667 40 -109 104 -109c51.333 0 81 20.667 89 62h167
c-8 -60 -33.833 -105.833 -77.5 -137.5s-103.5 -47.5 -179.5 -47.5zM714.999 317.999c-4 67.333 -33.668 101 -89.001 101c-26.667 0 -48.667 -8.83301 -66 -26.5s-27.666 -42.5 -30.999 -74.5h186zM266.998 108.999c28 0 50 6.66699 66 20s24 31.333 24 54v34h-50
c-35.333 0.666992 -61.333 -3 -78 -11s-25 -22.667 -25 -44c0 -35.333 21 -53 63 -53z" />
    <glyph glyph-name="ccedilla" unicode="&#xe7;" horiz-adv-x="591" 
d="M285 -226c-36 0 -64.999 8 -86.999 24s-35.333 39 -40 69h84c4.66699 -18.667 16.667 -28 36 -28c10 0 17.833 2.83301 23.5 8.5s8.5 12.834 8.5 21.501c0 20.667 -11 31 -33 31c-11.333 0 -22 -3.66699 -32 -11l-39 38l43 65c-66 9.33301 -118.667 36 -158 80
c-41.333 46.667 -62 107.667 -62 183v8c0 84 27.333 151.333 82 202c52 48 117.667 72 197 72c70 0 127.333 -15.667 172 -47c51.333 -38 79.333 -94 84 -168h-168c-8 50.667 -36 76 -84 76c-66.667 0 -100 -44.333 -100 -133v-8c0 -92 34.333 -138 103 -138
c53.333 0 83.666 29 90.999 87h161c-2.66699 -66 -25.167 -118.167 -67.5 -156.5s-102.833 -58.833 -181.5 -61.5l-23 -33c31.333 3.33301 57.333 -2.33398 78 -17.001c22 -14 33 -37 33 -69c0 -30 -11 -53.333 -33 -70s-51.333 -25 -88 -25z" />
    <glyph glyph-name="egrave" unicode="&#xe8;" horiz-adv-x="606" 
d="M313 -12c-85.333 0 -153 23 -203 69c-54 47.333 -81 113.333 -81 198v8c0 82 27.333 148.667 82 200c52.667 49.333 119.667 74 201 74c76.667 0 139 -21.667 187 -65c52.667 -48 79 -116.333 79 -205v-47h-368c2.66699 -34.667 13.5 -61.5 32.5 -80.5
s44.5 -28.5 76.5 -28.5c52.667 0 83 20.667 91 62h168c-8 -60 -34.5 -105.833 -79.5 -137.5s-106.833 -47.5 -185.5 -47.5zM404 321c-3.33301 65.333 -34.001 98 -92.001 98c-57.333 0 -90.666 -32.667 -99.999 -98h192zM142.999 749h180l53 -166h-128z" />
    <glyph glyph-name="eacute" unicode="&#xe9;" horiz-adv-x="606" 
d="M313 -12c-85.333 0 -153 23 -203 69c-54 47.333 -81 113.333 -81 198v8c0 82 27.333 148.667 82 200c52.667 49.333 119.667 74 201 74c76.667 0 139 -21.667 187 -65c52.667 -48 79 -116.333 79 -205v-47h-368c2.66699 -34.667 13.5 -61.5 32.5 -80.5
s44.5 -28.5 76.5 -28.5c52.667 0 83 20.667 91 62h168c-8 -60 -34.5 -105.833 -79.5 -137.5s-106.833 -47.5 -185.5 -47.5zM404 321c-3.33301 65.333 -34.001 98 -92.001 98c-57.333 0 -90.666 -32.667 -99.999 -98h192zM290.999 749h180l-105 -166h-128z" />
    <glyph glyph-name="ecircumflex" unicode="&#xea;" horiz-adv-x="606" 
d="M313 -12c-85.333 0 -153 23 -203 69c-54 47.333 -81 113.333 -81 198v8c0 82 27.333 148.667 82 200c52.667 49.333 119.667 74 201 74c76.667 0 139 -21.667 187 -65c52.667 -48 79 -116.333 79 -205v-47h-368c2.66699 -34.667 13.5 -61.5 32.5 -80.5
s44.5 -28.5 76.5 -28.5c52.667 0 83 20.667 91 62h168c-8 -60 -34.5 -105.833 -79.5 -137.5s-106.833 -47.5 -185.5 -47.5zM404 321c-3.33301 65.333 -34.001 98 -92.001 98c-57.333 0 -90.666 -32.667 -99.999 -98h192zM244.999 748h128l118 -163h-125l-61 56l-60 -56h-123
z" />
    <glyph glyph-name="edieresis" unicode="&#xeb;" horiz-adv-x="606" 
d="M313 -12c-85.333 0 -153 23 -203 69c-54 47.333 -81 113.333 -81 198v8c0 82 27.333 148.667 82 200c52.667 49.333 119.667 74 201 74c76.667 0 139 -21.667 187 -65c52.667 -48 79 -116.333 79 -205v-47h-368c2.66699 -34.667 13.5 -61.5 32.5 -80.5
s44.5 -28.5 76.5 -28.5c52.667 0 83 20.667 91 62h168c-8 -60 -34.5 -105.833 -79.5 -137.5s-106.833 -47.5 -185.5 -47.5zM404 321c-3.33301 65.333 -34.001 98 -92.001 98c-57.333 0 -90.666 -32.667 -99.999 -98h192zM199.999 580c-24 0 -44 7.99902 -60 23.999
c-16.667 15.333 -25 35 -25 59c0 23.333 8.33301 43.333 25 60c16 16 36 24 60 24s44.333 -8.16699 61 -24.5s25 -36.166 25 -59.499s-8.33301 -43 -25 -59s-37 -24 -61 -24zM412.999 579.999c-24 0 -44.167 8 -60.5 24s-24.5 35.667 -24.5 59s8.16699 43.166 24.5 59.499
s36.5 24.5 60.5 24.5s44.333 -8.16699 61 -24.5s25 -36.166 25 -59.499s-8.33301 -43 -25 -59s-37 -24 -61 -24z" />
    <glyph glyph-name="igrave" unicode="&#xec;" horiz-adv-x="303" 
d="M62 523h179v-523h-179v523zM-12 749h180l53 -166h-128z" />
    <glyph glyph-name="iacute" unicode="&#xed;" horiz-adv-x="303" 
d="M62 523h179v-523h-179v523zM136 749h180l-105 -166h-128z" />
    <glyph glyph-name="icircumflex" unicode="&#xee;" horiz-adv-x="303" 
d="M62 523h179v-523h-179v523zM90 748h128l118 -163h-125l-61 56l-60 -56h-123z" />
    <glyph glyph-name="idieresis" unicode="&#xef;" horiz-adv-x="303" 
d="M46 580c-23.333 0 -43.666 7.99902 -60.999 23.999c-16 16 -24 35.667 -24 59c0 22.667 8 42.667 24 60c17.333 16 37.666 24 60.999 24c24 0 44.333 -8.16699 61 -24.5s25 -36.166 25 -59.499s-8.33301 -43 -25 -59s-37 -24 -61 -24zM256 579.999
c-24 0 -44 7.99902 -60 23.999c-16.667 15.333 -25 35 -25 59c0 23.333 8.33301 43.333 25 60c16 16 36 24 60 24s44.333 -8.16699 61 -24.5s25 -36.166 25 -59.499s-8.33301 -43 -25 -59s-37 -24 -61 -24zM62 522.998h179v-523h-179v523z" />
    <glyph glyph-name="eth" unicode="&#xf0;" horiz-adv-x="631" 
d="M121 618l109.003 39.998c-33.333 29.333 -73.333 61 -120 95h198l63 -42l106 39l24 -63l-70 -26c49.333 -46 88.666 -96.333 117.999 -151c34.667 -65.333 52 -133.666 52 -204.999v-22c0 -90.667 -26.667 -162.667 -80 -216c-52.667 -52.667 -122.334 -79 -209.001 -79
c-82.667 0 -150 24 -202 72c-54 50 -81 117.667 -81 203v11c0 76.667 24.333 139.334 73 188.001c46 44.667 99.667 67 161 67c25.333 0 45.666 -3.33301 60.999 -10s31 -18 47 -34c-17.333 37.333 -46.333 78 -87 122l-139 -51zM316.003 120.998
c68.667 0 103 45.667 103 137v8c0 91.333 -34.333 137 -103 137c-33.333 0 -59 -11.5 -77 -34.5s-27 -56.5 -27 -100.5v-8c0 -92.667 34.667 -139 104 -139z" />
    <glyph glyph-name="ntilde" unicode="&#xf1;" horiz-adv-x="632" 
d="M57 523l179.001 0.000976562v-84c33.333 65.333 90.666 98 171.999 98c52 0 93.5 -16.667 124.5 -50s46.5 -82.333 46.5 -147v-340h-179v304c0 58.667 -25 88 -75 88c-27.333 0 -49 -8.33301 -65 -25s-24 -41.334 -24 -74.001v-293h-179v523zM381.001 587.001
c-21.333 0 -44.0029 5.66797 -68.0029 17.001c-25.333 10.667 -41.666 16 -48.999 16c-17.333 0 -27.666 -10.667 -30.999 -32h-97c3.33301 51.333 15.166 90.166 35.499 116.499s46.833 39.5 79.5 39.5c16.667 0 39.334 -5.66699 68.001 -17
c26.667 -11.333 43.667 -17 51 -17c16.667 0 27.334 10.667 32.001 32h97c-4 -50 -16.833 -88.333 -38.5 -115s-48.167 -40 -79.5 -40z" />
    <glyph glyph-name="ograve" unicode="&#xf2;" horiz-adv-x="630" 
d="M316 121c68.667 0 103 45.667 103 137v8c0 91.333 -34.333 137 -103 137c-69.333 0 -104 -45 -104 -135v-8c0 -92.667 34.667 -139 104 -139zM315 -12c-82.667 0 -150.333 23.335 -203 70.002c-55.333 48 -83 113.667 -83 197v8c0 82 27.667 148.667 83 200
c52.667 49.333 120.667 74 204 74s151 -24 203 -72c54.667 -50.667 82 -116.334 82 -197.001v-8c0 -82.667 -27.333 -149.334 -82 -200.001c-53.333 -48 -121.333 -72 -204 -72zM151.001 749.002h180l53 -166h-128z" />
    <glyph glyph-name="oacute" unicode="&#xf3;" horiz-adv-x="630" 
d="M316 121c68.667 0 103 45.667 103 137v8c0 91.333 -34.333 137 -103 137c-69.333 0 -104 -45 -104 -135v-8c0 -92.667 34.667 -139 104 -139zM315 -12c-82.667 0 -150.333 23.335 -203 70.002c-55.333 48 -83 113.667 -83 197v8c0 82 27.667 148.667 83 200
c52.667 49.333 120.667 74 204 74s151 -24 203 -72c54.667 -50.667 82 -116.334 82 -197.001v-8c0 -82.667 -27.333 -149.334 -82 -200.001c-53.333 -48 -121.333 -72 -204 -72zM299.001 749.002h180l-105 -166h-128z" />
    <glyph glyph-name="ocircumflex" unicode="&#xf4;" horiz-adv-x="630" 
d="M316 121c68.667 0 103 45.667 103 137v8c0 91.333 -34.333 137 -103 137c-69.333 0 -104 -45 -104 -135v-8c0 -92.667 34.667 -139 104 -139zM315 -12c-82.667 0 -150.333 23.335 -203 70.002c-55.333 48 -83 113.667 -83 197v8c0 82 27.667 148.667 83 200
c52.667 49.333 120.667 74 204 74s151 -24 203 -72c54.667 -50.667 82 -116.334 82 -197.001v-8c0 -82.667 -27.333 -149.334 -82 -200.001c-53.333 -48 -121.333 -72 -204 -72zM253.001 748.002h128l118 -163h-125l-61 56l-60 -56h-123z" />
    <glyph glyph-name="otilde" unicode="&#xf5;" horiz-adv-x="630" 
d="M316 121c68.667 0 103 45.667 103 137v8c0 91.333 -34.333 137 -103 137c-69.333 0 -104 -45 -104 -135v-8c0 -92.667 34.667 -139 104 -139zM315 -12c-82.667 0 -150.333 23.335 -203 70.002c-55.333 48 -83 113.667 -83 197v8c0 82 27.667 148.667 83 200
c52.667 49.333 120.667 74 204 74s151 -24 203 -72c54.667 -50.667 82 -116.334 82 -197.001v-8c0 -82.667 -27.333 -149.334 -82 -200.001c-53.333 -48 -121.333 -72 -204 -72zM379.001 587.002c-21.333 0 -44.0029 5.66797 -68.0029 17.001
c-25.333 10.667 -41.666 16 -48.999 16c-17.333 0 -27.666 -10.667 -30.999 -32h-97c3.33301 51.333 15.166 90.166 35.499 116.499s46.833 39.5 79.5 39.5c16.667 0 39.334 -5.66699 68.001 -17c26.667 -11.333 43.667 -17 51 -17c16.667 0 27.334 10.667 32.001 32h97
c-4 -50 -16.833 -88.333 -38.5 -115s-48.167 -40 -79.5 -40z" />
    <glyph glyph-name="odieresis" unicode="&#xf6;" horiz-adv-x="630" 
d="M316 121c68.667 0 103 45.667 103 137v8c0 91.333 -34.333 137 -103 137c-69.333 0 -104 -45 -104 -135v-8c0 -92.667 34.667 -139 104 -139zM315 -12c-82.667 0 -150.333 23.335 -203 70.002c-55.333 48 -83 113.667 -83 197v8c0 82 27.667 148.667 83 200
c52.667 49.333 120.667 74 204 74s151 -24 203 -72c54.667 -50.667 82 -116.334 82 -197.001v-8c0 -82.667 -27.333 -149.334 -82 -200.001c-53.333 -48 -121.333 -72 -204 -72zM208.001 580.002c-24 0 -44 7.99902 -60 23.999c-16.667 15.333 -25 35 -25 59
c0 23.333 8.33301 43.333 25 60c16 16 36 24 60 24s44.333 -8.16699 61 -24.5s25 -36.166 25 -59.499s-8.33301 -43 -25 -59s-37 -24 -61 -24zM421.001 580.001c-24 0 -44.167 8 -60.5 24s-24.5 35.667 -24.5 59s8.16699 43.166 24.5 59.499s36.5 24.5 60.5 24.5
s44.333 -8.16699 61 -24.5s25 -36.166 25 -59.499s-8.33301 -43 -25 -59s-37 -24 -61 -24z" />
    <glyph glyph-name="divide" unicode="&#xf7;" horiz-adv-x="580" 
d="M290 43c-26 0 -48.166 8.83301 -66.499 26.5s-27.5 39.5 -27.5 65.5c0 25.333 9.33301 47.333 28 66c18 18 40 27 66 27c25.333 0 47.666 -9 66.999 -27c18 -19.333 27 -41.333 27 -66c0 -26 -9.16699 -47.833 -27.5 -65.5s-40.5 -26.5 -66.5 -26.5zM41.001 402h498v-124
h-498v124zM290.001 452c-26.667 0 -48.667 9.33301 -66 28c-18.667 17.333 -28 39 -28 65s9.16699 47.833 27.5 65.5s40.5 26.5 66.5 26.5s48.167 -8.83301 66.5 -26.5s27.5 -39.5 27.5 -65.5c0 -25.333 -9 -47 -27 -65c-18.667 -18.667 -41 -28 -67 -28z" />
    <glyph glyph-name="oslash" unicode="&#xf8;" horiz-adv-x="630" 
d="M25 9l66.001 70c-41.333 46.667 -62 105.334 -62 176.001v8c0 82 27.667 148.667 83 200c52.667 49.333 120.667 74 204 74c62 0 116.333 -14.333 163 -43l65 69l52 -48l-62 -66c44.667 -48.667 67 -109 67 -181v-8c0 -82.667 -27.333 -149.334 -82 -200.001
c-53.333 -48 -121.333 -72 -204 -72c-64.667 0 -121.334 15 -170.001 45l-68 -72zM316.001 120c34 0 60 12 78 36s27 58 27 102v8c0 20.667 -2 39 -6 55l-167 -178c17.333 -15.333 40 -23 68 -23zM210.001 260c0 -19.333 1.33301 -35.667 4 -49l163 174
c-14.667 12.667 -35 19 -61 19c-34 0 -60.167 -11.667 -78.5 -35s-27.5 -57 -27.5 -101v-8z" />
    <glyph glyph-name="ugrave" unicode="&#xf9;" horiz-adv-x="631" 
d="M229 -12c-52.667 0 -94.334 15.667 -125.001 47c-34 34 -51 83 -51 147v341h179v-312c0 -58.667 24.667 -88 74 -88c59.333 0 89 33 89 99v301h179v-523h-179v81c-31.333 -62 -86.666 -93 -165.999 -93zM150 749h180l53 -166h-128z" />
    <glyph glyph-name="uacute" unicode="&#xfa;" horiz-adv-x="631" 
d="M229 -12c-52.667 0 -94.334 15.667 -125.001 47c-34 34 -51 83 -51 147v341h179v-312c0 -58.667 24.667 -88 74 -88c59.333 0 89 33 89 99v301h179v-523h-179v81c-31.333 -62 -86.666 -93 -165.999 -93zM298 749h180l-105 -166h-128z" />
    <glyph glyph-name="ucircumflex" unicode="&#xfb;" horiz-adv-x="631" 
d="M229 -12c-52.667 0 -94.334 15.667 -125.001 47c-34 34 -51 83 -51 147v341h179v-312c0 -58.667 24.667 -88 74 -88c59.333 0 89 33 89 99v301h179v-523h-179v81c-31.333 -62 -86.666 -93 -165.999 -93zM252 748h128l118 -163h-125l-61 56l-60 -56h-123z" />
    <glyph glyph-name="udieresis" unicode="&#xfc;" horiz-adv-x="631" 
d="M229 -12c-52.667 0 -94.334 15.667 -125.001 47c-34 34 -51 83 -51 147v341h179v-312c0 -58.667 24.667 -88 74 -88c59.333 0 89 33 89 99v301h179v-523h-179v81c-31.333 -62 -86.666 -93 -165.999 -93zM207 580c-24 0 -44 7.99902 -60 23.999
c-16.667 15.333 -25 35 -25 59c0 23.333 8.33301 43.333 25 60c16 16 36 24 60 24s44.333 -8.16699 61 -24.5s25 -36.166 25 -59.499s-8.33301 -43 -25 -59s-37 -24 -61 -24zM420 579.999c-24 0 -44.167 8 -60.5 24s-24.5 35.667 -24.5 59s8.16699 43.166 24.5 59.499
s36.5 24.5 60.5 24.5s44.333 -8.16699 61 -24.5s25 -36.166 25 -59.499s-8.33301 -43 -25 -59s-37 -24 -61 -24z" />
    <glyph glyph-name="yacute" unicode="&#xfd;" horiz-adv-x="597" 
d="M221 53l-209 470h194l108 -279l100 279h171l-280 -698h-171zM293 749h180l-105 -166h-128z" />
    <glyph glyph-name="thorn" unicode="&#xfe;" horiz-adv-x="651" 
d="M57 753l179.001 0.000976562v-308c37.333 61.333 91.666 92 162.999 92c64 0 116 -22.667 156 -68c43.333 -48.667 65 -116.334 65 -203.001v-8c0 -86.667 -21.667 -154 -65 -202c-40 -45.333 -92.333 -68 -157 -68c-77.333 0 -131.333 29.667 -162 89v-252h-179v928z
M335.001 125.001c68.667 0 103 44.332 103 132.999v8c0 45.333 -9 79.333 -27 102s-43.333 34 -76 34s-58.167 -11.667 -76.5 -35s-27.5 -56.666 -27.5 -99.999v-8c0 -44 9 -77.333 27 -100s43.667 -34 77 -34z" />
    <glyph glyph-name="ydieresis" unicode="&#xff;" horiz-adv-x="597" 
d="M221 53l-209 470h194l108 -279l100 279h171l-280 -698h-171zM202 580c-24 0 -44 7.99902 -60 23.999c-16.667 15.333 -25 35 -25 59c0 23.333 8.33301 43.333 25 60c16 16 36 24 60 24s44.333 -8.16699 61 -24.5s25 -36.166 25 -59.499s-8.33301 -43 -25 -59
s-37 -24 -61 -24zM415 579.999c-24 0 -44.167 8 -60.5 24s-24.5 35.667 -24.5 59s8.16699 43.166 24.5 59.499s36.5 24.5 60.5 24.5s44.333 -8.16699 61 -24.5s25 -36.166 25 -59.499s-8.33301 -43 -25 -59s-37 -24 -61 -24z" />
    <glyph glyph-name="Amacron" unicode="&#x100;" horiz-adv-x="755" 
d="M246 715h265l227 -715h-217l-38 133h-237l-38 -133h-191zM286 274h157l-78 275zM214 878h322v-107h-322v107z" />
    <glyph glyph-name="amacron" unicode="&#x101;" horiz-adv-x="586" 
d="M204 -12c-50.667 0 -91.666 12.333 -122.999 37c-36 27.333 -54 67.333 -54 120c0 114 92.667 171 278 171h50v12c0 28 -4.83301 48.833 -14.5 62.5s-27.834 20.5 -54.501 20.5c-42 0 -65.667 -20.667 -71 -62h-168c4 61.333 29 108.666 75 141.999
c42.667 30.667 101 46 175 46c74.667 0 132 -15.667 172 -47c42.667 -33.333 64 -83.666 64 -150.999v-339h-174v61c-31.333 -48.667 -83 -73 -155 -73zM266.001 109c26 0 47.333 6.83203 64 20.499s25 31.5 25 53.5v32h-47c-36.667 0 -63.167 -4.16699 -79.5 -12.5
s-24.5 -23.166 -24.5 -44.499c0 -32.667 20.667 -49 62 -49zM141.001 711.999h307v-100h-307v100z" />
    <glyph glyph-name="Abreve" unicode="&#x102;" horiz-adv-x="755" 
d="M246 715h265l227 -715h-217l-38 133h-237l-38 -133h-191zM286 274h157l-78 275zM374 752c-49.333 0 -88.332 13.5 -116.999 40.5s-44.667 64.5 -48 112.5h116c3.33301 -30.667 19.666 -46 48.999 -46c30 0 47.333 15.333 52 46h115c-4 -48 -20.833 -85.5 -50.5 -112.5
s-68.5 -40.5 -116.5 -40.5z" />
    <glyph glyph-name="abreve" unicode="&#x103;" horiz-adv-x="586" 
d="M204 -12c-50.667 0 -91.666 12.333 -122.999 37c-36 27.333 -54 67.333 -54 120c0 114 92.667 171 278 171h50v12c0 28 -4.83301 48.833 -14.5 62.5s-27.834 20.5 -54.501 20.5c-42 0 -65.667 -20.667 -71 -62h-168c4 61.333 29 108.666 75 141.999
c42.667 30.667 101 46 175 46c74.667 0 132 -15.667 172 -47c42.667 -33.333 64 -83.666 64 -150.999v-339h-174v61c-31.333 -48.667 -83 -73 -155 -73zM266.001 109c26 0 47.333 6.83203 64 20.499s25 31.5 25 53.5v32h-47c-36.667 0 -63.167 -4.16699 -79.5 -12.5
s-24.5 -23.166 -24.5 -44.499c0 -32.667 20.667 -49 62 -49zM294.001 586.999c-48.667 0 -87.3311 13.833 -115.998 41.5s-44.334 66.5 -47.001 116.5h111c3.33301 -32 20.666 -48 51.999 -48c32.667 0 50.667 16 54 48h111c-3.33301 -50 -19.833 -88.833 -49.5 -116.5
s-68.167 -41.5 -115.5 -41.5z" />
    <glyph glyph-name="Aogonek" unicode="&#x104;" horiz-adv-x="755" 
d="M640 -182c-38 0 -68 7.33398 -90 22.001s-33 34.334 -33 59.001c0 22.667 9 43 27 61c13.333 13.333 32.666 26.666 57.999 39.999h-81l-38 133h-237l-38 -133h-191l229 715h265l222 -701c-40.667 -24.667 -61 -49.334 -61 -74.001c0 -17.333 9.66699 -26 29 -26
c10 0 20 1.66699 30 5v-85c-25.333 -10.667 -55.666 -16 -90.999 -16zM286 274.001h157l-78 275z" />
    <glyph glyph-name="aogonek" unicode="&#x105;" horiz-adv-x="586" 
d="M447 -182c-36 0 -64.332 7.00098 -84.999 21.001s-31 33.667 -31 59c0 23.333 9 44 27 62c11.333 12 31 25.333 59 40h-58v61c-31.333 -48.667 -83 -73 -155 -73c-50.667 0 -91.667 12.333 -123 37c-36 27.333 -54 67.333 -54 120c0 114 92.667 171 278 171h50v12
c0 28 -4.83301 48.833 -14.5 62.5s-27.834 20.5 -54.501 20.5c-42 0 -65.667 -20.667 -71 -62h-168c4 61.333 29 108.666 75 141.999c42.667 30.667 101 46 175 46c74.667 0 132 -15.667 172 -47c42.667 -33.333 64 -83.666 64 -150.999v-328
c-37.333 -26.667 -56 -51.334 -56 -74.001c0 -18.667 10 -28 30 -28c10 0 20 1.66699 30 5v-80c-25.333 -10.667 -55.333 -16 -90 -16zM266.001 109.001c26 0 47.333 6.83203 64 20.499s25 31.5 25 53.5v32h-47c-36.667 0 -63.167 -4.16699 -79.5 -12.5
s-24.5 -23.166 -24.5 -44.499c0 -32.667 20.667 -49 62 -49z" />
    <glyph glyph-name="Cacute" unicode="&#x106;" horiz-adv-x="767" 
d="M409 -12c-123.333 0 -216.665 33.333 -279.998 100c-62 62.667 -93 151 -93 265v8c0 108.667 34.667 197 104 265c68 66.667 155 100 261 100c94 0 170.667 -22 230 -66c60 -47.333 94 -117 102 -209h-211c-8 75.333 -48 113 -120 113
c-46.667 0 -83.334 -17.5 -110.001 -52.5s-40 -84.833 -40 -149.5v-8c0 -64.667 13.167 -114.5 39.5 -149.5s64.166 -52.5 113.499 -52.5c78 0 122.333 39 133 117h204c-6.66699 -89.333 -40.667 -159.333 -102 -210c-59.333 -47.333 -136.333 -71 -231 -71zM374.001 905
h187l-103 -146h-135z" />
    <glyph glyph-name="cacute" unicode="&#x107;" horiz-adv-x="591" 
d="M304 -12c-81.333 0 -146.666 22.668 -195.999 68.001c-52.667 47.333 -79 113.666 -79 198.999v8c0 84 27.333 151.333 82 202c52 48 117.667 72 197 72c70 0 127.333 -15.667 172 -47c51.333 -38 79.333 -94 84 -168h-168c-8 50.667 -36 76 -84 76
c-66.667 0 -100 -44.333 -100 -133v-8c0 -92 34.333 -138 103 -138c53.333 0 83.666 29 90.999 87h161c-2.66699 -67.333 -26.5 -120.5 -71.5 -159.5s-108.833 -58.5 -191.5 -58.5zM287 749.001h180l-105 -166h-128z" />
    <glyph glyph-name="Ccircumflex" unicode="&#x108;" horiz-adv-x="767" 
d="M409 -12c-123.333 0 -216.665 33.333 -279.998 100c-62 62.667 -93 151 -93 265v8c0 108.667 34.667 197 104 265c68 66.667 155 100 261 100c94 0 170.667 -22 230 -66c60 -47.333 94 -117 102 -209h-211c-8 75.333 -48 113 -120 113
c-46.667 0 -83.334 -17.5 -110.001 -52.5s-40 -84.833 -40 -149.5v-8c0 -64.667 13.167 -114.5 39.5 -149.5s64.166 -52.5 113.499 -52.5c78 0 122.333 39 133 117h204c-6.66699 -89.333 -40.667 -159.333 -102 -210c-59.333 -47.333 -136.333 -71 -231 -71zM326.001 905
h150l110 -146h-130l-59 49l-58 -49h-127z" />
    <glyph glyph-name="ccircumflex" unicode="&#x109;" horiz-adv-x="591" 
d="M304 -12c-81.333 0 -146.666 22.668 -195.999 68.001c-52.667 47.333 -79 113.666 -79 198.999v8c0 84 27.333 151.333 82 202c52 48 117.667 72 197 72c70 0 127.333 -15.667 172 -47c51.333 -38 79.333 -94 84 -168h-168c-8 50.667 -36 76 -84 76
c-66.667 0 -100 -44.333 -100 -133v-8c0 -92 34.333 -138 103 -138c53.333 0 83.666 29 90.999 87h161c-2.66699 -67.333 -26.5 -120.5 -71.5 -159.5s-108.833 -58.5 -191.5 -58.5zM241 748.001h128l118 -163h-125l-61 56l-60 -56h-123z" />
    <glyph glyph-name="Cdotaccent" unicode="&#x10a;" horiz-adv-x="767" 
d="M409 -12c-123.333 0 -216.665 33.333 -279.998 100c-62 62.667 -93 151 -93 265v8c0 108.667 34.667 197 104 265c68 66.667 155 100 261 100c94 0 170.667 -22 230 -66c60 -47.333 94 -117 102 -209h-211c-8 75.333 -48 113 -120 113
c-46.667 0 -83.334 -17.5 -110.001 -52.5s-40 -84.833 -40 -149.5v-8c0 -64.667 13.167 -114.5 39.5 -149.5s64.166 -52.5 113.499 -52.5c78 0 122.333 39 133 117h204c-6.66699 -89.333 -40.667 -159.333 -102 -210c-59.333 -47.333 -136.333 -71 -231 -71zM398.001 757
c-27.333 0 -50 8.5 -68 25.5s-27 38.5 -27 64.5c0 25.333 9 46.5 27 63.5s40.667 25.5 68 25.5s50 -8.5 68 -25.5s27 -38.167 27 -63.5c0 -26 -9 -47.5 -27 -64.5s-40.667 -25.5 -68 -25.5z" />
    <glyph glyph-name="cdotaccent" unicode="&#x10b;" horiz-adv-x="591" 
d="M304 -12c-81.333 0 -146.666 22.668 -195.999 68.001c-52.667 47.333 -79 113.666 -79 198.999v8c0 84 27.333 151.333 82 202c52 48 117.667 72 197 72c70 0 127.333 -15.667 172 -47c51.333 -38 79.333 -94 84 -168h-168c-8 50.667 -36 76 -84 76
c-66.667 0 -100 -44.333 -100 -133v-8c0 -92 34.333 -138 103 -138c53.333 0 83.666 29 90.999 87h161c-2.66699 -67.333 -26.5 -120.5 -71.5 -159.5s-108.833 -58.5 -191.5 -58.5zM306 579.001c-28 0 -50.999 8.5 -68.999 25.5s-27 38.5 -27 64.5
c0 25.333 9.16699 46.5 27.5 63.5s41.166 25.5 68.499 25.5s50 -8.5 68 -25.5s27 -38.167 27 -63.5c0 -26 -9 -47.5 -27 -64.5s-40.667 -25.5 -68 -25.5z" />
    <glyph glyph-name="Ccaron" unicode="&#x10c;" horiz-adv-x="767" 
d="M409 -12c-123.333 0 -216.665 33.333 -279.998 100c-62 62.667 -93 151 -93 265v8c0 108.667 34.667 197 104 265c68 66.667 155 100 261 100c94 0 170.667 -22 230 -66c60 -47.333 94 -117 102 -209h-211c-8 75.333 -48 113 -120 113
c-46.667 0 -83.334 -17.5 -110.001 -52.5s-40 -84.833 -40 -149.5v-8c0 -64.667 13.167 -114.5 39.5 -149.5s64.166 -52.5 113.499 -52.5c78 0 122.333 39 133 117h204c-6.66699 -89.333 -40.667 -159.333 -102 -210c-59.333 -47.333 -136.333 -71 -231 -71zM211.001 905
h130l58 -49l59 49h127l-114 -146h-150z" />
    <glyph glyph-name="ccaron" unicode="&#x10d;" horiz-adv-x="591" 
d="M304 -12c-81.333 0 -146.666 22.668 -195.999 68.001c-52.667 47.333 -79 113.666 -79 198.999v8c0 84 27.333 151.333 82 202c52 48 117.667 72 197 72c70 0 127.333 -15.667 172 -47c51.333 -38 79.333 -94 84 -168h-168c-8 50.667 -36 76 -84 76
c-66.667 0 -100 -44.333 -100 -133v-8c0 -92 34.333 -138 103 -138c53.333 0 83.666 29 90.999 87h161c-2.66699 -67.333 -26.5 -120.5 -71.5 -159.5s-108.833 -58.5 -191.5 -58.5zM118 748.001h125l61 -56l61 56h122l-123 -163h-127z" />
    <glyph glyph-name="Dcaron" unicode="&#x10e;" horiz-adv-x="751" 
d="M326 158c60.667 0 105.167 16 133.5 48s42.5 81.667 42.5 149v8c0 68.667 -14 118.167 -42 148.5s-73.333 45.5 -136 45.5h-45v-399h47zM73 715l260 -0.000976562c125.333 0 220.5 -30.167 285.5 -90.5s97.5 -146.5 97.5 -258.5v-8
c0 -113.333 -32.333 -200.666 -97 -261.999c-66 -64 -161.667 -96 -287 -96h-259v715zM153 904.999h130l58 -49l59 49h127l-114 -146h-150z" />
    <glyph glyph-name="dcaron" unicode="&#x10f;" horiz-adv-x="650" 
d="M251 -12c-63.333 0 -115.001 22 -155.001 66c-43.333 48 -65 115.333 -65 202v8c0 86 21.333 154 64 204c40.667 46 93.334 69 158.001 69c73.333 0 127 -29.333 161 -88v304h179v-753h-179v85c-14 -29.333 -35.167 -52.833 -63.5 -70.5s-61.5 -26.5 -99.5 -26.5z
M313.999 125c33.333 0 59.167 11.333 77.5 34s27.5 56 27.5 100v8c0 90 -34.333 135 -103 135s-103 -45.333 -103 -136v-8c0 -43.333 8.83301 -76.333 26.5 -99s42.5 -34 74.5 -34zM638 753h133l-49 -174h-93z" />
    <glyph glyph-name="Dcroat" unicode="&#x110;" horiz-adv-x="782" 
d="M33 428l58.999 -0.000976562v287h259c126 0 221.333 -30.167 286 -90.5s97 -146.5 97 -258.5v-8c0 -113.333 -32.333 -200.666 -97 -261.999c-65.333 -64 -160.666 -96 -285.999 -96h-259v290h-59v138zM344.999 157.999c60 0 104.168 16.167 132.501 48.5
s42.5 81.833 42.5 148.5v8c0 68.667 -13.833 118.167 -41.5 148.5s-72.834 45.5 -135.501 45.5h-50v-129h120v-138h-120v-132h52z" />
    <glyph glyph-name="dcroat" unicode="&#x111;" horiz-adv-x="650" 
d="M259 683h154.999v70h179v-70h57v-96h-57v-587h-179v85c-14 -29.333 -35.167 -52.833 -63.5 -70.5s-61.5 -26.5 -99.5 -26.5c-63.333 0 -115 22 -155 66c-43.333 48 -65 115.333 -65 202v8c0 86 21.333 154 64 204c40.667 46 93.334 69 158.001 69
c73.333 0 127 -29.333 161 -88v138h-155v96zM313.999 125c33.333 0 59.167 11.333 77.5 34s27.5 56 27.5 100v8c0 90 -34.333 135 -103 135s-103 -45.333 -103 -136v-8c0 -43.333 8.83301 -76.333 26.5 -99s42.5 -34 74.5 -34z" />
    <glyph glyph-name="Emacron" unicode="&#x112;" horiz-adv-x="620" 
d="M73 715h494v-158h-290v-123h231v-146h-231v-130h306v-158h-510v715zM166 878h322v-107h-322v107z" />
    <glyph glyph-name="emacron" unicode="&#x113;" horiz-adv-x="606" 
d="M313 -12c-85.333 0 -153 23 -203 69c-54 47.333 -81 113.333 -81 198v8c0 82 27.333 148.667 82 200c52.667 49.333 119.667 74 201 74c76.667 0 139 -21.667 187 -65c52.667 -48 79 -116.333 79 -205v-47h-368c2.66699 -34.667 13.5 -61.5 32.5 -80.5
s44.5 -28.5 76.5 -28.5c52.667 0 83 20.667 91 62h168c-8 -60 -34.5 -105.833 -79.5 -137.5s-106.833 -47.5 -185.5 -47.5zM404 321c-3.33301 65.333 -34.001 98 -92.001 98c-57.333 0 -90.666 -32.667 -99.999 -98h192zM152.999 712h307v-100h-307v100z" />
    <glyph glyph-name="Ebreve" unicode="&#x114;" horiz-adv-x="620" 
d="M73 715h494v-158h-290v-123h231v-146h-231v-130h306v-158h-510v715zM326 752c-49.333 0 -88.332 13.5 -116.999 40.5s-44.667 64.5 -48 112.5h116c3.33301 -30.667 19.666 -46 48.999 -46c30 0 47.333 15.333 52 46h115c-4 -48 -20.833 -85.5 -50.5 -112.5
s-68.5 -40.5 -116.5 -40.5z" />
    <glyph glyph-name="ebreve" unicode="&#x115;" horiz-adv-x="606" 
d="M313 -12c-85.333 0 -153 23 -203 69c-54 47.333 -81 113.333 -81 198v8c0 82 27.333 148.667 82 200c52.667 49.333 119.667 74 201 74c76.667 0 139 -21.667 187 -65c52.667 -48 79 -116.333 79 -205v-47h-368c2.66699 -34.667 13.5 -61.5 32.5 -80.5
s44.5 -28.5 76.5 -28.5c52.667 0 83 20.667 91 62h168c-8 -60 -34.5 -105.833 -79.5 -137.5s-106.833 -47.5 -185.5 -47.5zM404 321c-3.33301 65.333 -34.001 98 -92.001 98c-57.333 0 -90.666 -32.667 -99.999 -98h192zM300.999 587
c-48.667 0 -87.3311 13.833 -115.998 41.5s-44.334 66.5 -47.001 116.5h111c3.33301 -32 20.666 -48 51.999 -48c32.667 0 50.667 16 54 48h111c-3.33301 -50 -19.833 -88.833 -49.5 -116.5s-68.167 -41.5 -115.5 -41.5z" />
    <glyph glyph-name="Edotaccent" unicode="&#x116;" horiz-adv-x="620" 
d="M73 715h494v-158h-290v-123h231v-146h-231v-130h306v-158h-510v715zM328 757c-27.333 0 -50 8.5 -68 25.5s-27 38.5 -27 64.5c0 25.333 9 46.5 27 63.5s40.667 25.5 68 25.5s50 -8.5 68 -25.5s27 -38.167 27 -63.5c0 -26 -9 -47.5 -27 -64.5s-40.667 -25.5 -68 -25.5z
" />
    <glyph glyph-name="edotaccent" unicode="&#x117;" horiz-adv-x="606" 
d="M313 -12c-85.333 0 -153 23 -203 69c-54 47.333 -81 113.333 -81 198v8c0 82 27.333 148.667 82 200c52.667 49.333 119.667 74 201 74c76.667 0 139 -21.667 187 -65c52.667 -48 79 -116.333 79 -205v-47h-368c2.66699 -34.667 13.5 -61.5 32.5 -80.5
s44.5 -28.5 76.5 -28.5c52.667 0 83 20.667 91 62h168c-8 -60 -34.5 -105.833 -79.5 -137.5s-106.833 -47.5 -185.5 -47.5zM404 321c-3.33301 65.333 -34.001 98 -92.001 98c-57.333 0 -90.666 -32.667 -99.999 -98h192zM307.999 579c-28 0 -50.999 8.5 -68.999 25.5
s-27 38.5 -27 64.5c0 25.333 9.16699 46.5 27.5 63.5s41.166 25.5 68.499 25.5s50 -8.5 68 -25.5s27 -38.167 27 -63.5c0 -26 -9 -47.5 -27 -64.5s-40.667 -25.5 -68 -25.5z" />
    <glyph glyph-name="Eogonek" unicode="&#x118;" horiz-adv-x="620" 
d="M471 -182c-38 0 -67.834 7.33203 -89.501 21.999s-32.5 34.334 -32.5 59.001c0 22.667 9 43 27 61c12.667 12.667 32.334 26 59.001 40h-362v715h494v-158h-290v-123h231v-146h-231v-130h306v-158h-38c-15.333 -12.667 -26 -23.167 -32 -31.5s-9 -17.833 -9 -28.5
c0 -17.333 10 -26 30 -26c12.667 0 22.334 1.66699 29.001 5v-85c-22.667 -10.667 -53.334 -16 -92.001 -16z" />
    <glyph glyph-name="eogonek" unicode="&#x119;" horiz-adv-x="606" 
d="M409 -182c-36.667 0 -65.5 6.83301 -86.5 20.5s-31.5 33.167 -31.5 58.5c0 32 27.333 63.667 82 95c-15.333 -2.66699 -35.333 -4 -60 -4c-85.333 0 -153 23 -203 69c-54 47.333 -81 113.333 -81 198v8c0 82 27.333 148.667 82 200c52.667 49.333 119.667 74 201 74
c76.667 0 139 -21.667 187 -65c52.667 -48 79 -116.333 79 -205v-47h-368c2.66699 -34.667 13.5 -61.5 32.5 -80.5s44.5 -28.5 76.5 -28.5c52.667 0 83 20.667 91 62h168c-6.66699 -49.333 -30.334 -94.333 -71.001 -135c-18.667 -18.667 -31.667 -32 -39 -40
s-14.5 -17.667 -21.5 -29s-10.5 -22 -10.5 -32c0 -18.667 10.333 -28 31 -28c10 0 20 1.66699 30 5v-80c-25.333 -10.667 -54.666 -16 -87.999 -16zM404 321c-3.33301 65.333 -34.001 98 -92.001 98c-57.333 0 -90.666 -32.667 -99.999 -98h192z" />
    <glyph glyph-name="Ecaron" unicode="&#x11a;" horiz-adv-x="620" 
d="M73 715h494v-158h-290v-123h231v-146h-231v-130h306v-158h-510v715zM141 905h130l58 -49l59 49h127l-114 -146h-150z" />
    <glyph glyph-name="ecaron" unicode="&#x11b;" horiz-adv-x="606" 
d="M313 -12c-85.333 0 -153 23 -203 69c-54 47.333 -81 113.333 -81 198v8c0 82 27.333 148.667 82 200c52.667 49.333 119.667 74 201 74c76.667 0 139 -21.667 187 -65c52.667 -48 79 -116.333 79 -205v-47h-368c2.66699 -34.667 13.5 -61.5 32.5 -80.5
s44.5 -28.5 76.5 -28.5c52.667 0 83 20.667 91 62h168c-8 -60 -34.5 -105.833 -79.5 -137.5s-106.833 -47.5 -185.5 -47.5zM404 321c-3.33301 65.333 -34.001 98 -92.001 98c-57.333 0 -90.666 -32.667 -99.999 -98h192zM121.999 748h125l61 -56l61 56h122l-123 -163h-127z
" />
    <glyph glyph-name="Gcircumflex" unicode="&#x11c;" horiz-adv-x="795" 
d="M410 -12c-118.667 0 -211.331 34.335 -277.998 103.002c-64.667 64.667 -97 152 -97 262v8c0 108 35.667 196 107 264c70.667 67.333 160 101 268 101c91.333 0 166.333 -20.667 225 -62c65.333 -46.667 101.333 -113.667 108 -201h-203
c-9.33301 68 -52.333 102 -129 102c-50.667 0 -90.334 -18.333 -119.001 -55s-43 -87.334 -43 -152.001v-8c0 -64.667 12.333 -113.334 37 -146.001c29.333 -40 72.666 -60 129.999 -60c46 0 81.667 11 107 33c20 17.333 31.667 42.333 35 75h-134v143h336v-88
c0 -95.333 -29.333 -171.333 -88 -228c-62.667 -60.667 -150 -91 -262 -91zM334.003 905.002h150l110 -146h-130l-59 49l-58 -49h-127z" />
    <glyph glyph-name="gcircumflex" unicode="&#x11d;" horiz-adv-x="649" 
d="M302 -194c-86 0 -152 17.334 -198 52.001c-43.333 34 -68.666 81.333 -75.999 142h178c9.33301 -45.333 41.333 -68 96 -68c74 0 111 36.667 111 110v80c-14 -27.333 -34.333 -49.333 -61 -66c-29.333 -20 -63 -30 -101 -30c-64.667 0 -117 21.667 -157 65
c-43.333 46.667 -65 108.667 -65 186v8c0 75.333 21.667 136.666 65 183.999c41.333 45.333 93.666 68 156.999 68c74 0 128 -29.333 162 -88v74h179v-479c0 -78 -24.667 -137.167 -74 -177.5s-121.333 -60.5 -216 -60.5zM314 158.001c32 0 57.333 10.668 76 32.001
s28 50.666 28 87.999v7c0 36.667 -8.83301 65.5 -26.5 86.5s-43.167 31.5 -76.5 31.5s-58.833 -10.667 -76.5 -32s-26.5 -50.333 -26.5 -87v-8c0 -36 9 -64.667 27 -86s43 -32 75 -32zM247 748.002h128l118 -163h-125l-61 56l-60 -56h-123z" />
    <glyph glyph-name="Gbreve" unicode="&#x11e;" horiz-adv-x="795" 
d="M410 -12c-118.667 0 -211.331 34.335 -277.998 103.002c-64.667 64.667 -97 152 -97 262v8c0 108 35.667 196 107 264c70.667 67.333 160 101 268 101c91.333 0 166.333 -20.667 225 -62c65.333 -46.667 101.333 -113.667 108 -201h-203
c-9.33301 68 -52.333 102 -129 102c-50.667 0 -90.334 -18.333 -119.001 -55s-43 -87.334 -43 -152.001v-8c0 -64.667 12.333 -113.334 37 -146.001c29.333 -40 72.666 -60 129.999 -60c46 0 81.667 11 107 33c20 17.333 31.667 42.333 35 75h-134v143h336v-88
c0 -95.333 -29.333 -171.333 -88 -228c-62.667 -60.667 -150 -91 -262 -91zM406.003 752.002c-49.333 0 -88.332 13.5 -116.999 40.5s-44.667 64.5 -48 112.5h116c3.33301 -30.667 19.666 -46 48.999 -46c30 0 47.333 15.333 52 46h115c-4 -48 -20.833 -85.5 -50.5 -112.5
s-68.5 -40.5 -116.5 -40.5z" />
    <glyph glyph-name="gbreve" unicode="&#x11f;" horiz-adv-x="649" 
d="M302 -194c-86 0 -152 17.334 -198 52.001c-43.333 34 -68.666 81.333 -75.999 142h178c9.33301 -45.333 41.333 -68 96 -68c74 0 111 36.667 111 110v80c-14 -27.333 -34.333 -49.333 -61 -66c-29.333 -20 -63 -30 -101 -30c-64.667 0 -117 21.667 -157 65
c-43.333 46.667 -65 108.667 -65 186v8c0 75.333 21.667 136.666 65 183.999c41.333 45.333 93.666 68 156.999 68c74 0 128 -29.333 162 -88v74h179v-479c0 -78 -24.667 -137.167 -74 -177.5s-121.333 -60.5 -216 -60.5zM314 158.001c32 0 57.333 10.668 76 32.001
s28 50.666 28 87.999v7c0 36.667 -8.83301 65.5 -26.5 86.5s-43.167 31.5 -76.5 31.5s-58.833 -10.667 -76.5 -32s-26.5 -50.333 -26.5 -87v-8c0 -36 9 -64.667 27 -86s43 -32 75 -32zM308 587.002c-48.667 0 -87.3311 13.833 -115.998 41.5s-44.334 66.5 -47.001 116.5h111
c3.33301 -32 20.666 -48 51.999 -48c32.667 0 50.667 16 54 48h111c-3.33301 -50 -19.833 -88.833 -49.5 -116.5s-68.167 -41.5 -115.5 -41.5z" />
    <glyph glyph-name="Gdotaccent" unicode="&#x120;" horiz-adv-x="795" 
d="M410 -12c-118.667 0 -211.331 34.335 -277.998 103.002c-64.667 64.667 -97 152 -97 262v8c0 108 35.667 196 107 264c70.667 67.333 160 101 268 101c91.333 0 166.333 -20.667 225 -62c65.333 -46.667 101.333 -113.667 108 -201h-203
c-9.33301 68 -52.333 102 -129 102c-50.667 0 -90.334 -18.333 -119.001 -55s-43 -87.334 -43 -152.001v-8c0 -64.667 12.333 -113.334 37 -146.001c29.333 -40 72.666 -60 129.999 -60c46 0 81.667 11 107 33c20 17.333 31.667 42.333 35 75h-134v143h336v-88
c0 -95.333 -29.333 -171.333 -88 -228c-62.667 -60.667 -150 -91 -262 -91zM408.003 757.002c-27.333 0 -50 8.5 -68 25.5s-27 38.5 -27 64.5c0 25.333 9 46.5 27 63.5s40.667 25.5 68 25.5s50 -8.5 68 -25.5s27 -38.167 27 -63.5c0 -26 -9 -47.5 -27 -64.5
s-40.667 -25.5 -68 -25.5z" />
    <glyph glyph-name="gdotaccent" unicode="&#x121;" horiz-adv-x="649" 
d="M302 -194c-86 0 -152 17.334 -198 52.001c-43.333 34 -68.666 81.333 -75.999 142h178c9.33301 -45.333 41.333 -68 96 -68c74 0 111 36.667 111 110v80c-14 -27.333 -34.333 -49.333 -61 -66c-29.333 -20 -63 -30 -101 -30c-64.667 0 -117 21.667 -157 65
c-43.333 46.667 -65 108.667 -65 186v8c0 75.333 21.667 136.666 65 183.999c41.333 45.333 93.666 68 156.999 68c74 0 128 -29.333 162 -88v74h179v-479c0 -78 -24.667 -137.167 -74 -177.5s-121.333 -60.5 -216 -60.5zM314 158.001c32 0 57.333 10.668 76 32.001
s28 50.666 28 87.999v7c0 36.667 -8.83301 65.5 -26.5 86.5s-43.167 31.5 -76.5 31.5s-58.833 -10.667 -76.5 -32s-26.5 -50.333 -26.5 -87v-8c0 -36 9 -64.667 27 -86s43 -32 75 -32zM309 579.002c-28 0 -50.999 8.5 -68.999 25.5s-27 38.5 -27 64.5
c0 25.333 9.16699 46.5 27.5 63.5s41.166 25.5 68.499 25.5s50 -8.5 68 -25.5s27 -38.167 27 -63.5c0 -26 -9 -47.5 -27 -64.5s-40.667 -25.5 -68 -25.5z" />
    <glyph glyph-name="uni0122" unicode="&#x122;" horiz-adv-x="787" 
d="M410 -12c-118.667 0 -211.331 34.335 -277.998 103.002c-64.667 64.667 -97 152 -97 262v8c0 108 35.667 196 107 264c70.667 67.333 160 101 268 101c91.333 0 166.333 -20.667 225 -62c65.333 -46.667 101.333 -113.667 108 -201h-203
c-9.33301 68 -52.333 102 -129 102c-50.667 0 -90.334 -18.333 -119.001 -55s-43 -87.334 -43 -152.001v-8c0 -64.667 12.333 -113.334 37 -146.001c29.333 -40 72.666 -60 129.999 -60c46 0 81.667 11 107 33c20 17.333 31.667 42.333 35 75h-134v143h336v-88
c0 -95.333 -29.333 -171.333 -88 -228c-62.667 -60.667 -150 -91 -262 -91zM291.003 -204.998l42 177l158 -19l-99 -185z" />
    <glyph glyph-name="uni0123" unicode="&#x123;" horiz-adv-x="641" 
d="M302 -194c-86 0 -152 17.334 -198 52.001c-43.333 34 -68.666 81.333 -75.999 142h178c9.33301 -45.333 41.333 -68 96 -68c74 0 111 36.667 111 110v80c-14 -27.333 -34.333 -49.333 -61 -66c-29.333 -20 -63 -30 -101 -30c-64.667 0 -117 21.667 -157 65
c-43.333 46.667 -65 108.667 -65 186v8c0 75.333 21.667 136.666 65 183.999c41.333 45.333 93.666 68 156.999 68c74 0 128 -29.333 162 -88v74h179v-479c0 -78 -24.667 -137.167 -74 -177.5s-121.333 -60.5 -216 -60.5zM314 158.001c32 0 57.333 10.668 76 32.001
s28 50.666 28 87.999v7c0 36.667 -8.83301 65.5 -26.5 86.5s-43.167 31.5 -76.5 31.5s-58.833 -10.667 -76.5 -32s-26.5 -50.333 -26.5 -87v-8c0 -36 9 -64.667 27 -86s43 -32 75 -32zM234 585.002l99 185l101 -27l-42 -177z" />
    <glyph glyph-name="Hcircumflex" unicode="&#x124;" horiz-adv-x="792" 
d="M73 715h206v-273h235v273h205v-715h-205v282h-235v-282h-206v715zM323 905h150l110 -146h-130l-59 49l-58 -49h-127z" />
    <glyph glyph-name="hcircumflex" unicode="&#x125;" horiz-adv-x="632" 
d="M57 753l179.001 0.000976562v-314c33.333 65.333 90.666 98 171.999 98c52 0 93.5 -16.667 124.5 -50s46.5 -82.333 46.5 -147v-340h-179v304c0 58.667 -25 88 -75 88c-27.333 0 -49 -8.33301 -65 -25s-24 -41.334 -24 -74.001v-293h-179v753zM221.001 938.001h150
l110 -146h-130l-59 49l-58 -49h-127z" />
    <glyph glyph-name="Hbar" unicode="&#x126;" horiz-adv-x="792" 
d="M13 617h60v98h206v-98h235v98h205v-98h60v-96h-60v-521h-205v282h-235v-282h-206v521h-60v96zM514 442v79h-235v-79h235z" />
    <glyph glyph-name="hbar" unicode="&#x127;" horiz-adv-x="632" 
d="M0 683l57.001 0.000976562v70h179v-70h155v-96h-155v-148c33.333 65.333 90.666 98 171.999 98c52 0 93.5 -16.667 124.5 -50s46.5 -82.333 46.5 -147v-340h-179v304c0 58.667 -25 88 -75 88c-27.333 0 -49 -8.33301 -65 -25s-24 -41.334 -24 -74.001v-293h-179v587h-57
v96z" />
    <glyph glyph-name="Itilde" unicode="&#x128;" horiz-adv-x="360" 
d="M77 715h207v-715h-207v715zM246 758c-20 0 -43.333 5.66699 -70 17s-43.334 17 -50.001 17c-8 0 -14.833 -3 -20.5 -9s-9.16699 -14 -10.5 -24h-102c4 52 17.667 90.667 41 116c20.667 24.667 47.667 37 81 37c19.333 0 42.333 -5.33301 69 -16
c24 -11.333 41.333 -17 52 -17c16.667 0 27.334 10.667 32.001 32h101c-4 -49.333 -17.667 -88 -41 -116c-22.667 -24.667 -50 -37 -82 -37z" />
    <glyph glyph-name="itilde" unicode="&#x129;" horiz-adv-x="303" 
d="M62 523h179v-523h-179v523zM216 587c-21.333 0 -44.002 5.66797 -68.002 17.001c-25.333 10.667 -41.666 16 -48.999 16c-17.333 0 -27.666 -10.667 -30.999 -32h-97c3.33301 51.333 15.166 90.166 35.499 116.499s46.833 39.5 79.5 39.5c17.333 0 40 -5.66699 68 -17
c26.667 -11.333 43.667 -17 51 -17c16.667 0 27.334 10.667 32.001 32h97c-4 -50 -16.833 -88.333 -38.5 -115s-48.167 -40 -79.5 -40z" />
    <glyph glyph-name="Imacron" unicode="&#x12a;" horiz-adv-x="360" 
d="M77 715h207v-715h-207v715zM19 878h322v-107h-322v107z" />
    <glyph glyph-name="imacron" unicode="&#x12b;" horiz-adv-x="303" 
d="M29 712h245v-100h-245v100zM62 523h179v-523h-179v523z" />
    <glyph glyph-name="Ibreve" unicode="&#x12c;" horiz-adv-x="360" 
d="M77 715h207v-715h-207v715zM180 752c-49.333 0 -88.332 13.5 -116.999 40.5s-44.667 64.5 -48 112.5h116c3.33301 -30.667 19.666 -46 48.999 -46c30 0 47.333 15.333 52 46h115c-4 -48 -20.833 -85.5 -50.5 -112.5s-68.5 -40.5 -116.5 -40.5z" />
    <glyph glyph-name="ibreve" unicode="&#x12d;" horiz-adv-x="303" 
d="M62 523h179v-523h-179v523zM151 587c-48.667 0 -87.3311 13.833 -115.998 41.5s-44.334 66.5 -47.001 116.5h111c3.33301 -32 20.666 -48 51.999 -48c32.667 0 50.667 16 54 48h111c-3.33301 -50 -19.833 -88.833 -49.5 -116.5s-68.167 -41.5 -115.5 -41.5z" />
    <glyph glyph-name="Iogonek" unicode="&#x12e;" horiz-adv-x="360" 
d="M197 -182c-38 0 -68.002 7.33203 -90.002 21.999s-33 34.334 -33 59.001c0 22.667 9 43 27 61c12 12 31.333 25.333 58 40h-82v715h207v-703c-36.667 -25.333 -55 -49.333 -55 -72c0 -17.333 10 -26 30 -26c12.667 0 22.334 1.66699 29.001 5v-85
c-25.333 -10.667 -55.666 -16 -90.999 -16z" />
    <glyph glyph-name="iogonek" unicode="&#x12f;" horiz-adv-x="303" 
d="M158 -182c-36 0 -64.333 7.16797 -85 21.501s-31 34.166 -31 59.499c0 23.333 9 44 27 62c11.333 11.333 31 24.333 59 39h-66v523h179v-514c-36 -26 -54 -50 -54 -72c0 -18.667 10.333 -28 31 -28c10 0 20 1.66699 30 5v-80c-25.333 -10.667 -55.333 -16 -90 -16z
M151 573.001c-28 0 -51.333 8.66699 -70 26s-28 39.333 -28 66s9.33301 48.834 28 66.501s42 26.5 70 26.5s51.5 -8.83301 70.5 -26.5s28.5 -39.834 28.5 -66.501s-9.5 -48.667 -28.5 -66s-42.5 -26 -70.5 -26z" />
    <glyph glyph-name="Idotaccent" unicode="&#x130;" horiz-adv-x="360" 
d="M77 715h207v-715h-207v715zM181 757c-27.333 0 -50 8.5 -68 25.5s-27 38.5 -27 64.5c0 25.333 9 46.5 27 63.5s40.667 25.5 68 25.5s50 -8.5 68 -25.5s27 -38.167 27 -63.5c0 -26 -9 -47.5 -27 -64.5s-40.667 -25.5 -68 -25.5z" />
    <glyph glyph-name="dotlessi" unicode="&#x131;" horiz-adv-x="303" 
d="M62 523h179v-523h-179v523z" />
    <glyph glyph-name="IJ" unicode="&#x132;" horiz-adv-x="812" 
d="M77 715h207v-715h-207v715zM492 -9c-56 0 -99.333 8 -130 24v153c28 -9.33301 57 -14 87 -14c62 0 93 33 93 99v462h206v-464c0 -173.333 -85.333 -260 -256 -260z" />
    <glyph glyph-name="ij" unicode="&#x133;" horiz-adv-x="303" 
d="M62 523h179v-523h-179v523zM151 573c-28 0 -51.333 8.66699 -70 26s-28 39.333 -28 66s9.33301 48.834 28 66.501s42 26.5 70 26.5s51.5 -8.83301 70.5 -26.5s28.5 -39.834 28.5 -66.501s-9.5 -48.667 -28.5 -66s-42.5 -26 -70.5 -26zM293 -54
c22 1.33301 38.167 7 48.5 17s15.5 25 15.5 45v515h178v-519c0 -61.333 -16.667 -107 -50 -137c-39.333 -34 -103.333 -51 -192 -51v130zM446 573c-28 0 -51.333 8.66699 -70 26s-28 39.333 -28 66s9.33301 48.834 28 66.501s42 26.5 70 26.5s51.5 -8.83301 70.5 -26.5
s28.5 -39.834 28.5 -66.501s-9.5 -48.667 -28.5 -66s-42.5 -26 -70.5 -26z" />
    <glyph glyph-name="Jcircumflex" unicode="&#x134;" horiz-adv-x="486" 
d="M167 -9c-56 0 -99.333 8 -130 24v153c28 -9.33301 57 -14 87 -14c62 0 93 33 93 99v462h206v-464c0 -173.333 -85.333 -260 -256 -260zM246 905h150l110 -146h-130l-59 49l-58 -49h-127z" />
    <glyph glyph-name="jcircumflex" unicode="&#x135;" horiz-adv-x="303" 
d="M-2 -54c22 1.33301 38.167 7 48.5 17s15.5 25 15.5 45v515h178v-519c0 -61.333 -16.667 -107 -50 -137c-39.333 -34 -103.333 -51 -192 -51v130zM89 748h128l118 -163h-125l-61 56l-60 -56h-123z" />
    <glyph glyph-name="uni0136" unicode="&#x136;" horiz-adv-x="726" 
d="M73 715h206v-283l215 283h214l-262 -332l276 -383h-237l-206 299v-299h-206v715zM261 -205l42 177l158 -19l-99 -185z" />
    <glyph glyph-name="uni0137" unicode="&#x137;" horiz-adv-x="577" 
d="M57 753h179v-437l141 207h186l-171 -235l185 -288h-200l-141 229v-229h-179v753zM189 -205l42 177l158 -19l-99 -185z" />
    <glyph glyph-name="Lacute" unicode="&#x139;" horiz-adv-x="583" 
d="M73 715h206v-556h270v-159h-476v715zM154 905h187l-103 -146h-135z" />
    <glyph glyph-name="lacute" unicode="&#x13a;" horiz-adv-x="302" 
d="M62 753h178v-753h-178v753zM135 938h187l-103 -146h-135z" />
    <glyph glyph-name="uni013B" unicode="&#x13b;" horiz-adv-x="575" 
d="M73 715h206v-556h270v-159h-476v715zM192 -205l42 177l158 -19l-99 -185z" />
    <glyph glyph-name="uni013C" unicode="&#x13c;" horiz-adv-x="294" 
d="M62 753h178v-753h-178v753zM36 -205l42 177l158 -19l-99 -185z" />
    <glyph glyph-name="Lcaron" unicode="&#x13d;" horiz-adv-x="583" 
d="M364 715h148l-61 -176h-103zM73 715h206v-556h270v-159h-476v715z" />
    <glyph glyph-name="lcaron" unicode="&#x13e;" horiz-adv-x="302" 
d="M62 753h178v-753h-178v753zM285 753h133l-49 -174h-93z" />
    <glyph glyph-name="Ldot" unicode="&#x13f;" horiz-adv-x="609" 
d="M73 715h206v-556h270v-159h-476v715zM478 299c-30.667 0 -54.999 10 -72.999 30c-19.333 17.333 -29 41 -29 71c0 28.667 9.66699 52.667 29 72s43.666 29 72.999 29c28.667 0 53.667 -9.66699 75 -29c20 -20 30 -44 30 -72c0 -29.333 -10 -53 -30 -71
c-20 -20 -45 -30 -75 -30z" />
    <glyph glyph-name="ldot" unicode="&#x140;" horiz-adv-x="463" 
d="M62 753h178v-753h-178v753zM376 258c-30.667 0 -54.999 10 -72.999 30c-19.333 17.333 -29 41 -29 71c0 28.667 9.66699 52.667 29 72s43.666 29 72.999 29c28.667 0 53.667 -9.66699 75 -29c20 -20 30 -44 30 -72c0 -29.333 -10 -53 -30 -71c-20 -20 -45 -30 -75 -30z
" />
    <glyph glyph-name="Lslash" unicode="&#x141;" horiz-adv-x="601" 
d="M29 337l63 22v356h205v-285l180 63v-109l-180 -62v-163h271v-159h-476v251l-63 -22v108z" />
    <glyph glyph-name="lslash" unicode="&#x142;" horiz-adv-x="341" 
d="M21 376l61 29v348h178v-261l64 31v-116l-64 -31v-376h-178v290l-61 -29v115z" />
    <glyph glyph-name="Nacute" unicode="&#x143;" horiz-adv-x="785" 
d="M73 715h231l229 -403v403h179v-715h-198l-261 449v-449h-180v715zM385 905h187l-103 -146h-135z" />
    <glyph glyph-name="nacute" unicode="&#x144;" horiz-adv-x="632" 
d="M57 523l179.001 0.000976562v-84c33.333 65.333 90.666 98 171.999 98c52 0 93.5 -16.667 124.5 -50s46.5 -82.333 46.5 -147v-340h-179v304c0 58.667 -25 88 -75 88c-27.333 0 -49 -8.33301 -65 -25s-24 -41.334 -24 -74.001v-293h-179v523zM301.001 749.001h180
l-105 -166h-128z" />
    <glyph glyph-name="uni0145" unicode="&#x145;" horiz-adv-x="777" 
d="M73 715h231l229 -403v403h179v-715h-198l-261 449v-449h-180v715zM272 -205l42 177l158 -19l-99 -185z" />
    <glyph glyph-name="uni0146" unicode="&#x146;" horiz-adv-x="624" 
d="M57 523l179.001 0.000976562v-84c33.333 65.333 90.666 98 171.999 98c52 0 93.5 -16.667 124.5 -50s46.5 -82.333 46.5 -147v-340h-179v304c0 58.667 -25 88 -75 88c-27.333 0 -49 -8.33301 -65 -25s-24 -41.334 -24 -74.001v-293h-179v523zM201.001 -204.999l42 177
l158 -19l-99 -185z" />
    <glyph glyph-name="Ncaron" unicode="&#x147;" horiz-adv-x="785" 
d="M73 715h231l229 -403v403h179v-715h-198l-261 449v-449h-180v715zM222 905h130l58 -49l59 49h127l-114 -146h-150z" />
    <glyph glyph-name="ncaron" unicode="&#x148;" horiz-adv-x="632" 
d="M57 523l179.001 0.000976562v-84c33.333 65.333 90.666 98 171.999 98c52 0 93.5 -16.667 124.5 -50s46.5 -82.333 46.5 -147v-340h-179v304c0 58.667 -25 88 -75 88c-27.333 0 -49 -8.33301 -65 -25s-24 -41.334 -24 -74.001v-293h-179v523zM132.001 748.001h125l61 -56
l61 56h122l-123 -163h-127z" />
    <glyph glyph-name="napostrophe" unicode="&#x149;" horiz-adv-x="751" 
d="M175 523l179.001 0.000976562v-84c33.333 65.333 90.666 98 171.999 98c52 0 93.5 -16.667 124.5 -50s46.5 -82.333 46.5 -147v-340h-179v304c0 58.667 -25 88 -75 88c-27.333 0 -49 -8.33301 -65 -25s-24 -41.334 -24 -74.001v-293h-179v523zM-26.999 467.001l80 261
l158 -53l-137 -247z" />
    <glyph glyph-name="Eng" unicode="&#x14a;" horiz-adv-x="785" 
d="M471 -192c-52.667 0 -93.667 7.66699 -123 23v145c26.667 -9.33301 52.667 -14 78 -14c47.333 0 74.333 18 81 54l-249 450v-466h-185v715h234l221 -412v412h184v-692c0 -66.667 -20.333 -118.667 -61 -156c-42.667 -39.333 -102.667 -59 -180 -59z" />
    <glyph glyph-name="eng" unicode="&#x14b;" horiz-adv-x="632" 
d="M337 -54c22 1.33301 38.001 6.83301 48.001 16.5s15 24.834 15 45.501v296c0 58.667 -25 88 -75 88c-27.333 0 -49 -8.33301 -65 -25s-24 -41.334 -24 -74.001v-293h-179v523h179v-84c33.333 65.333 90.666 98 171.999 98c52 0 93.5 -16.667 124.5 -50
s46.5 -82.333 46.5 -147v-336c0 -61.333 -16.667 -107 -50 -137c-39.333 -34 -103.333 -51 -192 -51v130z" />
    <glyph glyph-name="Omacron" unicode="&#x14c;" horiz-adv-x="827" 
d="M414 149c50.667 0 90.667 18.333 120 55s44 87 44 151v8c0 63.333 -14.833 112.833 -44.5 148.5s-69.834 53.5 -120.501 53.5c-51.333 0 -91.5 -17.667 -120.5 -53s-43.5 -85.333 -43.5 -150v-8c0 -64.667 14.833 -115 44.5 -151s69.834 -54 120.501 -54zM410 -12
c-113.333 0 -204.667 34 -274 102c-67.333 66 -101 153.667 -101 263v8c0 107.333 36.333 195.333 109 264c70.667 66.667 160.334 100 269.001 100c110 0 200.667 -32 272 -96c71.333 -67.333 107 -155 107 -263v-8c0 -112 -34.667 -201 -104 -267
c-70.667 -68.667 -163.334 -103 -278.001 -103zM250.999 878h322v-107h-322v107z" />
    <glyph glyph-name="omacron" unicode="&#x14d;" horiz-adv-x="630" 
d="M316 121c68.667 0 103 45.667 103 137v8c0 91.333 -34.333 137 -103 137c-69.333 0 -104 -45 -104 -135v-8c0 -92.667 34.667 -139 104 -139zM315 -12c-82.667 0 -150.333 23.335 -203 70.002c-55.333 48 -83 113.667 -83 197v8c0 82 27.667 148.667 83 200
c52.667 49.333 120.667 74 204 74s151 -24 203 -72c54.667 -50.667 82 -116.334 82 -197.001v-8c0 -82.667 -27.333 -149.334 -82 -200.001c-53.333 -48 -121.333 -72 -204 -72zM161.001 712.002h307v-100h-307v100z" />
    <glyph glyph-name="Obreve" unicode="&#x14e;" horiz-adv-x="827" 
d="M414 149c50.667 0 90.667 18.333 120 55s44 87 44 151v8c0 63.333 -14.833 112.833 -44.5 148.5s-69.834 53.5 -120.501 53.5c-51.333 0 -91.5 -17.667 -120.5 -53s-43.5 -85.333 -43.5 -150v-8c0 -64.667 14.833 -115 44.5 -151s69.834 -54 120.501 -54zM410 -12
c-113.333 0 -204.667 34 -274 102c-67.333 66 -101 153.667 -101 263v8c0 107.333 36.333 195.333 109 264c70.667 66.667 160.334 100 269.001 100c110 0 200.667 -32 272 -96c71.333 -67.333 107 -155 107 -263v-8c0 -112 -34.667 -201 -104 -267
c-70.667 -68.667 -163.334 -103 -278.001 -103zM410.999 752c-49.333 0 -88.332 13.5 -116.999 40.5s-44.667 64.5 -48 112.5h116c3.33301 -30.667 19.666 -46 48.999 -46c30 0 47.333 15.333 52 46h115c-4 -48 -20.833 -85.5 -50.5 -112.5s-68.5 -40.5 -116.5 -40.5z" />
    <glyph glyph-name="obreve" unicode="&#x14f;" horiz-adv-x="630" 
d="M316 121c68.667 0 103 45.667 103 137v8c0 91.333 -34.333 137 -103 137c-69.333 0 -104 -45 -104 -135v-8c0 -92.667 34.667 -139 104 -139zM315 -12c-82.667 0 -150.333 23.335 -203 70.002c-55.333 48 -83 113.667 -83 197v8c0 82 27.667 148.667 83 200
c52.667 49.333 120.667 74 204 74s151 -24 203 -72c54.667 -50.667 82 -116.334 82 -197.001v-8c0 -82.667 -27.333 -149.334 -82 -200.001c-53.333 -48 -121.333 -72 -204 -72zM314.001 587.002c-48.667 0 -87.3311 13.833 -115.998 41.5s-44.334 66.5 -47.001 116.5h111
c3.33301 -32 20.666 -48 51.999 -48c32.667 0 50.667 16 54 48h111c-3.33301 -50 -19.833 -88.833 -49.5 -116.5s-68.167 -41.5 -115.5 -41.5z" />
    <glyph glyph-name="Ohungarumlaut" unicode="&#x150;" horiz-adv-x="827" 
d="M414 149c50.667 0 90.667 18.333 120 55s44 87 44 151v8c0 63.333 -14.833 112.833 -44.5 148.5s-69.834 53.5 -120.501 53.5c-51.333 0 -91.5 -17.667 -120.5 -53s-43.5 -85.333 -43.5 -150v-8c0 -64.667 14.833 -115 44.5 -151s69.834 -54 120.501 -54zM410 -12
c-113.333 0 -204.667 34 -274 102c-67.333 66 -101 153.667 -101 263v8c0 107.333 36.333 195.333 109 264c70.667 66.667 160.334 100 269.001 100c110 0 200.667 -32 272 -96c71.333 -67.333 107 -155 107 -263v-8c0 -112 -34.667 -201 -104 -267
c-70.667 -68.667 -163.334 -103 -278.001 -103zM283.999 905h153l-74 -146h-120zM477.999 905h154l-75 -146h-120z" />
    <glyph glyph-name="ohungarumlaut" unicode="&#x151;" horiz-adv-x="630" 
d="M316 121c68.667 0 103 45.667 103 137v8c0 91.333 -34.333 137 -103 137c-69.333 0 -104 -45 -104 -135v-8c0 -92.667 34.667 -139 104 -139zM315 -12c-82.667 0 -150.333 23.335 -203 70.002c-55.333 48 -83 113.667 -83 197v8c0 82 27.667 148.667 83 200
c52.667 49.333 120.667 74 204 74s151 -24 203 -72c54.667 -50.667 82 -116.334 82 -197.001v-8c0 -82.667 -27.333 -149.334 -82 -200.001c-53.333 -48 -121.333 -72 -204 -72zM205.001 749.002h140l-77 -166h-107zM382.001 749.002h140l-77 -166h-106z" />
    <glyph glyph-name="OE" unicode="&#x152;" horiz-adv-x="987" 
d="M35 357c0 112 32.666 199.667 97.999 263c66.667 63.333 161.334 95 284.001 95h517v-158h-275v-123h216v-146h-216v-130h291v-158h-533c-125.333 0 -220.333 30 -285 90s-97 146.333 -97 259v8zM423.999 557c-60.667 0 -105 -16 -133 -48s-42 -81.667 -42 -149v-8
c0 -68 14 -117.333 42 -148s72.667 -46 134 -46h31v399h-32z" />
    <glyph glyph-name="oe" unicode="&#x153;" horiz-adv-x="993" 
d="M315 -12c-82.667 0 -150.333 23.333 -203 70c-55.333 48 -83 113.667 -83 197v8c0 82 27.667 148.667 83 200c52.667 49.333 120.667 74 204 74c80 0 144.333 -26.333 193 -79c48.667 52.667 112 79 190 79c76.667 0 139 -21.667 187 -65c52.667 -48 79 -116.333 79 -205
v-47h-368c2.66699 -34.667 13.5 -61.5 32.5 -80.5s44.5 -28.5 76.5 -28.5c52.667 0 83 20.667 91 62h168c-8 -60 -34.5 -105.833 -79.5 -137.5s-106.833 -47.5 -185.5 -47.5c-83.333 0 -148.333 25.333 -195 76c-46.667 -50.667 -110 -76 -190 -76zM316.001 121
c68.667 0 103 45.667 103 137v8c0 91.333 -34.333 137 -103 137c-69.333 0 -104 -45 -104 -135v-8c0 -92.667 34.667 -139 104 -139zM791.001 321c-3.33301 65.333 -34.001 98 -92.001 98c-57.333 0 -90.666 -32.667 -99.999 -98h192z" />
    <glyph glyph-name="Racute" unicode="&#x154;" horiz-adv-x="705" 
d="M73 715h279.999c94.667 0 166.834 -19 216.501 -57s74.5 -94.667 74.5 -170v-4c0 -92 -43 -154.667 -129 -188l171 -296h-216l-145 256h-48v-256h-204v715zM342.999 389c68.667 0 103.001 28.999 103.001 86.999v4c0 28.667 -8.33301 49.334 -25 62.001
s-42.334 19 -77.001 19h-67v-172h66zM316 904.999h187l-103 -146h-135z" />
    <glyph glyph-name="racute" unicode="&#x155;" horiz-adv-x="436" 
d="M57 523h179.001v-104c31.333 75.333 87.666 112.333 168.999 111v-167c-112.667 3.33301 -169 -35 -169 -115v-248h-179v523zM222.001 749h180l-105 -166h-128z" />
    <glyph glyph-name="uni0156" unicode="&#x156;" horiz-adv-x="697" 
d="M73 715h279.999c94.667 0 166.834 -19 216.501 -57s74.5 -94.667 74.5 -170v-4c0 -92 -43 -154.667 -129 -188l171 -296h-216l-145 256h-48v-256h-204v715zM342.999 389c68.667 0 103.001 28.999 103.001 86.999v4c0 28.667 -8.33301 49.334 -25 62.001
s-42.334 19 -77.001 19h-67v-172h66zM254 -205.001l42 177l158 -19l-99 -185z" />
    <glyph glyph-name="uni0157" unicode="&#x157;" horiz-adv-x="428" 
d="M57 523h179.001v-104c31.333 75.333 87.666 112.333 168.999 111v-167c-112.667 3.33301 -169 -35 -169 -115v-248h-179v523zM34.001 -205l42 177l158 -19l-99 -185z" />
    <glyph glyph-name="Rcaron" unicode="&#x158;" horiz-adv-x="705" 
d="M73 715h279.999c94.667 0 166.834 -19 216.501 -57s74.5 -94.667 74.5 -170v-4c0 -92 -43 -154.667 -129 -188l171 -296h-216l-145 256h-48v-256h-204v715zM342.999 389c68.667 0 103.001 28.999 103.001 86.999v4c0 28.667 -8.33301 49.334 -25 62.001
s-42.334 19 -77.001 19h-67v-172h66zM153 904.999h130l58 -49l59 49h127l-114 -146h-150z" />
    <glyph glyph-name="rcaron" unicode="&#x159;" horiz-adv-x="436" 
d="M57 523h179.001v-104c31.333 75.333 87.666 112.333 168.999 111v-167c-112.667 3.33301 -169 -35 -169 -115v-248h-179v523zM53.001 748h125l61 -56l61 56h122l-123 -163h-127z" />
    <glyph glyph-name="Sacute" unicode="&#x15a;" horiz-adv-x="655" 
d="M335 -12c-198 0 -300.668 79.668 -308.001 239.001h195c3.33301 -30 12.333 -51.667 27 -65c17.333 -18.667 46 -28 86 -28c29.333 0 52 6.33301 68 19s24 30 24 52c0 20.667 -8 36.334 -24 47.001c-13.333 7.33301 -43 14.666 -89 21.999
c-101.333 12 -171.333 35 -210 69c-40 33.333 -60 86.333 -60 159c0 65.333 24.667 118.666 74 159.999c50.667 42 118.334 63 203.001 63c175.333 0 269.333 -74.333 282 -223h-190c-7.33301 51.333 -38 77 -92 77c-27.333 0 -48 -5.5 -62 -16.5s-21 -25.833 -21 -44.5
c0 -20 7.66699 -35 23 -45c16 -12 45.333 -20.333 88 -25c96 -11.333 164.333 -31.333 205 -60c46 -36 69 -90 69 -162c0 -68 -25 -124 -75 -168c-53.333 -46.667 -124.333 -70 -213 -70zM299.999 905.001h187l-103 -146h-135z" />
    <glyph glyph-name="sacute" unicode="&#x15b;" horiz-adv-x="523" 
d="M262 -12c-75.333 0 -133.665 15.168 -174.998 45.501s-63 74.5 -65 132.5h165c4 -20.667 11.167 -35.667 21.5 -45s27.833 -14 52.5 -14c42.667 0 64 14.333 64 43c0 12.667 -7 22.334 -21 29.001s-39.333 12.667 -76 18c-72.667 9.33301 -123.334 26 -152.001 50
c-31.333 24.667 -47 64 -47 118c0 55.333 22.333 98.666 67 129.999c40 28 92.333 42 157 42c68.667 0 121.667 -12.667 159 -38c41.333 -28 65.333 -71.667 72 -131h-162c-6.66699 34.667 -29 52 -67 52c-18.667 0 -33.167 -3.66699 -43.5 -11s-15.5 -17.333 -15.5 -30
c0 -12 6.5 -21.167 19.5 -27.5s35.833 -11.5 68.5 -15.5c75.333 -9.33301 129.333 -25.333 162 -48c35.333 -26.667 53 -66.667 53 -120c0 -60.667 -20.833 -105.834 -62.5 -135.501s-99.834 -44.5 -174.501 -44.5zM244.001 749.001h180l-105 -166h-128z" />
    <glyph glyph-name="Scircumflex" unicode="&#x15c;" horiz-adv-x="655" 
d="M335 -12c-198 0 -300.668 79.668 -308.001 239.001h195c3.33301 -30 12.333 -51.667 27 -65c17.333 -18.667 46 -28 86 -28c29.333 0 52 6.33301 68 19s24 30 24 52c0 20.667 -8 36.334 -24 47.001c-13.333 7.33301 -43 14.666 -89 21.999
c-101.333 12 -171.333 35 -210 69c-40 33.333 -60 86.333 -60 159c0 65.333 24.667 118.666 74 159.999c50.667 42 118.334 63 203.001 63c175.333 0 269.333 -74.333 282 -223h-190c-7.33301 51.333 -38 77 -92 77c-27.333 0 -48 -5.5 -62 -16.5s-21 -25.833 -21 -44.5
c0 -20 7.66699 -35 23 -45c16 -12 45.333 -20.333 88 -25c96 -11.333 164.333 -31.333 205 -60c46 -36 69 -90 69 -162c0 -68 -25 -124 -75 -168c-53.333 -46.667 -124.333 -70 -213 -70zM251.999 905.001h150l110 -146h-130l-59 49l-58 -49h-127z" />
    <glyph glyph-name="scircumflex" unicode="&#x15d;" horiz-adv-x="523" 
d="M262 -12c-75.333 0 -133.665 15.168 -174.998 45.501s-63 74.5 -65 132.5h165c4 -20.667 11.167 -35.667 21.5 -45s27.833 -14 52.5 -14c42.667 0 64 14.333 64 43c0 12.667 -7 22.334 -21 29.001s-39.333 12.667 -76 18c-72.667 9.33301 -123.334 26 -152.001 50
c-31.333 24.667 -47 64 -47 118c0 55.333 22.333 98.666 67 129.999c40 28 92.333 42 157 42c68.667 0 121.667 -12.667 159 -38c41.333 -28 65.333 -71.667 72 -131h-162c-6.66699 34.667 -29 52 -67 52c-18.667 0 -33.167 -3.66699 -43.5 -11s-15.5 -17.333 -15.5 -30
c0 -12 6.5 -21.167 19.5 -27.5s35.833 -11.5 68.5 -15.5c75.333 -9.33301 129.333 -25.333 162 -48c35.333 -26.667 53 -66.667 53 -120c0 -60.667 -20.833 -105.834 -62.5 -135.501s-99.834 -44.5 -174.501 -44.5zM196.001 748.001h128l118 -163h-125l-61 56l-60 -56h-123z
" />
    <glyph glyph-name="uni015E" unicode="&#x15e;" horiz-adv-x="647" 
d="M305 -226c-36 0 -64.999 7.99609 -86.999 23.9961s-35.333 39 -40 69h84c4.66699 -18.667 16.667 -28 36 -28c10 0 17.833 2.83301 23.5 8.5s8.5 12.834 8.5 21.501c0 20.667 -11 31 -33 31c-11.333 0 -22 -3.66699 -32 -11l-39 38l42 64
c-158 16 -239.667 94.667 -245 236h195c2.66699 -29.333 12.334 -52.166 29.001 -68.499s44.667 -24.5 84 -24.5c29.333 0 52 6.33301 68 19s24 30 24 52s-7.66699 37.333 -23 46s-45.333 16.334 -90 23.001c-100.667 12 -170.834 34.833 -210.501 68.5
s-59.5 86.834 -59.5 159.501c0 65.333 25 118.833 75 160.5s117.333 62.5 202 62.5c175.333 0 269.333 -74.333 282 -223h-190c-7.33301 51.333 -38 77 -92 77c-27.333 0 -48 -5.5 -62 -16.5s-21 -25.833 -21 -44.5c0 -20 7.83301 -35.333 23.5 -46
s44.834 -18.667 87.501 -24c96 -11.333 165.667 -32.666 209 -63.999s65 -84 65 -158c0 -67.333 -25.333 -123.5 -76 -168.5s-119.334 -68.167 -206.001 -69.5l-22 -33c31.333 2.66699 57.666 -3.33301 78.999 -18s32 -37.334 32 -68.001c0 -30 -11 -53.333 -33 -70
s-51.333 -25 -88 -25z" />
    <glyph glyph-name="uni015F" unicode="&#x15f;" horiz-adv-x="515" 
d="M240 -226c-36 0 -64.999 8.00195 -86.999 24.002s-35.333 39 -40 69h84c4.66699 -18.667 16.667 -28 36 -28c10 0 17.833 2.83301 23.5 8.5s8.5 12.834 8.5 21.501c0 20.667 -11 31 -33 31c-11.333 0 -22 -3.66699 -32 -11l-39 38l42 64
c-120 15.333 -181.667 73.666 -185 174.999h165c4 -20.667 11.167 -35.667 21.5 -45s27.833 -14 52.5 -14c42.667 0 64 14.333 64 43c0 12.667 -7 22.334 -21 29.001s-39.333 12.667 -76 18c-72 10 -123.167 27.167 -153.5 51.5s-45.5 63.166 -45.5 116.499
c0 55.333 21.333 97.833 64 127.5s96 44.5 160 44.5c142 0 219 -56.333 231 -169h-162c-6.66699 34.667 -29 52 -67 52c-18.667 0 -33.167 -3.66699 -43.5 -11s-15.5 -17.333 -15.5 -30c0 -12 6.5 -21.167 19.5 -27.5s35.833 -11.5 68.5 -15.5
c76.667 -10 131.667 -27 165 -51s50 -63 50 -117c0 -58.667 -19.5 -102.834 -58.5 -132.501s-93.5 -45.5 -163.5 -47.5l-23 -33c31.333 2.66699 57.666 -3.33301 78.999 -18s32 -37.334 32 -68.001c0 -30 -11 -53.333 -33 -70s-51.333 -25 -88 -25z" />
    <glyph glyph-name="Scaron" unicode="&#x160;" horiz-adv-x="655" 
d="M335 -12c-198 0 -300.668 79.668 -308.001 239.001h195c3.33301 -30 12.333 -51.667 27 -65c17.333 -18.667 46 -28 86 -28c29.333 0 52 6.33301 68 19s24 30 24 52c0 20.667 -8 36.334 -24 47.001c-13.333 7.33301 -43 14.666 -89 21.999
c-101.333 12 -171.333 35 -210 69c-40 33.333 -60 86.333 -60 159c0 65.333 24.667 118.666 74 159.999c50.667 42 118.334 63 203.001 63c175.333 0 269.333 -74.333 282 -223h-190c-7.33301 51.333 -38 77 -92 77c-27.333 0 -48 -5.5 -62 -16.5s-21 -25.833 -21 -44.5
c0 -20 7.66699 -35 23 -45c16 -12 45.333 -20.333 88 -25c96 -11.333 164.333 -31.333 205 -60c46 -36 69 -90 69 -162c0 -68 -25 -124 -75 -168c-53.333 -46.667 -124.333 -70 -213 -70zM136.999 905.001h130l58 -49l59 49h127l-114 -146h-150z" />
    <glyph glyph-name="scaron" unicode="&#x161;" horiz-adv-x="523" 
d="M262 -12c-75.333 0 -133.665 15.168 -174.998 45.501s-63 74.5 -65 132.5h165c4 -20.667 11.167 -35.667 21.5 -45s27.833 -14 52.5 -14c42.667 0 64 14.333 64 43c0 12.667 -7 22.334 -21 29.001s-39.333 12.667 -76 18c-72.667 9.33301 -123.334 26 -152.001 50
c-31.333 24.667 -47 64 -47 118c0 55.333 22.333 98.666 67 129.999c40 28 92.333 42 157 42c68.667 0 121.667 -12.667 159 -38c41.333 -28 65.333 -71.667 72 -131h-162c-6.66699 34.667 -29 52 -67 52c-18.667 0 -33.167 -3.66699 -43.5 -11s-15.5 -17.333 -15.5 -30
c0 -12 6.5 -21.167 19.5 -27.5s35.833 -11.5 68.5 -15.5c75.333 -9.33301 129.333 -25.333 162 -48c35.333 -26.667 53 -66.667 53 -120c0 -60.667 -20.833 -105.834 -62.5 -135.501s-99.834 -44.5 -174.501 -44.5zM70.001 748.001h125l61 -56l61 56h122l-123 -163h-127z
" />
    <glyph glyph-name="Tcommaaccent" unicode="&#x162;" horiz-adv-x="626" 
d="M210 557h-185v158h576v-158h-185v-557h-206v557zM196 -205l42 177l158 -19l-99 -185z" />
    <glyph glyph-name="tcommaaccent" unicode="&#x163;" horiz-adv-x="397" 
d="M265 -12c-122.667 0 -184 60 -184 180v233h-63v122h63v109h179v-109h103v-122h-103v-216c0 -36.667 17.667 -55 53 -55c20 0 37 3 51 9v-136c-32.667 -10 -65.667 -15 -99 -15zM98 -205l42 177l158 -19l-99 -185z" />
    <glyph glyph-name="Tcaron" unicode="&#x164;" horiz-adv-x="626" 
d="M210 557h-185v158h576v-158h-185v-557h-206v557zM124 905h130l58 -49l59 49h127l-114 -146h-150z" />
    <glyph glyph-name="tcaron" unicode="&#x165;" horiz-adv-x="397" 
d="M265 -12c-122.667 0 -184 60 -184 180v233h-63v122h63v109h179v-109h103v-122h-103v-216c0 -36.667 17.667 -55 53 -55c20 0 37 3 51 9v-136c-32.667 -10 -65.667 -15 -99 -15zM314 753h133l-49 -174h-93z" />
    <glyph glyph-name="Tbar" unicode="&#x166;" horiz-adv-x="626" 
d="M84 407h126v150h-185v158h576v-158h-185v-150h126v-128h-126v-279h-206v279h-126v128z" />
    <glyph glyph-name="tbar" unicode="&#x167;" horiz-adv-x="397" 
d="M18 332h63v69h-63v122h63v109h179v-109h103v-122h-103v-69h103v-99h-103v-48c0 -36.667 17.667 -55 53 -55c20 0 37 3 51 9v-136c-32.667 -10 -65.667 -15 -99 -15c-122.667 0 -184 60 -184 180v65h-63v99z" />
    <glyph glyph-name="Utilde" unicode="&#x168;" horiz-adv-x="772" 
d="M385 -12c-102.667 0 -181.167 25.5029 -235.5 76.5029s-81.5 126.167 -81.5 225.5v425h205v-416c0 -52.667 8.16699 -90.834 24.5 -114.501s45.5 -35.5 87.5 -35.5s71.167 11.667 87.5 35s24.5 62.666 24.5 117.999v413h207v-422
c0 -102.667 -28.333 -179.334 -85 -230.001c-54.667 -50 -132.667 -75 -234 -75zM449 758.003c-20 0 -43.333 5.66699 -70 17s-43.334 17 -50.001 17c-8 0 -14.833 -3 -20.5 -9s-9.16699 -14 -10.5 -24h-102c4 52 17.667 90.667 41 116c20.667 24.667 47.667 37 81 37
c19.333 0 42.333 -5.33301 69 -16c24 -11.333 41.333 -17 52 -17c16.667 0 27.334 10.667 32.001 32h101c-4 -49.333 -17.667 -88 -41 -116c-22.667 -24.667 -50 -37 -82 -37z" />
    <glyph glyph-name="utilde" unicode="&#x169;" horiz-adv-x="631" 
d="M229 -12c-52.667 0 -94.334 15.667 -125.001 47c-34 34 -51 83 -51 147v341h179v-312c0 -58.667 24.667 -88 74 -88c59.333 0 89 33 89 99v301h179v-523h-179v81c-31.333 -62 -86.666 -93 -165.999 -93zM378 587c-21.333 0 -44.002 5.66797 -68.002 17.001
c-25.333 10.667 -41.666 16 -48.999 16c-17.333 0 -27.666 -10.667 -30.999 -32h-97c3.33301 51.333 15.166 90.166 35.499 116.499s46.833 39.5 79.5 39.5c17.333 0 40 -5.66699 68 -17c26.667 -11.333 43.667 -17 51 -17c16.667 0 27.334 10.667 32.001 32h97
c-4 -50 -16.833 -88.333 -38.5 -115s-48.167 -40 -79.5 -40z" />
    <glyph glyph-name="Umacron" unicode="&#x16a;" horiz-adv-x="772" 
d="M385 -12c-102.667 0 -181.167 25.5029 -235.5 76.5029s-81.5 126.167 -81.5 225.5v425h205v-416c0 -52.667 8.16699 -90.834 24.5 -114.501s45.5 -35.5 87.5 -35.5s71.167 11.667 87.5 35s24.5 62.666 24.5 117.999v413h207v-422
c0 -102.667 -28.333 -179.334 -85 -230.001c-54.667 -50 -132.667 -75 -234 -75zM223 878.003h322v-107h-322v107z" />
    <glyph glyph-name="umacron" unicode="&#x16b;" horiz-adv-x="631" 
d="M229 -12c-52.667 0 -94.334 15.667 -125.001 47c-34 34 -51 83 -51 147v341h179v-312c0 -58.667 24.667 -88 74 -88c59.333 0 89 33 89 99v301h179v-523h-179v81c-31.333 -62 -86.666 -93 -165.999 -93zM160 712h307v-100h-307v100z" />
    <glyph glyph-name="Ubreve" unicode="&#x16c;" horiz-adv-x="772" 
d="M385 -12c-102.667 0 -181.167 25.5029 -235.5 76.5029s-81.5 126.167 -81.5 225.5v425h205v-416c0 -52.667 8.16699 -90.834 24.5 -114.501s45.5 -35.5 87.5 -35.5s71.167 11.667 87.5 35s24.5 62.666 24.5 117.999v413h207v-422
c0 -102.667 -28.333 -179.334 -85 -230.001c-54.667 -50 -132.667 -75 -234 -75zM383 752.003c-49.333 0 -88.332 13.5 -116.999 40.5s-44.667 64.5 -48 112.5h116c3.33301 -30.667 19.666 -46 48.999 -46c30 0 47.333 15.333 52 46h115c-4 -48 -20.833 -85.5 -50.5 -112.5
s-68.5 -40.5 -116.5 -40.5z" />
    <glyph glyph-name="ubreve" unicode="&#x16d;" horiz-adv-x="631" 
d="M229 -12c-52.667 0 -94.334 15.667 -125.001 47c-34 34 -51 83 -51 147v341h179v-312c0 -58.667 24.667 -88 74 -88c59.333 0 89 33 89 99v301h179v-523h-179v81c-31.333 -62 -86.666 -93 -165.999 -93zM313 587c-48.667 0 -87.3311 13.833 -115.998 41.5
s-44.334 66.5 -47.001 116.5h111c3.33301 -32 20.666 -48 51.999 -48c32.667 0 50.667 16 54 48h111c-3.33301 -50 -19.833 -88.833 -49.5 -116.5s-68.167 -41.5 -115.5 -41.5z" />
    <glyph glyph-name="Uring" unicode="&#x16e;" horiz-adv-x="772" 
d="M385 -12c-102.667 0 -181.167 25.5029 -235.5 76.5029s-81.5 126.167 -81.5 225.5v425h205v-416c0 -52.667 8.16699 -90.834 24.5 -114.501s45.5 -35.5 87.5 -35.5s71.167 11.667 87.5 35s24.5 62.666 24.5 117.999v413h207v-422
c0 -102.667 -28.333 -179.334 -85 -230.001c-54.667 -50 -132.667 -75 -234 -75zM384 790.003c13.333 0 24.333 4.66699 33 14s13 21.333 13 36c0 15.333 -4.16699 27.5 -12.5 36.5s-19.5 13.5 -33.5 13.5s-25.167 -4.5 -33.5 -13.5s-12.5 -21.167 -12.5 -36.5
c0 -14.667 4.16699 -26.667 12.5 -36s19.5 -14 33.5 -14zM384 724.003c-32.667 0 -60.668 11.666 -84.001 34.999c-24 20.667 -36 47.667 -36 81c0 32.667 12 60 36 82c22.667 22.667 50.667 34 84 34c32 0 60.333 -11.333 85 -34c23.333 -23.333 35 -50.666 35 -81.999
c0 -32 -11.667 -59 -35 -81c-25.333 -23.333 -53.666 -35 -84.999 -35z" />
    <glyph glyph-name="uring" unicode="&#x16f;" horiz-adv-x="631" 
d="M229 -12c-52.667 0 -94.334 15.667 -125.001 47c-34 34 -51 83 -51 147v341h179v-312c0 -58.667 24.667 -88 74 -88c59.333 0 89 33 89 99v301h179v-523h-179v81c-31.333 -62 -86.666 -93 -165.999 -93zM313 619c13.333 0 24.333 4.66699 33 14s13 21.333 13 36
c0 15.333 -4.33301 27.666 -13 36.999s-19.667 14 -33 14s-24.333 -4.66699 -33 -14s-13 -21.666 -13 -36.999c0 -14.667 4.33301 -26.667 13 -36s19.667 -14 33 -14zM313 555c-32.667 0 -60.334 11.333 -83.001 34c-23.333 22 -35 48.667 -35 80
c0 30.667 11.667 57.667 35 81c22.667 22.667 50.334 34 83.001 34s60.334 -11.333 83.001 -34c23.333 -23.333 35 -50.333 35 -81c0 -31.333 -11.667 -58 -35 -80c-22.667 -22.667 -50.334 -34 -83.001 -34z" />
    <glyph glyph-name="Uhungarumlaut" unicode="&#x170;" horiz-adv-x="772" 
d="M385 -12c-102.667 0 -181.167 25.5029 -235.5 76.5029s-81.5 126.167 -81.5 225.5v425h205v-416c0 -52.667 8.16699 -90.834 24.5 -114.501s45.5 -35.5 87.5 -35.5s71.167 11.667 87.5 35s24.5 62.666 24.5 117.999v413h207v-422
c0 -102.667 -28.333 -179.334 -85 -230.001c-54.667 -50 -132.667 -75 -234 -75zM256 905.003h153l-74 -146h-120zM450 905.003h154l-75 -146h-120z" />
    <glyph glyph-name="uhungarumlaut" unicode="&#x171;" horiz-adv-x="631" 
d="M229 -12c-52.667 0 -94.334 15.667 -125.001 47c-34 34 -51 83 -51 147v341h179v-312c0 -58.667 24.667 -88 74 -88c59.333 0 89 33 89 99v301h179v-523h-179v81c-31.333 -62 -86.666 -93 -165.999 -93zM204 749h140l-77 -166h-107zM381 749h140l-77 -166h-106z" />
    <glyph glyph-name="Uogonek" unicode="&#x172;" horiz-adv-x="772" 
d="M424 -182c-37.333 0 -66.668 7.16797 -88.001 21.501s-32 33.833 -32 58.5c0 34 21.333 64 64 90c-97.333 3.33301 -171.666 30.333 -222.999 81s-77 124.334 -77 221.001v425h205v-416c0 -52.667 8.16699 -90.834 24.5 -114.501s45.5 -35.5 87.5 -35.5
s71.167 11.667 87.5 35s24.5 62.666 24.5 117.999v413h207v-422c0 -136.667 -51.333 -228.667 -154 -276c-34.667 -16 -56.334 -27 -65.001 -33c-18.667 -12 -28 -26.333 -28 -43c0 -18 10.333 -27 31 -27c10 0 20 1.66699 30 5v-85
c-25.333 -10.667 -56.666 -16 -93.999 -16z" />
    <glyph glyph-name="uogonek" unicode="&#x173;" horiz-adv-x="631" 
d="M489 -182c-36 0 -64.333 7.16797 -85 21.501s-31 34.166 -31 59.499c0 23.333 9 44 27 62c11.333 11.333 31 24.333 59 39h-64v81c-31.333 -62 -86.666 -93 -165.999 -93c-52.667 0 -94.334 15.667 -125.001 47c-34 34 -51 83 -51 147v341h179v-312
c0 -58.667 24.667 -88 74 -88c59.333 0 89 33 89 99v301h179v-511c-36.667 -28 -55 -53 -55 -75c0 -18.667 10 -28 30 -28c10 0 20 1.66699 30 5v-80c-25.333 -10.667 -55.333 -16 -90 -16z" />
    <glyph glyph-name="Wcircumflex" unicode="&#x174;" horiz-adv-x="1004" 
d="M18 715h207l92 -446l96 446h182l104 -450l97 450h190l-167 -715h-214l-110 454l-111 -454h-200zM430 905h150l110 -146h-130l-59 49l-58 -49h-127z" />
    <glyph glyph-name="wcircumflex" unicode="&#x175;" horiz-adv-x="853" 
d="M13 523h187l76 -313l88 313h144l78 -313l85 313h170l-166 -523h-171l-78 292l-81 -292h-174zM364 748h128l118 -163h-125l-61 56l-60 -56h-123z" />
    <glyph glyph-name="Ycircumflex" unicode="&#x176;" horiz-adv-x="685" 
d="M245 306l-233 409h223l121 -241l121 241h196l-222 -409v-306h-206v306zM276 905h150l110 -146h-130l-59 49l-58 -49h-127z" />
    <glyph glyph-name="ycircumflex" unicode="&#x177;" horiz-adv-x="597" 
d="M221 53l-209 470h194l108 -279l100 279h171l-280 -698h-171zM244 748h128l118 -163h-125l-61 56l-60 -56h-123z" />
    <glyph glyph-name="Ydieresis" unicode="&#x178;" horiz-adv-x="685" 
d="M245 306l-233 409h223l121 -241l121 241h196l-222 -409v-306h-206v306zM237 758c-24 0 -44 8 -60 24c-16.667 15.333 -25 35 -25 59c0 23.333 8.33301 43.166 25 59.499s36.667 24.5 60 24.5c24 0 44.333 -8.16699 61 -24.5s25 -36.166 25 -59.499s-8.33301 -43 -25 -59
s-37 -24 -61 -24zM460 758c-24 0 -44.167 8 -60.5 24s-24.5 35.667 -24.5 59s8.16699 43.166 24.5 59.499s36.5 24.5 60.5 24.5s44.333 -8.16699 61 -24.5s25 -36.166 25 -59.499s-8.33301 -43 -25 -59s-37 -24 -61 -24z" />
    <glyph glyph-name="Zacute" unicode="&#x179;" horiz-adv-x="635" 
d="M17 23l304 535h-265v157h556v-22l-300 -535h285v-158h-580v23zM300 905h187l-103 -146h-135z" />
    <glyph glyph-name="zacute" unicode="&#x17a;" horiz-adv-x="516" 
d="M14 18l229 370h-205v135h461v-19l-235 -369h223v-135h-473v18zM248 749h180l-105 -166h-128z" />
    <glyph glyph-name="Zdotaccent" unicode="&#x17b;" horiz-adv-x="635" 
d="M17 23l304 535h-265v157h556v-22l-300 -535h285v-158h-580v23zM326 757c-27.333 0 -50 8.5 -68 25.5s-27 38.5 -27 64.5c0 25.333 9 46.5 27 63.5s40.667 25.5 68 25.5s50 -8.5 68 -25.5s27 -38.167 27 -63.5c0 -26 -9 -47.5 -27 -64.5s-40.667 -25.5 -68 -25.5z" />
    <glyph glyph-name="zdotaccent" unicode="&#x17c;" horiz-adv-x="516" 
d="M14 18l229 370h-205v135h461v-19l-235 -369h223v-135h-473v18zM265 579c-28 0 -50.999 8.5 -68.999 25.5s-27 38.5 -27 64.5c0 25.333 9.16699 46.5 27.5 63.5s41.166 25.5 68.499 25.5s50 -8.5 68 -25.5s27 -38.167 27 -63.5c0 -26 -9 -47.5 -27 -64.5
s-40.667 -25.5 -68 -25.5z" />
    <glyph glyph-name="Zcaron" unicode="&#x17d;" horiz-adv-x="635" 
d="M17 23l304 535h-265v157h556v-22l-300 -535h285v-158h-580v23zM137 905h130l58 -49l59 49h127l-114 -146h-150z" />
    <glyph glyph-name="zcaron" unicode="&#x17e;" horiz-adv-x="516" 
d="M14 18l229 370h-205v135h461v-19l-235 -369h223v-135h-473v18zM79 748h125l61 -56l61 56h122l-123 -163h-127z" />
    <glyph glyph-name="uni0192" unicode="&#x192;" horiz-adv-x="447" 
d="M23 414h90l18 125c18 124 91.667 186 221 186c26 0 52 -3.66699 78 -11v-134c-17.333 4.66699 -34.333 7 -51 7c-41.333 0 -65 -21 -71 -63l-16 -110h113v-121h-130l-68 -475h-178l67 475h-73v121z" />
    <glyph glyph-name="Aringacute" unicode="&#x1fa;" horiz-adv-x="755" 
d="M246 715h265l227 -715h-217l-38 133h-237l-38 -133h-191zM286 274h157l-78 275zM379 807c13.333 0 24.333 4.66699 33 14s13 21.333 13 36c0 15.333 -4.16699 27.5 -12.5 36.5s-19.5 13.5 -33.5 13.5s-25.167 -4.5 -33.5 -13.5s-12.5 -21.167 -12.5 -36.5
c0 -14.667 4.16699 -26.667 12.5 -36s19.5 -14 33.5 -14zM379 741c-32.667 0 -60.668 11.666 -84.001 34.999c-24 20.667 -36 47.667 -36 81c0 32.667 12 60 36 82c22.667 22.667 50.667 34 84 34c32 0 60.333 -11.333 85 -34c23.333 -23.333 35 -50.666 35 -81.999
c0 -32 -11.667 -59 -35 -81c-25.333 -23.333 -53.666 -35 -84.999 -35zM360.999 1137h187l-103 -146h-135z" />
    <glyph glyph-name="aringacute" unicode="&#x1fb;" horiz-adv-x="586" 
d="M204 -12c-50.667 0 -91.666 12.333 -122.999 37c-36 27.333 -54 67.333 -54 120c0 114 92.667 171 278 171h50v12c0 28 -4.83301 48.833 -14.5 62.5s-27.834 20.5 -54.501 20.5c-42 0 -65.667 -20.667 -71 -62h-168c4 61.333 29 108.666 75 141.999
c42.667 30.667 101 46 175 46c74.667 0 132 -15.667 172 -47c42.667 -33.333 64 -83.666 64 -150.999v-339h-174v61c-31.333 -48.667 -83 -73 -155 -73zM266.001 109c26 0 47.333 6.83203 64 20.499s25 31.5 25 53.5v32h-47c-36.667 0 -63.167 -4.16699 -79.5 -12.5
s-24.5 -23.166 -24.5 -44.499c0 -32.667 20.667 -49 62 -49zM296.001 635.999c13.333 0 24.333 4.66699 33 14s13 21.333 13 36c0 15.333 -4.33301 27.666 -13 36.999s-19.667 14 -33 14s-24.333 -4.66699 -33 -14s-13 -21.666 -13 -36.999
c0 -14.667 4.33301 -26.667 13 -36s19.667 -14 33 -14zM296.001 571.999c-32.667 0 -60.334 11.333 -83.001 34c-23.333 22 -35 48.667 -35 80c0 30.667 11.667 57.667 35 81c22.667 22.667 50.334 34 83.001 34s60.334 -11.333 83.001 -34
c23.333 -23.333 35 -50.333 35 -81c0 -31.333 -11.667 -58 -35 -80c-22.667 -22.667 -50.334 -34 -83.001 -34zM284.001 974.999h187l-103 -146h-135z" />
    <glyph glyph-name="AEacute" unicode="&#x1fc;" horiz-adv-x="1010" 
d="M336 715h622v-158h-283v-123h223v-146h-223v-130h299v-158h-504v146h-197l-63 -146h-195zM332 284h138v273h-20zM592 905h187l-103 -146h-135z" />
    <glyph glyph-name="aeacute" unicode="&#x1fd;" horiz-adv-x="916" 
d="M631 -12c-94 0 -161.668 30.332 -203.001 90.999c-46 -60.667 -115 -91 -207 -91c-56 0 -101.333 12.333 -136 37c-38.667 26.667 -58 66.667 -58 120c0 116.667 92.333 174.334 277 173.001h53v9c0 28 -5 49 -15 63s-28.333 21 -55 21c-42 0 -66 -20.667 -72 -62h-168
c4 60.667 28.667 108 74 142c42.667 30.667 99 46 169 46c80.667 0 137 -20.667 169 -62c44.667 41.333 100.334 62 167.001 62c76 0 137.333 -21.333 184 -64c52 -47.333 78 -116.333 78 -207v-46h-360c5.33301 -72.667 40 -109 104 -109c51.333 0 81 20.667 89 62h167
c-8 -60 -33.833 -105.833 -77.5 -137.5s-103.5 -47.5 -179.5 -47.5zM714.999 317.999c-4 67.333 -33.668 101 -89.001 101c-26.667 0 -48.667 -8.83301 -66 -26.5s-27.666 -42.5 -30.999 -74.5h186zM266.998 108.999c28 0 50 6.66699 66 20s24 31.333 24 54v34h-50
c-35.333 0.666992 -61.333 -3 -78 -11s-25 -22.667 -25 -44c0 -35.333 21 -53 63 -53zM457.998 748.999h180l-105 -166h-128z" />
    <glyph glyph-name="Oslashacute" unicode="&#x1fe;" horiz-adv-x="827" 
d="M36 26l80 85c-54 65.333 -81 146 -81 242v8c0 107.333 36.333 195.333 109 264c70.667 66.667 160.334 100 269.001 100c86 0 161.667 -20.667 227 -62l73 77l59 -58l-69 -73c59.333 -63.333 89 -144.333 89 -243v-8c0 -112 -34.667 -201 -104 -267
c-70.667 -68.667 -163.334 -103 -278.001 -103c-92 0 -169.667 22.333 -233 67l-82 -87zM414 149c51.333 0 91.832 18.167 121.499 54.5s44.5 86.833 44.5 151.5v8c0 38.667 -5.33301 71.667 -16 99l-260 -273c28.667 -26.667 65.334 -40 110.001 -40zM246.999 354
c0 -34 4.33301 -64.667 13 -92l255 270c-26 22 -60 33 -102 33c-52 0 -92.667 -17.667 -122 -53s-44 -85.333 -44 -150v-8zM387.999 905h187l-103 -146h-135z" />
    <glyph glyph-name="oslashacute" unicode="&#x1ff;" horiz-adv-x="630" 
d="M25 9l66.001 70c-41.333 46.667 -62 105.334 -62 176.001v8c0 82 27.667 148.667 83 200c52.667 49.333 120.667 74 204 74c62 0 116.333 -14.333 163 -43l65 69l52 -48l-62 -66c44.667 -48.667 67 -109 67 -181v-8c0 -82.667 -27.333 -149.334 -82 -200.001
c-53.333 -48 -121.333 -72 -204 -72c-64.667 0 -121.334 15 -170.001 45l-68 -72zM316.001 120c34 0 60 12 78 36s27 58 27 102v8c0 20.667 -2 39 -6 55l-167 -178c17.333 -15.333 40 -23 68 -23zM210.001 260c0 -19.333 1.33301 -35.667 4 -49l163 174
c-14.667 12.667 -35 19 -61 19c-34 0 -60.167 -11.667 -78.5 -35s-27.5 -57 -27.5 -101v-8zM298.001 748.999h180l-105 -166h-128z" />
    <glyph glyph-name="uni0218" unicode="&#x218;" horiz-adv-x="651" 
d="M335 -12c-198 0 -300.668 79.668 -308.001 239.001h195c3.33301 -30 12.333 -51.667 27 -65c17.333 -18.667 46 -28 86 -28c29.333 0 52 6.33301 68 19s24 30 24 52c0 20.667 -8 36.334 -24 47.001c-13.333 7.33301 -43 14.666 -89 21.999
c-101.333 12 -171.333 35 -210 69c-40 33.333 -60 86.333 -60 159c0 65.333 24.667 118.666 74 159.999c50.667 42 118.334 63 203.001 63c175.333 0 269.333 -74.333 282 -223h-190c-7.33301 51.333 -38 77 -92 77c-27.333 0 -48 -5.5 -62 -16.5s-21 -25.833 -21 -44.5
c0 -20 7.66699 -35 23 -45c16 -12 45.333 -20.333 88 -25c96 -11.333 164.333 -31.333 205 -60c46 -36 69 -90 69 -162c0 -68 -25 -124 -75 -168c-53.333 -46.667 -124.333 -70 -213 -70zM208.999 -204.999l42 177l158 -19l-99 -185z" />
    <glyph glyph-name="uni0219" unicode="&#x219;" horiz-adv-x="515" 
d="M261 -12c-75.333 0 -133.665 15.168 -174.998 45.501s-63 74.5 -65 132.5h165c4 -20.667 11.167 -35.667 21.5 -45s27.833 -14 52.5 -14c42.667 0 64 14.333 64 43c0 12.667 -7 22.334 -21 29.001s-39.333 12.667 -76 18c-72.667 9.33301 -123.334 26 -152.001 50
c-31.333 24.667 -47 64 -47 118c0 55.333 22.333 98.666 67 129.999c40 28 92.333 42 157 42c68.667 0 121.667 -12.667 159 -38c41.333 -28 65.333 -71.667 72 -131h-162c-6.66699 34.667 -29 52 -67 52c-18.667 0 -33.167 -3.66699 -43.5 -11s-15.5 -17.333 -15.5 -30
c0 -12 6.5 -21.167 19.5 -27.5s35.833 -11.5 68.5 -15.5c75.333 -9.33301 129.333 -25.333 162 -48c35.333 -26.667 53 -66.667 53 -120c0 -60.667 -20.833 -105.834 -62.5 -135.501s-99.834 -44.5 -174.501 -44.5zM142.001 -204.999l42 177l158 -19l-99 -185z" />
    <glyph glyph-name="uni021A" unicode="&#x21a;" horiz-adv-x="618" 
d="M210 557h-185v158h576v-158h-185v-557h-206v557zM196 -205l42 177l158 -19l-99 -185z" />
    <glyph glyph-name="uni021B" unicode="&#x21b;" horiz-adv-x="389" 
d="M265 -12c-122.667 0 -184 60 -184 180v233h-63v122h63v109h179v-109h103v-122h-103v-216c0 -36.667 17.667 -55 53 -55c20 0 37 3 51 9v-136c-32.667 -10 -65.667 -15 -99 -15zM98 -205l42 177l158 -19l-99 -185z" />
    <glyph glyph-name="uni0237" unicode="&#x237;" horiz-adv-x="303" 
d="M-2 -54c22 1.33301 38.167 7 48.5 17s15.5 25 15.5 45v515h178v-519c0 -61.333 -16.667 -107 -50 -137c-39.333 -34 -103.333 -51 -192 -51v130z" />
    <glyph glyph-name="uni02BC" unicode="&#x2bc;" horiz-adv-x="318" 
d="M46 467l80 261l158 -53l-137 -247z" />
    <glyph glyph-name="circumflex" unicode="&#x2c6;" horiz-adv-x="408" 
d="M142 748h128l118 -163h-125l-61 56l-60 -56h-123z" />
    <glyph glyph-name="caron" unicode="&#x2c7;" horiz-adv-x="408" 
d="M19 748h125l61 -56l61 56h122l-123 -163h-127z" />
    <glyph glyph-name="breve" unicode="&#x2d8;" horiz-adv-x="408" 
d="M203 587c-48.667 0 -87.3311 13.833 -115.998 41.5s-44.334 66.5 -47.001 116.5h111c3.33301 -32 20.666 -48 51.999 -48c32.667 0 50.667 16 54 48h111c-3.33301 -50 -19.833 -88.833 -49.5 -116.5s-68.167 -41.5 -115.5 -41.5z" />
    <glyph glyph-name="dotaccent" unicode="&#x2d9;" horiz-adv-x="408" 
d="M204 579c-28 0 -50.999 8.5 -68.999 25.5s-27 38.5 -27 64.5c0 25.333 9.16699 46.5 27.5 63.5s41.166 25.5 68.499 25.5s50 -8.5 68 -25.5s27 -38.167 27 -63.5c0 -26 -9 -47.5 -27 -64.5s-40.667 -25.5 -68 -25.5z" />
    <glyph glyph-name="ring" unicode="&#x2da;" horiz-adv-x="408" 
d="M204 642c13.333 0 24.333 4.66699 33 14s13 21.333 13 36c0 15.333 -4.33301 27.666 -13 36.999s-19.667 14 -33 14s-24.333 -4.66699 -33 -14s-13 -21.666 -13 -36.999c0 -14.667 4.33301 -26.667 13 -36s19.667 -14 33 -14zM204 578
c-32.667 0 -60.334 11.333 -83.001 34c-23.333 22 -35 48.667 -35 80c0 30.667 11.667 57.667 35 81c22.667 22.667 50.334 34 83.001 34s60.334 -11.333 83.001 -34c23.333 -23.333 35 -50.333 35 -81c0 -31.333 -11.667 -58 -35 -80
c-22.667 -22.667 -50.334 -34 -83.001 -34z" />
    <glyph glyph-name="ogonek" unicode="&#x2db;" horiz-adv-x="408" 
d="M203 -182c-34 0 -62.001 7 -84.001 21s-33 33.333 -33 58c0 23.333 9 44 27 62c12.667 13.333 32.334 27 59.001 41h102c-28 -22.667 -42 -43.667 -42 -63c0 -18.667 10 -28 30 -28c13.333 0 23.333 1.66699 30 5v-80c-25.333 -10.667 -55 -16 -89 -16z" />
    <glyph glyph-name="tilde" unicode="&#x2dc;" horiz-adv-x="408" 
d="M268 587c-21.333 0 -44.002 5.66797 -68.002 17.001c-25.333 10.667 -41.666 16 -48.999 16c-17.333 0 -27.666 -10.667 -30.999 -32h-97c3.33301 51.333 15.166 90.166 35.499 116.499s46.833 39.5 79.5 39.5c17.333 0 40 -5.66699 68 -17
c26.667 -11.333 43.667 -17 51 -17c16.667 0 27.334 10.667 32.001 32h97c-4 -50 -16.833 -88.333 -38.5 -115s-48.167 -40 -79.5 -40z" />
    <glyph glyph-name="hungarumlaut" unicode="&#x2dd;" horiz-adv-x="408" 
d="M102 749h140l-77 -166h-107zM279 749h140l-77 -166h-106z" />
    <glyph glyph-name="uni037E" unicode="&#x37e;" horiz-adv-x="321" 
d="M14 -81l83 263l166 -59l-143 -245zM178 275c-30 0 -54.499 9.66699 -73.499 29s-28.5 43.333 -28.5 72s9.66699 52.667 29 72s43.666 29 72.999 29c28.667 0 53.667 -9.66699 75 -29c20 -20 30 -44 30 -72c0 -28.667 -10 -52.667 -30 -72s-45 -29 -75 -29z" />
    <glyph glyph-name="tonos" unicode="&#x384;" horiz-adv-x="400" 
d="M186 749h180l-105 -166h-128z" />
    <glyph glyph-name="dieresistonos" unicode="&#x385;" horiz-adv-x="479" 
d="M209 770h135l-83 -178h-98zM407 587c-21.333 0 -39.333 7.16699 -54 21.5s-22 31.833 -22 52.5c0 20 7.33301 37.333 22 52s32.667 22 54 22s39.333 -7.33301 54 -22s22 -32 22 -52c0 -20.667 -7.33301 -38.167 -22 -52.5s-32.667 -21.5 -54 -21.5zM72 587
c-21.333 0 -39.333 7.16699 -54 21.5s-22 31.833 -22 52.5c0 20 7.33301 37.333 22 52s32.667 22 54 22s39.333 -7.33301 54 -22s22 -32 22 -52c0 -20.667 -7.33301 -38.167 -22 -52.5s-32.667 -21.5 -54 -21.5z" />
    <glyph glyph-name="Alphatonos" unicode="&#x386;" horiz-adv-x="747" 
d="M246 715h265l227 -715h-217l-38 133h-237l-38 -133h-191zM286 274h157l-78 275zM4 716h180l-105 -166h-128z" />
    <glyph glyph-name="anoteleia" unicode="&#x387;" horiz-adv-x="299" 
d="M152 225c-30.667 0 -54.999 10 -72.999 30c-19.333 17.333 -29 41 -29 71c0 28.667 9.66699 52.667 29 72s43.666 29 72.999 29c28.667 0 53.667 -9.66699 75 -29c20 -20 30 -44 30 -72c0 -29.333 -10 -53 -30 -71c-20 -20 -45 -30 -75 -30z" />
    <glyph glyph-name="Epsilontonos" unicode="&#x388;" horiz-adv-x="612" 
d="M-136 716h180l-105 -166h-128zM73 715h494v-158h-290v-123h231v-146h-231v-130h306v-158h-510v715z" />
    <glyph glyph-name="Etatonos" unicode="&#x389;" horiz-adv-x="784" 
d="M73 715h206v-273h235v273h205v-715h-205v282h-235v-282h-206v715zM-136 716h180l-105 -166h-128z" />
    <glyph glyph-name="Iotatonos" unicode="&#x38a;" horiz-adv-x="352" 
d="M77 715h207v-715h-207v715zM-136 716h180l-105 -166h-128z" />
    <glyph glyph-name="Omicrontonos" unicode="&#x38c;" horiz-adv-x="819" 
d="M-73 716h180l-105 -166h-128zM414 149c50.667 0 90.667 18.333 120 55s44 87 44 151v8c0 63.333 -14.833 112.833 -44.5 148.5s-69.834 53.5 -120.501 53.5c-51.333 0 -91.5 -17.667 -120.5 -53s-43.5 -85.333 -43.5 -150v-8c0 -64.667 14.833 -115 44.5 -151
s69.834 -54 120.501 -54zM410 -12c-113.333 0 -204.667 34 -274 102c-67.333 66 -101 153.667 -101 263v8c0 107.333 36.333 195.333 109 264c70.667 66.667 160.334 100 269.001 100c110 0 200.667 -32 272 -96c71.333 -67.333 107 -155 107 -263v-8
c0 -112 -34.667 -201 -104 -267c-70.667 -68.667 -163.334 -103 -278.001 -103z" />
    <glyph glyph-name="Upsilontonos" unicode="&#x38e;" horiz-adv-x="677" 
d="M245 306l-233 409h223l121 -241l121 241h196l-222 -409v-306h-206v306zM-183 716h180l-105 -166h-128z" />
    <glyph glyph-name="Omegatonos" unicode="&#x38f;" horiz-adv-x="825" 
d="M246 353c0 -106 40.332 -189.664 120.999 -250.997v-102h-330v153h105c-30.667 22.667 -56.167 53.667 -76.5 93s-30.5 81 -30.5 125v6c0 99.333 35.167 182.166 105.5 248.499s160.833 99.5 271.5 99.5c112.667 0 203.834 -31.833 273.501 -95.5
s104.5 -146.5 104.5 -248.5v-6c0 -46.667 -10.167 -89.834 -30.5 -129.501s-45.833 -70.5 -76.5 -92.5h105v-153h-331v102c81.333 60 122 143.667 122 251v8c0 64 -14.5 114 -43.5 150s-70.167 54 -123.5 54s-94.333 -17.833 -123 -53.5s-43 -85.834 -43 -150.501v-8z
M-73.001 716.003h180l-105 -166h-128z" />
    <glyph glyph-name="iotadieresistonos" unicode="&#x390;" horiz-adv-x="295" 
d="M58 523h179v-523h-179v523zM140 770h135l-83 -178h-98zM338 587c-21.333 0 -39.333 7.16699 -54 21.5s-22 31.833 -22 52.5c0 20 7.33301 37.333 22 52s32.667 22 54 22s39.333 -7.33301 54 -22s22 -32 22 -52c0 -20.667 -7.33301 -38.167 -22 -52.5
s-32.667 -21.5 -54 -21.5zM3 587c-21.333 0 -39.333 7.16699 -54 21.5s-22 31.833 -22 52.5c0 20 7.33301 37.333 22 52s32.667 22 54 22s39.333 -7.33301 54 -22s22 -32 22 -52c0 -20.667 -7.33301 -38.167 -22 -52.5s-32.667 -21.5 -54 -21.5z" />
    <glyph glyph-name="Alpha" unicode="&#x391;" horiz-adv-x="747" 
d="M246 715h265l227 -715h-217l-38 133h-237l-38 -133h-191zM286 274h157l-78 275z" />
    <glyph glyph-name="Beta" unicode="&#x392;" horiz-adv-x="679" 
d="M73 715h319c82 0 143.333 -17.333 184 -52c38 -32 57 -77 57 -135v-4c0 -82 -40.333 -133.333 -121 -154c95.333 -16 143 -71.667 143 -167v-4c0 -132.667 -86.667 -199 -260 -199h-322v715zM358 137c63.333 0 95 27.667 95 83v4c0 28 -8 48.667 -24 62
s-41.667 20 -77 20h-79v-169h85zM351 431c32 0 54.667 5.66699 68 17s20 30 20 56v4c0 24.667 -6.83301 42.667 -20.5 54s-36.167 17 -67.5 17h-78v-148h78z" />
    <glyph glyph-name="Gamma" unicode="&#x393;" horiz-adv-x="568" 
d="M69 715h478v-159h-272v-556h-206v715z" />
    <glyph glyph-name="uni0394" unicode="&#x394;" horiz-adv-x="758" 
d="M20 23l219 692h283l216 -692v-23h-718v23zM247 158h242l-120 413z" />
    <glyph glyph-name="Epsilon" unicode="&#x395;" horiz-adv-x="612" 
d="M73 715h494v-158h-290v-123h231v-146h-231v-130h306v-158h-510v715z" />
    <glyph glyph-name="Zeta" unicode="&#x396;" horiz-adv-x="627" 
d="M17 23l304 535h-265v157h556v-22l-300 -535h285v-158h-580v23z" />
    <glyph glyph-name="Eta" unicode="&#x397;" horiz-adv-x="784" 
d="M73 715h206v-273h235v273h205v-715h-205v282h-235v-282h-206v715z" />
    <glyph glyph-name="Theta" unicode="&#x398;" horiz-adv-x="834" 
d="M414 -12c-118 0 -211.333 33 -280 99s-103 154.667 -103 266v8c0 110.667 36.167 199 108.5 265s164.833 99 277.5 99c114.667 0 207.667 -31.833 279 -95.5s107 -151.5 107 -263.5v-8c0 -113.333 -35.167 -203.333 -105.5 -270s-164.833 -100 -283.5 -100zM418 145
c54 0 96.5 18.8311 127.5 56.498s46.5 88.834 46.5 153.501v8c0 64 -15.667 114.333 -47 151s-74 55 -128 55s-96.5 -18.167 -127.5 -54.5s-46.5 -87.166 -46.5 -152.499v-8c0 -64.667 15.833 -115.667 47.5 -153s74.167 -56 127.5 -56zM322 423.998h190v-128h-190v128z" />
    <glyph glyph-name="Iota" unicode="&#x399;" horiz-adv-x="352" 
d="M77 715h207v-715h-207v715z" />
    <glyph glyph-name="Kappa" unicode="&#x39a;" horiz-adv-x="726" 
d="M73 715h206v-283l215 283h214l-262 -332l276 -383h-237l-206 299v-299h-206v715z" />
    <glyph glyph-name="Lambda" unicode="&#x39b;" horiz-adv-x="729" 
d="M716 0h-220l-145 496l-146 -496h-192l232 715h238z" />
    <glyph glyph-name="Mu" unicode="&#x39c;" horiz-adv-x="942" 
d="M73 715h267l137 -381l137 381h262v-715h-204v445l-175 -445h-68l-173 445v-445h-183v715z" />
    <glyph glyph-name="Nu" unicode="&#x39d;" horiz-adv-x="777" 
d="M73 715h231l229 -403v403h179v-715h-198l-261 449v-449h-180v715z" />
    <glyph glyph-name="Xi" unicode="&#x39e;" horiz-adv-x="623" 
d="M584 715v-163h-544v163h544zM536 435v-152h-449v152h449zM33 164h557v-164h-557v164z" />
    <glyph glyph-name="Omicron" unicode="&#x39f;" horiz-adv-x="819" 
d="M414 149c50.667 0 90.667 18.333 120 55s44 87 44 151v8c0 63.333 -14.833 112.833 -44.5 148.5s-69.834 53.5 -120.501 53.5c-51.333 0 -91.5 -17.667 -120.5 -53s-43.5 -85.333 -43.5 -150v-8c0 -64.667 14.833 -115 44.5 -151s69.834 -54 120.501 -54zM410 -12
c-113.333 0 -204.667 34 -274 102c-67.333 66 -101 153.667 -101 263v8c0 107.333 36.333 195.333 109 264c70.667 66.667 160.334 100 269.001 100c110 0 200.667 -32 272 -96c71.333 -67.333 107 -155 107 -263v-8c0 -112 -34.667 -201 -104 -267
c-70.667 -68.667 -163.334 -103 -278.001 -103z" />
    <glyph glyph-name="Pi" unicode="&#x3a0;" horiz-adv-x="777" 
d="M69 715h639v-715h-205v550h-228v-550h-206v715z" />
    <glyph glyph-name="Rho" unicode="&#x3a1;" horiz-adv-x="652" 
d="M73 715l272 -0.000976562c96.667 0 168.667 -20.5 216 -61.5s71 -100.167 71 -177.5v-4c0 -75.333 -23.833 -132.666 -71.5 -171.999s-116.5 -59 -206.5 -59h-77v-241h-204v715zM336 380.999c67.333 0 101 30 101 90v4c0 57.333 -33.333 86 -100 86h-60v-180h59z" />
    <glyph glyph-name="Sigma" unicode="&#x3a3;" horiz-adv-x="609" 
d="M42 561v154h519v-154h-283l162 -190l-162 -209h298v-162h-538v131l175 228z" />
    <glyph glyph-name="Tau" unicode="&#x3a4;" horiz-adv-x="618" 
d="M210 557h-185v158h576v-158h-185v-557h-206v557z" />
    <glyph glyph-name="Upsilon" unicode="&#x3a5;" horiz-adv-x="677" 
d="M245 306l-233 409h223l121 -241l121 241h196l-222 -409v-306h-206v306z" />
    <glyph glyph-name="Phi" unicode="&#x3a6;" horiz-adv-x="955" 
d="M384 42c-111.333 5.33301 -198 37.5049 -260 96.5049s-93 132.5 -93 220.5v6c0 87.333 32.333 160.166 97 218.499s150 90.833 256 97.5v61h186v-61c108 -6.66699 194 -37.834 258 -93.501s96 -127.834 96 -216.501v-7c0 -90.667 -31 -165.334 -93 -224.001
s-149 -91.334 -261 -98.001v-69h-186v69zM234 360.005c0 -46 12.832 -83.5 38.499 -112.5s62.834 -47.167 111.501 -54.5v338c-100 -14.667 -150 -69.667 -150 -165v-6zM720.999 367.005c0 45.333 -12.833 82.168 -38.5 110.501s-63.167 46.166 -112.5 53.499v-339
c49.333 7.33301 86.833 25.5 112.5 54.5s38.5 66.833 38.5 113.5v7z" />
    <glyph glyph-name="Chi" unicode="&#x3a7;" horiz-adv-x="755" 
d="M247 368l-204 347h233l112 -213l110 213h210l-192 -340l221 -375h-234l-133 246l-133 -246h-211z" />
    <glyph glyph-name="Psi" unicode="&#x3a8;" horiz-adv-x="897" 
d="M358 164c-103.333 5.33301 -181.166 34.665 -233.499 87.998s-78.5 123.333 -78.5 210v253h195v-239c0 -48 9 -84.5 27 -109.5s48 -40.167 90 -45.5v394h186v-392c41.333 8 72.166 24.333 92.499 49s30.5 62 30.5 112v231h185v-239
c0 -89.333 -25.5 -161.166 -76.5 -215.499s-128.167 -86.166 -231.5 -95.499v-165h-186v164z" />
    <glyph glyph-name="uni03A9" unicode="&#x3a9;" horiz-adv-x="825" 
d="M246 353c0 -106 40.332 -189.664 120.999 -250.997v-102h-330v153h105c-30.667 22.667 -56.167 53.667 -76.5 93s-30.5 81 -30.5 125v6c0 99.333 35.167 182.166 105.5 248.499s160.833 99.5 271.5 99.5c112.667 0 203.834 -31.833 273.501 -95.5
s104.5 -146.5 104.5 -248.5v-6c0 -46.667 -10.167 -89.834 -30.5 -129.501s-45.833 -70.5 -76.5 -92.5h105v-153h-331v102c81.333 60 122 143.667 122 251v8c0 64 -14.5 114 -43.5 150s-70.167 54 -123.5 54s-94.333 -17.833 -123 -53.5s-43 -85.834 -43 -150.501v-8z" />
    <glyph glyph-name="Iotadieresis" unicode="&#x3aa;" horiz-adv-x="352" 
d="M77 715h207v-715h-207v715zM68 758c-24 0 -44 8 -60 24c-16.667 15.333 -25 35 -25 59c0 23.333 8.33301 43.166 25 59.499s36.667 24.5 60 24.5c24 0 44.333 -8.16699 61 -24.5s25 -36.166 25 -59.499s-8.33301 -43 -25 -59s-37 -24 -61 -24zM291 758
c-24 0 -44.167 8 -60.5 24s-24.5 35.667 -24.5 59s8.16699 43.166 24.5 59.499s36.5 24.5 60.5 24.5s44.333 -8.16699 61 -24.5s25 -36.166 25 -59.499s-8.33301 -43 -25 -59s-37 -24 -61 -24z" />
    <glyph glyph-name="Upsilondieresis" unicode="&#x3ab;" horiz-adv-x="677" 
d="M245 306l-233 409h223l121 -241l121 241h196l-222 -409v-306h-206v306zM240 758c-24 0 -44 8 -60 24c-16.667 15.333 -25 35 -25 59c0 23.333 8.33301 43.166 25 59.499s36.667 24.5 60 24.5c24 0 44.333 -8.16699 61 -24.5s25 -36.166 25 -59.499s-8.33301 -43 -25 -59
s-37 -24 -61 -24zM463 758c-24 0 -44.167 8 -60.5 24s-24.5 35.667 -24.5 59s8.16699 43.166 24.5 59.499s36.5 24.5 60.5 24.5s44.333 -8.16699 61 -24.5s25 -36.166 25 -59.499s-8.33301 -43 -25 -59s-37 -24 -61 -24z" />
    <glyph glyph-name="alphatonos" unicode="&#x3ac;" horiz-adv-x="634" 
d="M306 125c30.667 0 55.167 11.499 73.5 34.499s27.5 56.167 27.5 99.5v8c0 44.667 -8.66699 78.334 -26 101.001s-41.333 34 -72 34c-66.667 0 -100 -45.333 -100 -136v-8c0 -43.333 8.5 -76.333 25.5 -99s40.833 -34 71.5 -34zM245 -12.001
c-62 0 -113.832 23.1689 -155.499 69.502s-62.5 112.5 -62.5 198.5v8c0 85.333 21.167 152.166 63.5 200.499s94.166 72.5 155.499 72.5c70 0 122 -29 156 -87v73h179v-523h-179v84c-14.667 -28.667 -35.5 -51.834 -62.5 -69.501s-58.5 -26.5 -94.5 -26.5zM322.001 749.001
h180l-105 -166h-128z" />
    <glyph glyph-name="epsilontonos" unicode="&#x3ad;" horiz-adv-x="578" 
d="M139 273c-28.667 6 -52.668 19.167 -72.001 39.5s-29 44.833 -29 73.5c0 44 20.167 80.167 60.5 108.5s104.5 42.5 192.5 42.5c74 0 134.333 -14 181 -42s73.667 -72 81 -132h-168c-4 37.333 -32 56 -84 56c-53.333 0 -80 -17.667 -80 -53c0 -31.333 18.333 -47 55 -47
h96v-101h-95c-46 0 -69 -17.333 -69 -52c0 -36 30.667 -54 92 -54c58.667 0 90.334 20.667 95.001 62h163c-11.333 -124 -100 -186 -266 -186c-88.667 0 -155.167 13.833 -199.5 41.5s-66.5 67.167 -66.5 118.5c0 32 9.83301 59 29.5 81s47.5 36.667 83.5 44zM294.999 749
h180l-105 -166h-128z" />
    <glyph glyph-name="etatonos" unicode="&#x3ae;" horiz-adv-x="624" 
d="M53 523l179.001 0.000976562v-84c33.333 65.333 90.666 98 171.999 98c52 0 93.5 -16.667 124.5 -50s46.5 -82.333 46.5 -147v-515h-179v479c0 58.667 -25 88 -75 88c-27.333 0 -49 -8.33301 -65 -25s-24 -41.334 -24 -74.001v-293h-179v523zM302.001 749.001h180
l-105 -166h-128z" />
    <glyph glyph-name="iotatonos" unicode="&#x3af;" horiz-adv-x="295" 
d="M58 523h179v-523h-179v523zM141 749h180l-105 -166h-128z" />
    <glyph glyph-name="upsilondieresistonos" unicode="&#x3b0;" horiz-adv-x="615" 
d="M307 -12c-84 0 -148.332 22 -192.999 66s-67 103.667 -67 179v290h179v-300c0 -66.667 27.333 -100 82 -100c54 0 81 32.667 81 98v302h179v-287c0 -78 -22.333 -138.833 -67 -182.5s-109.334 -65.5 -194.001 -65.5zM282.001 770h135l-83 -178h-98zM480.001 587
c-21.333 0 -39.333 7.16699 -54 21.5s-22 31.833 -22 52.5c0 20 7.33301 37.333 22 52s32.667 22 54 22s39.333 -7.33301 54 -22s22 -32 22 -52c0 -20.667 -7.33301 -38.167 -22 -52.5s-32.667 -21.5 -54 -21.5zM145.001 587c-21.333 0 -39.333 7.16699 -54 21.5
s-22 31.833 -22 52.5c0 20 7.33301 37.333 22 52s32.667 22 54 22s39.333 -7.33301 54 -22s22 -32 22 -52c0 -20.667 -7.33301 -38.167 -22 -52.5s-32.667 -21.5 -54 -21.5z" />
    <glyph glyph-name="alpha" unicode="&#x3b1;" horiz-adv-x="634" 
d="M306 125c30.667 0 55.167 11.499 73.5 34.499s27.5 56.167 27.5 99.5v8c0 44.667 -8.66699 78.334 -26 101.001s-41.333 34 -72 34c-66.667 0 -100 -45.333 -100 -136v-8c0 -43.333 8.5 -76.333 25.5 -99s40.833 -34 71.5 -34zM245 -12.001
c-62 0 -113.832 23.1689 -155.499 69.502s-62.5 112.5 -62.5 198.5v8c0 85.333 21.167 152.166 63.5 200.499s94.166 72.5 155.499 72.5c70 0 122 -29 156 -87v73h179v-523h-179v84c-14.667 -28.667 -35.5 -51.834 -62.5 -69.501s-58.5 -26.5 -94.5 -26.5z" />
    <glyph glyph-name="beta" unicode="&#x3b2;" horiz-adv-x="635" 
d="M303 463c36.667 -1.33301 64.167 5.99902 82.5 21.999s27.5 38 27.5 66v5c0 24 -8 43.333 -24 58s-38 22 -66 22s-50.167 -9.16699 -66.5 -27.5s-24.5 -44.166 -24.5 -77.499v-291c0 -36 9.83301 -64 29.5 -84s42.5 -30 68.5 -30c29.333 0 53.166 9 71.499 27
s27.5 44.667 27.5 80v6c0 33.333 -10.667 58.833 -32 76.5s-52.666 25.5 -93.999 23.5v124zM461 412.999c46 -11.333 82.5 -33.832 109.5 -67.499s40.5 -74.5 40.5 -122.5v-7c0 -66 -21.333 -119.667 -64 -161s-97.334 -62 -164.001 -62c-32 0 -61.667 7.5 -89 22.5
s-48 36.167 -62 63.5v-254h-179v696c0 79.333 24.333 139.166 73 179.499s113.334 60.5 194.001 60.5c76.667 0 138.5 -17 185.5 -51s70.5 -80.667 70.5 -140v-4c0 -35.333 -10.5 -67 -31.5 -95s-48.833 -47.333 -83.5 -58z" />
    <glyph glyph-name="gamma" unicode="&#x3b3;" horiz-adv-x="611" 
d="M432 523h172l-209 -516v-182h-178v182l-210 516h193l116 -325z" />
    <glyph glyph-name="delta" unicode="&#x3b4;" horiz-adv-x="619" 
d="M108 753l433.001 -0.000976562v-136h-201l132 -133c44 -44 75.333 -82.167 94 -114.5s28 -70.833 28 -115.5v-8c0 -75.333 -27.333 -137.166 -82 -185.499s-122.334 -72.5 -203.001 -72.5c-82 0 -149.833 23.167 -203.5 69.5s-80.5 108.5 -80.5 186.5v7
c0 63.333 20 117.333 60 162s92 67 156 67c12.667 0 23.667 -1.66699 33 -5l-166 165v113zM412.001 254.999c0 38 -9 68 -27 90s-43 33 -75 33c-33.333 0 -58.666 -10.667 -75.999 -32s-26 -51 -26 -89v-7c0 -40 8.5 -71.5 25.5 -94.5s42.5 -34.5 76.5 -34.5
c33.333 0 58.666 11.167 75.999 33.5s26 53.5 26 93.5v7z" />
    <glyph glyph-name="epsilon" unicode="&#x3b5;" horiz-adv-x="578" 
d="M139 273c-28.667 6 -52.668 19.167 -72.001 39.5s-29 44.833 -29 73.5c0 44 20.167 80.167 60.5 108.5s104.5 42.5 192.5 42.5c74 0 134.333 -14 181 -42s73.667 -72 81 -132h-168c-4 37.333 -32 56 -84 56c-53.333 0 -80 -17.667 -80 -53c0 -31.333 18.333 -47 55 -47
h96v-101h-95c-46 0 -69 -17.333 -69 -52c0 -36 30.667 -54 92 -54c58.667 0 90.334 20.667 95.001 62h163c-11.333 -124 -100 -186 -266 -186c-88.667 0 -155.167 13.833 -199.5 41.5s-66.5 67.167 -66.5 118.5c0 32 9.83301 59 29.5 81s47.5 36.667 83.5 44z" />
    <glyph glyph-name="zeta" unicode="&#x3b6;" horiz-adv-x="517" 
d="M259 0c-74 0 -131.5 18.834 -172.5 56.501s-61.5 89.5 -61.5 155.5c0 64.667 20 131.667 60 201s89.333 132 148 188h-173v152h457v-38c-88 -85.333 -161.167 -173.333 -219.5 -264s-87.5 -164.334 -87.5 -221.001c0 -30.667 7.83301 -52.5 23.5 -65.5
s39.167 -19.5 70.5 -19.5h45c53.333 0 93.5 -13 120.5 -39s40.5 -61.333 40.5 -106c0 -38 -9.66699 -87 -29 -147h-139c12 36 18 66.333 18 91c0 37.333 -18.333 56 -55 56h-46z" />
    <glyph glyph-name="eta" unicode="&#x3b7;" horiz-adv-x="624" 
d="M53 523l179.001 0.000976562v-84c33.333 65.333 90.666 98 171.999 98c52 0 93.5 -16.667 124.5 -50s46.5 -82.333 46.5 -147v-515h-179v479c0 58.667 -25 88 -75 88c-27.333 0 -49 -8.33301 -65 -25s-24 -41.334 -24 -74.001v-293h-179v523z" />
    <glyph glyph-name="theta" unicode="&#x3b8;" horiz-adv-x="638" 
d="M599 363c0 -118 -23.5 -210.001 -70.5 -276.001s-116.833 -99 -209.5 -99c-92 0 -161.667 32.5 -209 97.5s-71 155.833 -71 272.5v34c0 114.667 24.833 204.834 74.5 270.501s118.167 98.5 205.5 98.5c88.667 0 157.5 -31.5 206.5 -94.5s73.5 -153.5 73.5 -271.5v-32z
M426 438.999c-1.33301 63.333 -10.332 110.668 -26.999 142.001s-43.334 47 -80.001 47s-63.5 -15.833 -80.5 -47.5s-26.167 -78.834 -27.5 -141.501h215zM320.001 119.001c36 0 62.5 16.168 79.5 48.501s26.167 80.166 27.5 143.499h-216c0.666992 -64 9.5 -112 26.5 -144
s44.5 -48 82.5 -48z" />
    <glyph glyph-name="iota" unicode="&#x3b9;" horiz-adv-x="295" 
d="M58 523h179v-523h-179v523z" />
    <glyph glyph-name="kappa" unicode="&#x3ba;" horiz-adv-x="581" 
d="M232 224v-224h-179v523h179v-218l153 218h187l-181 -245l187 -278h-200z" />
    <glyph glyph-name="lambda" unicode="&#x3bb;" horiz-adv-x="601" 
d="M183 573c-7.33301 19.333 -16.3301 32.832 -26.9971 40.499s-25.334 11.5 -44.001 11.5c-15.333 0 -37 -3.66699 -65 -11v130c30 11.333 69.333 17 118 17c40.667 0 75.667 -10.667 105 -32s54.666 -60.666 75.999 -117.999l163 -436c10 -26.667 25.667 -40 47 -40
c7.33301 0 20.333 1.33301 39 4v-135c-20.667 -8 -50.334 -12 -89.001 -12c-70.667 0 -120 39.333 -148 118l-71 203l-100 -313h-186l204 515z" />
    <glyph glyph-name="uni03BC" unicode="&#x3bc;" horiz-adv-x="625" 
d="M53 523h178.999v-317c0 -57.333 24.667 -86 74 -86c59.333 0 89 33 89 99v304h179v-523h-176v71c-17.333 -47.333 -49.666 -71 -96.999 -71c-30 -0 -53 12.333 -69 37v-212h-179v698z" />
    <glyph glyph-name="nu" unicode="&#x3bd;" horiz-adv-x="593" 
d="M12 523h191l109 -337l107 337h171l-191 -523h-195z" />
    <glyph glyph-name="xi" unicode="&#x3be;" horiz-adv-x="530" 
d="M363 144c52.667 0 92 -13 118 -39s39 -61.333 39 -106c0 -34 -9.33301 -82.667 -28 -146h-139c12 36 18 66.333 18 91c0 37.333 -18.333 56 -55 56h-36c-78 0 -140 18.5 -186 55.5s-69 88.167 -69 153.5c0 46.667 14.167 86.334 42.5 119.001s64.166 53 107.499 61
c-68.667 22.667 -103 64 -103 124c0 57.333 30.667 95.666 92 114.999h-125v125h464v-142h-140c-76 0 -114 -26 -114 -78c0 -22 8.33301 -39.667 25 -53s40.334 -20 71.001 -20h113v-147h-136c-76 0 -114 -30.333 -114 -91c0 -52 35.333 -78 106 -78h49z" />
    <glyph glyph-name="omicron" unicode="&#x3bf;" horiz-adv-x="622" 
d="M316 121c68.667 0 103 45.667 103 137v8c0 91.333 -34.333 137 -103 137c-69.333 0 -104 -45 -104 -135v-8c0 -92.667 34.667 -139 104 -139zM315 -12c-82.667 0 -150.333 23.335 -203 70.002c-55.333 48 -83 113.667 -83 197v8c0 82 27.667 148.667 83 200
c52.667 49.333 120.667 74 204 74s151 -24 203 -72c54.667 -50.667 82 -116.334 82 -197.001v-8c0 -82.667 -27.333 -149.334 -82 -200.001c-53.333 -48 -121.333 -72 -204 -72z" />
    <glyph glyph-name="pi" unicode="&#x3c0;" horiz-adv-x="655" 
d="M397 393h-139v-393h-178v393h-66v130h627v-130h-66v-393h-178v393z" />
    <glyph glyph-name="rho" unicode="&#x3c1;" horiz-adv-x="627" 
d="M320 121c66 0 99 45.667 99 137v8c0 91.333 -33.667 137 -101 137c-68.667 0 -103 -45 -103 -135v-8c0 -92.667 35 -139 105 -139zM357 -5c-27.333 0 -54 7.16602 -80 21.499s-45.667 33.833 -59 58.5v-250h-180v439c0 82.667 26.167 148.834 78.5 198.501
s119.5 74.5 201.5 74.5s149.833 -24.5 203.5 -73.5s80.5 -114.167 80.5 -195.5v-8c0 -81.333 -23.167 -145.833 -69.5 -193.5s-104.833 -71.5 -175.5 -71.5z" />
    <glyph glyph-name="uni03C2" unicode="&#x3c2;" horiz-adv-x="583" 
d="M208 263c0 -38 9.33301 -68 28 -90s47.334 -33 86.001 -33h26c54.667 0 96.5 -12.667 125.5 -38s43.5 -59.666 43.5 -102.999c0 -36 -9.66699 -84.667 -29 -146h-139c12.667 43.333 19 74.333 19 93c0 36 -18.333 54 -55 54h-20c-78.667 0 -143 23.167 -193 69.5
s-75 108.166 -75 185.499v8c0 84 26.5 150.667 79.5 200s119.5 74 199.5 74c70.667 0 129.667 -17.167 177 -51.5s73.666 -88.833 78.999 -163.5h-169c-8 50.667 -37 76 -87 76c-30 0 -53.5 -11 -70.5 -33s-25.5 -53 -25.5 -93v-9z" />
    <glyph glyph-name="sigma" unicode="&#x3c3;" horiz-adv-x="649" 
d="M311 -12c-82.667 0 -150.999 23.999 -204.999 71.999s-81 113 -81 195v8c0 82 26 145.833 78 191.5s120.333 68.5 205 68.5h326v-130h-118c24 -12 42.833 -30.667 56.5 -56s20.5 -52.666 20.5 -81.999v-7c0 -80 -26.333 -143.333 -79 -190s-120.334 -70 -203.001 -70z
M312.001 120.999c68.667 0 103 45.667 103 137v9c0 89.333 -34.333 134 -103 134c-69.333 0 -104 -43.667 -104 -131v-10c0 -92.667 34.667 -139 104 -139z" />
    <glyph glyph-name="tau" unicode="&#x3c4;" horiz-adv-x="496" 
d="M334 -8c-122.667 0 -184 65 -184 195v206h-136v130h460v-130h-144v-190c0 -26 5.16699 -44.667 15.5 -56s27.166 -17 50.499 -17c18.667 0 37.334 2.33301 56.001 7v-134c-30.667 -7.33301 -70 -11 -118 -11z" />
    <glyph glyph-name="upsilon" unicode="&#x3c5;" horiz-adv-x="615" 
d="M307 -12c-84 0 -148.332 22 -192.999 66s-67 103.667 -67 179v290h179v-300c0 -66.667 27.333 -100 82 -100c54 0 81 32.667 81 98v302h179v-287c0 -78 -22.333 -138.833 -67 -182.5s-109.334 -65.5 -194.001 -65.5z" />
    <glyph glyph-name="phi" unicode="&#x3c6;" horiz-adv-x="828" 
d="M803 263c0 -86 -27.499 -152 -82.499 -198s-127.833 -69.667 -218.5 -71v-169h-177v169c-92.667 1.33301 -165.834 24.5 -219.501 69.5s-80.5 110.167 -80.5 195.5v8c0 73.333 21.333 133.166 64 179.499s103.667 74.5 183 84.5v-132
c-24 -9.33301 -41.667 -24.833 -53 -46.5s-17 -51.5 -17 -89.5v-8c0 -42.667 9.5 -75.167 28.5 -97.5s50.5 -35.166 94.5 -38.499v411c31.333 4.66699 74.333 7 129 7c108 0 193.167 -24.167 255.5 -72.5s93.5 -112.833 93.5 -193.5v-8zM626.001 269
c0 90.667 -41.333 136.334 -124 137.001v-287c45.333 1.33301 77.333 14.166 96 38.499s28 58.833 28 103.5v8z" />
    <glyph glyph-name="chi" unicode="&#x3c7;" horiz-adv-x="596" 
d="M196 194l-88.001 160c-13.333 24 -32.333 36 -57 36c-10.667 0 -23 -2.33301 -37 -7v130c27.333 13.333 59 20 95 20c34 0 62.333 -6.16699 85 -18.5s42.334 -34.5 59.001 -66.5l64 -124l87 199h181l-180 -343l103 -182c13.333 -24 31 -36 53 -36
c11.333 0 22 1.33301 32 4v-133c-26 -9.33301 -56.667 -14 -92 -14c-63.333 0 -113 34.333 -149 103l-68 130l-105 -227h-174z" />
    <glyph glyph-name="psi" unicode="&#x3c8;" horiz-adv-x="833" 
d="M221 253c0 -79.333 35.668 -122 107.001 -128v398h177v-398c71.333 6.66699 107 49.334 107 128.001v270h178v-267c0 -82 -26.333 -145.333 -79 -190s-121.334 -68.334 -206.001 -71.001v-170h-177v170c-88 2.66699 -157.5 25.667 -208.5 69s-76.5 107.333 -76.5 192v267
h178v-270z" />
    <glyph glyph-name="omega" unicode="&#x3c9;" horiz-adv-x="830" 
d="M503 210c0 -60 18.666 -89.998 55.999 -89.998c42.667 0 64 41.333 64 124v8c0 43.333 -6.66699 78 -20 104s-37 42.667 -71 50v131c88.667 -5.33301 156.334 -33.333 203.001 -84s70 -118 70 -202v-8c0 -76.667 -19.833 -138.334 -59.5 -185.001s-94.167 -70 -163.5 -70
c-79.333 0 -135 35.333 -167 106c-12 -30 -32 -55.167 -60 -75.5s-63.333 -30.5 -106 -30.5c-71.333 0 -126.5 23.167 -165.5 69.5s-58.5 108.166 -58.5 185.499v8c0 84 23.5 151.333 70.5 202s114.5 78.667 202.5 84v-131c-60 -13.333 -90 -64.333 -90 -153v-8
c0 -83.333 21.333 -125 64 -125c36.667 0 55 30 55 90v139h176v-139z" />
    <glyph glyph-name="iotadieresis" unicode="&#x3ca;" horiz-adv-x="295" 
d="M58 523h179v-523h-179v523zM45 580c-24 0 -44 7.99902 -60 23.999c-16.667 15.333 -25 35 -25 59c0 23.333 8.33301 43.333 25 60c16 16 36 24 60 24s44.333 -8.16699 61 -24.5s25 -36.166 25 -59.499s-8.33301 -43 -25 -59s-37 -24 -61 -24zM258 579.999
c-24 0 -44.167 8 -60.5 24s-24.5 35.667 -24.5 59s8.16699 43.166 24.5 59.499s36.5 24.5 60.5 24.5s44.333 -8.16699 61 -24.5s25 -36.166 25 -59.499s-8.33301 -43 -25 -59s-37 -24 -61 -24z" />
    <glyph glyph-name="upsilondieresis" unicode="&#x3cb;" horiz-adv-x="615" 
d="M307 -12c-84 0 -148.332 22 -192.999 66s-67 103.667 -67 179v290h179v-300c0 -66.667 27.333 -100 82 -100c54 0 81 32.667 81 98v302h179v-287c0 -78 -22.333 -138.833 -67 -182.5s-109.334 -65.5 -194.001 -65.5zM204.001 580c-24 0 -44 7.99902 -60 23.999
c-16.667 15.333 -25 35 -25 59c0 23.333 8.33301 43.333 25 60c16 16 36 24 60 24s44.333 -8.16699 61 -24.5s25 -36.166 25 -59.499s-8.33301 -43 -25 -59s-37 -24 -61 -24zM417.001 579.999c-24 0 -44.167 8 -60.5 24s-24.5 35.667 -24.5 59s8.16699 43.166 24.5 59.499
s36.5 24.5 60.5 24.5s44.333 -8.16699 61 -24.5s25 -36.166 25 -59.499s-8.33301 -43 -25 -59s-37 -24 -61 -24z" />
    <glyph glyph-name="omicrontonos" unicode="&#x3cc;" horiz-adv-x="622" 
d="M316 121c68.667 0 103 45.667 103 137v8c0 91.333 -34.333 137 -103 137c-69.333 0 -104 -45 -104 -135v-8c0 -92.667 34.667 -139 104 -139zM315 -12c-82.667 0 -150.333 23.335 -203 70.002c-55.333 48 -83 113.667 -83 197v8c0 82 27.667 148.667 83 200
c52.667 49.333 120.667 74 204 74s151 -24 203 -72c54.667 -50.667 82 -116.334 82 -197.001v-8c0 -82.667 -27.333 -149.334 -82 -200.001c-53.333 -48 -121.333 -72 -204 -72zM303.001 749.002h180l-105 -166h-128z" />
    <glyph glyph-name="upsilontonos" unicode="&#x3cd;" horiz-adv-x="615" 
d="M307 -12c-84 0 -148.332 22 -192.999 66s-67 103.667 -67 179v290h179v-300c0 -66.667 27.333 -100 82 -100c54 0 81 32.667 81 98v302h179v-287c0 -78 -22.333 -138.833 -67 -182.5s-109.334 -65.5 -194.001 -65.5zM298.001 749h180l-105 -166h-128z" />
    <glyph glyph-name="omegatonos" unicode="&#x3ce;" horiz-adv-x="830" 
d="M503 210c0 -60 18.666 -89.998 55.999 -89.998c42.667 0 64 41.333 64 124v8c0 43.333 -6.66699 78 -20 104s-37 42.667 -71 50v131c88.667 -5.33301 156.334 -33.333 203.001 -84s70 -118 70 -202v-8c0 -76.667 -19.833 -138.334 -59.5 -185.001s-94.167 -70 -163.5 -70
c-79.333 0 -135 35.333 -167 106c-12 -30 -32 -55.167 -60 -75.5s-63.333 -30.5 -106 -30.5c-71.333 0 -126.5 23.167 -165.5 69.5s-58.5 108.166 -58.5 185.499v8c0 84 23.5 151.333 70.5 202s114.5 78.667 202.5 84v-131c-60 -13.333 -90 -64.333 -90 -153v-8
c0 -83.333 21.333 -125 64 -125c36.667 0 55 30 55 90v139h176v-139zM408.999 749.002h180l-105 -166h-128z" />
    <glyph glyph-name="uni0401" unicode="&#x401;" horiz-adv-x="612" 
d="M73 715h494v-158h-290v-123h231v-146h-231v-130h306v-158h-510v715zM215 758c-24 0 -44 8 -60 24c-16.667 15.333 -25 35 -25 59c0 23.333 8.33301 43.166 25 59.499s36.667 24.5 60 24.5c24 0 44.333 -8.16699 61 -24.5s25 -36.166 25 -59.499s-8.33301 -43 -25 -59
s-37 -24 -61 -24zM438 758c-24 0 -44.167 8 -60.5 24s-24.5 35.667 -24.5 59s8.16699 43.166 24.5 59.499s36.5 24.5 60.5 24.5s44.333 -8.16699 61 -24.5s25 -36.166 25 -59.499s-8.33301 -43 -25 -59s-37 -24 -61 -24z" />
    <glyph glyph-name="uni0402" unicode="&#x402;" horiz-adv-x="831" 
d="M412 404c12.667 9.33301 26.999 17.334 42.999 24.001c37.333 16 78.333 24 123 24c75.333 0 131.333 -21.333 168 -64s55 -99.334 55 -170.001c0 -160 -76 -240 -228 -240c-44 0 -80.667 7.66699 -110 23v153c24.667 -9.33301 47 -14 67 -14c44 0 66 25.667 66 77
c0 49.333 -29.667 74 -89 74c-25.333 0 -48.666 -5.33301 -69.999 -16c-12 -6.66699 -20.333 -11.667 -25 -15v-260h-206v557h-185v158h576v-158h-185v-153z" />
    <glyph glyph-name="uni0403" unicode="&#x403;" horiz-adv-x="569" 
d="M289 905h187l-103 -146h-135zM69 715h473v-159h-267v-556h-206v715z" />
    <glyph glyph-name="uni0404" unicode="&#x404;" horiz-adv-x="759" 
d="M738 264c-10 -90 -44.3311 -158.501 -102.998 -205.501s-135.334 -70.5 -230.001 -70.5c-122.667 0 -215.5 32.5 -278.5 97.5s-94.5 154.167 -94.5 267.5v8c0 108.667 34.333 196.667 103 264s156 101 262 101c96 0 172.833 -22.167 230.5 -66.5
s91.5 -112.166 101.5 -203.499h-211c-10.667 72 -50.667 108 -120 108c-36 0 -66.333 -10.833 -91 -32.5s-41.667 -53.167 -51 -94.5h234v-150h-236c16.667 -90 65.667 -135 147 -135c77.333 0 121.666 37.333 132.999 112h204z" />
    <glyph glyph-name="uni0405" unicode="&#x405;" horiz-adv-x="647" 
d="M335 -12c-198 0 -300.668 79.668 -308.001 239.001h195c3.33301 -30 12.333 -51.667 27 -65c17.333 -18.667 46 -28 86 -28c29.333 0 52 6.33301 68 19s24 30 24 52c0 20.667 -8 36.334 -24 47.001c-13.333 7.33301 -43 14.666 -89 21.999
c-101.333 12 -171.333 35 -210 69c-40 33.333 -60 86.333 -60 159c0 65.333 24.667 118.666 74 159.999c50.667 42 118.334 63 203.001 63c175.333 0 269.333 -74.333 282 -223h-190c-7.33301 51.333 -38 77 -92 77c-27.333 0 -48 -5.5 -62 -16.5s-21 -25.833 -21 -44.5
c0 -20 7.66699 -35 23 -45c16 -12 45.333 -20.333 88 -25c96 -11.333 164.333 -31.333 205 -60c46 -36 69 -90 69 -162c0 -68 -25 -124 -75 -168c-53.333 -46.667 -124.333 -70 -213 -70z" />
    <glyph glyph-name="uni0406" unicode="&#x406;" horiz-adv-x="352" 
d="M77 715h207v-715h-207v715z" />
    <glyph glyph-name="uni0407" unicode="&#x407;" horiz-adv-x="352" 
d="M77 715h207v-715h-207v715zM68 758c-24 0 -44 8 -60 24c-16.667 15.333 -25 35 -25 59c0 23.333 8.33301 43.166 25 59.499s36.667 24.5 60 24.5c24 0 44.333 -8.16699 61 -24.5s25 -36.166 25 -59.499s-8.33301 -43 -25 -59s-37 -24 -61 -24zM291 758
c-24 0 -44.167 8 -60.5 24s-24.5 35.667 -24.5 59s8.16699 43.166 24.5 59.499s36.5 24.5 60.5 24.5s44.333 -8.16699 61 -24.5s25 -36.166 25 -59.499s-8.33301 -43 -25 -59s-37 -24 -61 -24z" />
    <glyph glyph-name="uni0408" unicode="&#x408;" horiz-adv-x="478" 
d="M167 -9c-56 0 -99.333 8 -130 24v153c28 -9.33301 57 -14 87 -14c62 0 93 33 93 99v462h206v-464c0 -173.333 -85.333 -260 -256 -260z" />
    <glyph glyph-name="uni0409" unicode="&#x409;" horiz-adv-x="1053" 
d="M480 555l-155 0.00195312c-4.66699 -132.667 -8 -208 -10 -226c-3.33301 -44 -8 -82.667 -14 -116s-14.667 -64.666 -26 -93.999s-25.333 -53.333 -42 -72s-37.334 -33.334 -62.001 -44.001s-53 -16 -85 -16c-7.33301 0 -14.666 0.5 -21.999 1.5s-13.5 2 -18.5 3
s-9.5 2.16699 -13.5 3.5l-9 3l-3 2v159c0 -0.666992 1.66699 -1.33398 5 -2.00098c5.33301 -1.33301 11 -2 17 -2c48 0 78.333 63.333 91 190c4.66699 55.333 7 178.666 7 369.999h544v-251h67c90.667 0 159.667 -19 207 -57s71 -94.333 71 -169v-4
c0 -156 -95.667 -234 -287 -234h-262v555zM734 154.002c33.333 0 58.333 6.16797 75 18.501s25 33.166 25 62.499v4c0 56.667 -33.667 85 -101 85h-49v-170h50z" />
    <glyph glyph-name="uni040A" unicode="&#x40a;" horiz-adv-x="1053" 
d="M734 154c33.333 0 58.333 6.16797 75 18.501s25 33.166 25 62.499v4c0 56.667 -33.667 85 -101 85h-49v-170h50zM480 282.001h-205v-282h-206v715h206v-273h205v273h204v-251h67c90.667 0 159.667 -19 207 -57s71 -94.333 71 -169v-4c0 -156 -95.667 -234 -287 -234h-262
v282z" />
    <glyph glyph-name="uni040B" unicode="&#x40b;" horiz-adv-x="841" 
d="M412 404c12.667 9.33301 26.999 17.333 42.999 24c37.333 16 78.333 24 123 24c76 0 132.167 -21.833 168.5 -65.5s54.5 -103.5 54.5 -179.5v-207h-205v191c0 34.667 -6.33301 60 -19 76s-36 24 -70 24c-25.333 0 -48.666 -5.33301 -69.999 -16
c-12 -6.66699 -20.333 -11.667 -25 -15v-260h-206v557h-185v158h576v-158h-185v-153z" />
    <glyph glyph-name="uni040C" unicode="&#x40c;" horiz-adv-x="726" 
d="M73 715h206v-283l215 283h214l-262 -332l276 -383h-237l-206 299v-299h-206v715zM357 905h187l-103 -146h-135z" />
    <glyph glyph-name="uni040D" unicode="&#x40d;" horiz-adv-x="799" 
d="M69 0v715h206v-445l250 445h205v-715h-205v452l-250 -452h-206zM245 905h186l49 -146h-135z" />
    <glyph glyph-name="uni040E" unicode="&#x40e;" horiz-adv-x="662" 
d="M347 752c-51.333 0 -90.834 13.333 -118.501 40s-43.167 64.334 -46.5 113.001h121c3.33301 -34 18 -51 44 -51c26.667 0 42.334 17 47.001 51h120c-4 -48.667 -20.5 -86.334 -49.5 -113.001s-68.167 -40 -117.5 -40zM185.999 -10c-34.667 0 -60.333 4.66699 -77 14v159
c22 -6 41.333 -9 58 -9c36 0 66 20 90 60l-249 501h214l128 -280l113 280h199l-236 -533c-19.333 -43.333 -38.5 -78 -57.5 -104s-43.667 -47.167 -74 -63.5s-66.5 -24.5 -108.5 -24.5z" />
    <glyph glyph-name="uni040F" unicode="&#x40f;" horiz-adv-x="774" 
d="M69 0v715h206v-555h225v555h205v-715h-228l-2 -130h-175l-2 130h-229z" />
    <glyph glyph-name="uni0410" unicode="&#x410;" horiz-adv-x="747" 
d="M246 715h265l227 -715h-217l-38 133h-237l-38 -133h-191zM286 274h157l-78 275z" />
    <glyph glyph-name="uni0411" unicode="&#x411;" horiz-adv-x="648" 
d="M628 230c0 -73.333 -23.833 -130 -71.5 -170s-119.5 -60 -215.5 -60h-272v715h492v-158h-287l-1 -103h77c90 0 158.833 -18.833 206.5 -56.5s71.5 -92.167 71.5 -163.5v-4zM333 154c66.667 0 100 25.667 100 77v4c0 52.667 -33.667 79 -101 79h-59v-160h60z" />
    <glyph glyph-name="uni0412" unicode="&#x412;" horiz-adv-x="679" 
d="M73 715h319c82 0 143.333 -17.333 184 -52c38 -32 57 -77 57 -135v-4c0 -82 -40.333 -133.333 -121 -154c95.333 -16 143 -71.667 143 -167v-4c0 -132.667 -86.667 -199 -260 -199h-322v715zM358 137c63.333 0 95 27.667 95 83v4c0 28 -8 48.667 -24 62
s-41.667 20 -77 20h-79v-169h85zM351 431c32 0 54.667 5.66699 68 17s20 30 20 56v4c0 24.667 -6.83301 42.667 -20.5 54s-36.167 17 -67.5 17h-78v-148h78z" />
    <glyph glyph-name="uni0413" unicode="&#x413;" horiz-adv-x="569" 
d="M69 715h473v-159h-267v-556h-206v715z" />
    <glyph glyph-name="uni0414" unicode="&#x414;" horiz-adv-x="765" 
d="M294 340c-7.33301 -76.667 -20.667 -136.666 -40 -179.999h215v395h-165c-4.66699 -124.667 -8 -196.334 -10 -215.001zM170.999 -129.999l-180 0.000976562v290h45c21.333 10 37.833 30.5 49.5 61.5s20.5 74.167 26.5 129.5c4.66699 53.333 7 174.666 7 363.999h555
v-555h91v-290h-180l-5 130h-404z" />
    <glyph glyph-name="uni0415" unicode="&#x415;" horiz-adv-x="612" 
d="M73 715h494v-158h-290v-123h231v-146h-231v-130h306v-158h-510v715z" />
    <glyph glyph-name="uni0416" unicode="&#x416;" horiz-adv-x="1027" 
d="M413 307l-186 -307h-219l245 379l-230 336h208l182 -291v291h201v-290l185 290h205l-233 -329l248 -386h-224l-181 307v-307h-201v307z" />
    <glyph glyph-name="uni0417" unicode="&#x417;" horiz-adv-x="673" 
d="M331 -12c-84 0 -154.167 22.502 -210.5 67.502s-89.5 111.167 -99.5 198.5h194c13.333 -68 53 -102 119 -102c63.333 0 95 25.667 95 77c0 49.333 -28 74 -84 74h-68v131h62c26.667 0 46 5.16699 58 15.5s18 27.5 18 51.5c0 20.667 -7.5 36.334 -22.5 47.001
s-33.5 16 -55.5 16c-32.667 0 -57 -8.33301 -73 -25s-27 -41 -33 -73h-196c10 85.333 41.833 150 95.5 194s123.5 66 209.5 66c84 0 152.167 -18.833 204.5 -56.5s78.5 -84.834 78.5 -141.501c0 -84.667 -40.333 -137.334 -121 -158.001c45.333 -8 80.5 -25.5 105.5 -52.5
s37.5 -62.833 37.5 -107.5c0 -68.667 -28.833 -122.834 -86.5 -162.501s-133.5 -59.5 -227.5 -59.5z" />
    <glyph glyph-name="uni0418" unicode="&#x418;" horiz-adv-x="799" 
d="M69 0v715h206v-445l250 445h205v-715h-205v452l-250 -452h-206z" />
    <glyph glyph-name="uni0419" unicode="&#x419;" horiz-adv-x="799" 
d="M396 752c-51.333 0 -90.834 13.333 -118.501 40s-43.167 64.334 -46.5 113.001h121c3.33301 -34 18 -51 44 -51c26.667 0 42.334 17 47.001 51h120c-4 -48.667 -20.5 -86.334 -49.5 -113.001s-68.167 -40 -117.5 -40zM68.999 0v715h206v-445l250 445h205v-715h-205v452
l-250 -452h-206z" />
    <glyph glyph-name="uni041A" unicode="&#x41a;" horiz-adv-x="726" 
d="M73 715h206v-283l215 283h214l-262 -332l276 -383h-237l-206 299v-299h-206v715z" />
    <glyph glyph-name="uni041B" unicode="&#x41b;" horiz-adv-x="754" 
d="M309 271c-11.333 -94 -33.834 -164.833 -67.501 -212.5s-85.5 -71.5 -155.5 -71.5c-7.33301 0 -14.666 0.5 -21.999 1.5s-13.5 2 -18.5 3s-9.5 2.16699 -13.5 3.5l-9 3l-3 2v159c0 -0.666992 1.66699 -1.33398 5 -2.00098c5.33301 -1.33301 11 -2 17 -2
c24.667 0 44 14 58 42s24 70 30 126c6.66699 50.667 10 181.334 10 392.001h545v-715h-205v555h-155c-4 -138 -9.33301 -232.667 -16 -284z" />
    <glyph glyph-name="uni041C" unicode="&#x41c;" horiz-adv-x="942" 
d="M73 715h267l137 -381l137 381h262v-715h-204v445l-175 -445h-68l-173 445v-445h-183v715z" />
    <glyph glyph-name="uni041D" unicode="&#x41d;" horiz-adv-x="784" 
d="M73 715h206v-273h235v273h205v-715h-205v282h-235v-282h-206v715z" />
    <glyph glyph-name="uni041E" unicode="&#x41e;" horiz-adv-x="819" 
d="M414 149c50.667 0 90.667 18.333 120 55s44 87 44 151v8c0 63.333 -14.833 112.833 -44.5 148.5s-69.834 53.5 -120.501 53.5c-51.333 0 -91.5 -17.667 -120.5 -53s-43.5 -85.333 -43.5 -150v-8c0 -64.667 14.833 -115 44.5 -151s69.834 -54 120.501 -54zM410 -12
c-113.333 0 -204.667 34 -274 102c-67.333 66 -101 153.667 -101 263v8c0 107.333 36.333 195.333 109 264c70.667 66.667 160.334 100 269.001 100c110 0 200.667 -32 272 -96c71.333 -67.333 107 -155 107 -263v-8c0 -112 -34.667 -201 -104 -267
c-70.667 -68.667 -163.334 -103 -278.001 -103z" />
    <glyph glyph-name="uni041F" unicode="&#x41f;" horiz-adv-x="774" 
d="M500 555h-225v-555h-206v715h636v-715h-205v555z" />
    <glyph glyph-name="uni0420" unicode="&#x420;" horiz-adv-x="652" 
d="M73 715l272 -0.000976562c96.667 0 168.667 -20.5 216 -61.5s71 -100.167 71 -177.5v-4c0 -75.333 -23.833 -132.666 -71.5 -171.999s-116.5 -59 -206.5 -59h-77v-241h-204v715zM336 380.999c67.333 0 101 30 101 90v4c0 57.333 -33.333 86 -100 86h-60v-180h59z" />
    <glyph glyph-name="uni0421" unicode="&#x421;" horiz-adv-x="759" 
d="M409 -12c-123.333 0 -216.665 33.333 -279.998 100c-62 62.667 -93 151 -93 265v8c0 108.667 34.667 197 104 265c68 66.667 155 100 261 100c94 0 170.667 -22 230 -66c60 -47.333 94 -117 102 -209h-211c-8 75.333 -48 113 -120 113
c-46.667 0 -83.334 -17.5 -110.001 -52.5s-40 -84.833 -40 -149.5v-8c0 -64.667 13.167 -114.5 39.5 -149.5s64.166 -52.5 113.499 -52.5c78 0 122.333 39 133 117h204c-6.66699 -89.333 -40.667 -159.333 -102 -210c-59.333 -47.333 -136.333 -71 -231 -71z" />
    <glyph glyph-name="uni0422" unicode="&#x422;" horiz-adv-x="618" 
d="M210 557h-185v158h576v-158h-185v-557h-206v557z" />
    <glyph glyph-name="uni0423" unicode="&#x423;" horiz-adv-x="662" 
d="M186 -10c-34.667 0 -60.333 4.66699 -77 14v159c22 -6 41.333 -9 58 -9c36 0 66 20 90 60l-249 501h214l128 -280l113 280h199l-236 -533c-19.333 -43.333 -38.5 -78 -57.5 -104s-43.667 -47.167 -74 -63.5s-66.5 -24.5 -108.5 -24.5z" />
    <glyph glyph-name="uni0424" unicode="&#x424;" horiz-adv-x="935" 
d="M570 651c100.667 -2.66699 181.834 -29.167 243.501 -79.5s92.5 -118.5 92.5 -204.5v-8c0 -86 -31.833 -154 -95.5 -204s-143.834 -76.333 -240.501 -79v-86h-205v86c-100.667 2.66699 -181.834 29.167 -243.501 79.5s-92.5 118.5 -92.5 204.5v8
c0 86 31.833 154 95.5 204s143.834 76.333 240.501 79v84h205v-84zM365 506c-38 -2.66699 -69.667 -15.667 -95 -39s-38 -56 -38 -98v-8c0 -44.667 12.333 -78.5 37 -101.5s56.667 -35.167 96 -36.5v283zM570 221c38.667 1.33301 70.5 13.832 95.5 37.499
s37.5 56.834 37.5 99.501v8c0 86 -44.333 132 -133 138v-283z" />
    <glyph glyph-name="uni0425" unicode="&#x425;" horiz-adv-x="755" 
d="M247 368l-204 347h233l112 -213l110 213h210l-192 -340l221 -375h-234l-133 246l-133 -246h-211z" />
    <glyph glyph-name="uni0426" unicode="&#x426;" horiz-adv-x="795" 
d="M615 -130l-5 130h-541v715h206v-555h225v555h205v-555h90v-290h-180z" />
    <glyph glyph-name="uni0427" unicode="&#x427;" horiz-adv-x="741" 
d="M467 0l-0.00195312 274.001c-11.333 -8 -24.666 -15 -39.999 -21c-32.667 -13.333 -73 -20 -121 -20c-88.667 0 -154 24.667 -196 74s-63 123.333 -63 222v186h205v-186c0 -48.667 8.5 -83.334 25.5 -104.001s43.833 -31 80.5 -31c29.333 0 56 5 80 15
c12.667 6 22.334 11.333 29.001 16v290h205v-715h-205z" />
    <glyph glyph-name="uni0428" unicode="&#x428;" horiz-adv-x="1085" 
d="M69 715h206v-555h165v555h206v-555h165v555h205v-715h-947v715z" />
    <glyph glyph-name="uni0429" unicode="&#x429;" horiz-adv-x="1106" 
d="M926 -130l-5 130h-852v715h206v-555h165v555h206v-555h165v555h205v-555h90v-290h-180z" />
    <glyph glyph-name="uni042A" unicode="&#x42a;" horiz-adv-x="768" 
d="M185 557l-164 -0.000976562v158h368v-241h77c90 0 158.833 -19.667 206.5 -59s71.5 -96.666 71.5 -171.999v-4c0 -77.333 -23.667 -136.5 -71 -177.5s-119.333 -61.5 -216 -61.5h-272v557zM449 153.999c66.667 0 100 28.667 100 86v4c0 60 -33.667 90 -101 90h-59v-180
h60z" />
    <glyph glyph-name="uni042B" unicode="&#x42b;" horiz-adv-x="942" 
d="M873 0h-204v715h204v-715zM69 715l204 -0.000976562v-241h67c90 0 158.833 -19.667 206.5 -59s71.5 -96.666 71.5 -171.999v-4c0 -77.333 -23.667 -136.5 -71 -177.5s-119.333 -61.5 -216 -61.5h-262v715zM323 153.999c66.667 0 100 28.667 100 86v4
c0 60 -33.667 90 -101 90h-49v-180h50z" />
    <glyph glyph-name="uni042C" unicode="&#x42c;" horiz-adv-x="652" 
d="M69 715l204 -0.000976562v-241h77c90 0 158.833 -19.667 206.5 -59s71.5 -96.666 71.5 -171.999v-4c0 -77.333 -23.667 -136.5 -71 -177.5s-119.333 -61.5 -216 -61.5h-272v715zM333 153.999c66.667 0 100 28.667 100 86v4c0 60 -33.667 90 -101 90h-59v-180h60z" />
    <glyph glyph-name="uni042D" unicode="&#x42d;" horiz-adv-x="759" 
d="M354 -12c-94.667 0 -171.331 23.501 -229.998 70.501s-93 115.5 -103 205.5h204c11.333 -74.667 55.666 -112 132.999 -112c79.333 0 128 44.333 146 133h-235v150h236c-8 42.667 -24 74.834 -48 96.501s-53.667 32.5 -89 32.5c-39.333 0 -69 -8.83301 -89 -26.5
s-32.667 -44.834 -38 -81.501h-211c10 91.333 44.333 159.166 103 203.499s137.667 66.5 237 66.5c101.333 0 186.166 -32.667 254.499 -98s102.5 -149 102.5 -251v-8c0 -120 -31.5 -213.5 -94.5 -280.5s-155.833 -100.5 -278.5 -100.5z" />
    <glyph glyph-name="uni042E" unicode="&#x42e;" horiz-adv-x="1094" 
d="M695 -12c-96.667 0 -176.833 26.668 -240.5 80.001s-102.167 124.666 -115.5 213.999h-64v-282h-206v715h206v-273h67c17.333 86 58.5 154.667 123.5 206s142.5 77 232.5 77c105.333 0 192.5 -32.667 261.5 -98s103.5 -152.333 103.5 -261v-8
c0 -110 -33.833 -199.167 -101.5 -267.5s-156.5 -102.5 -266.5 -102.5zM699.001 149.001c46 0 82.501 18.333 109.501 55s40.5 87 40.5 151v8c0 63.333 -13.667 112.833 -41 148.5s-64 53.5 -110 53.5c-46.667 0 -83.334 -17.667 -110.001 -53s-40 -85.333 -40 -150v-8
c0 -64 13.833 -114.167 41.5 -150.5s64.167 -54.5 109.5 -54.5z" />
    <glyph glyph-name="uni042F" unicode="&#x42f;" horiz-adv-x="703" 
d="M363 561c-68 0 -102 -28 -102 -84v-4c0 -60 34.333 -90 103 -90h66v178h-67zM235 0h-216.999l179 294c-41.333 10 -74 31.167 -98 63.5s-36 73.5 -36 123.5v4c0 74.667 25.667 131.667 77 171s122.666 59 213.999 59h280v-715h-204v250h-54z" />
    <glyph glyph-name="uni0430" unicode="&#x430;" horiz-adv-x="578" 
d="M204 -12c-50.667 0 -91.666 12.333 -122.999 37c-36 27.333 -54 67.333 -54 120c0 114 92.667 171 278 171h50v12c0 28 -4.83301 48.833 -14.5 62.5s-27.834 20.5 -54.501 20.5c-42 0 -65.667 -20.667 -71 -62h-168c4 61.333 29 108.666 75 141.999
c42.667 30.667 101 46 175 46c74.667 0 132 -15.667 172 -47c42.667 -33.333 64 -83.666 64 -150.999v-339h-174v61c-31.333 -48.667 -83 -73 -155 -73zM266.001 109c26 0 47.333 6.83203 64 20.499s25 31.5 25 53.5v32h-47c-36.667 0 -63.167 -4.16699 -79.5 -12.5
s-24.5 -23.166 -24.5 -44.499c0 -32.667 20.667 -49 62 -49z" />
    <glyph glyph-name="uni0431" unicode="&#x431;" horiz-adv-x="622" 
d="M311 -12c-93.333 0 -164.332 26.8301 -212.999 80.4971s-73 139.834 -73 258.501v27c0 252.667 107 383.334 321 392.001l50 2c70 2.66699 119.333 8.33398 148 17.001v-132c-28.667 -15.333 -80.334 -25 -155.001 -29l-42 -2c-108 -4.66699 -170 -63.667 -186 -177h6
c38.667 61.333 100.667 92 186 92c71.333 0 129.833 -24.667 175.5 -74s68.5 -111 68.5 -185v-8c0 -80 -27 -143.667 -81 -191s-122.333 -71 -205 -71zM312.001 120.997c33.333 0 58.833 11 76.5 33s26.5 53.333 26.5 94v8c0 40.667 -8.83301 72 -26.5 94
s-43.167 33 -76.5 33c-34 0 -59.833 -10.833 -77.5 -32.5s-26.5 -52.5 -26.5 -92.5v-8c0 -86 34.667 -129 104 -129z" />
    <glyph glyph-name="uni0432" unicode="&#x432;" horiz-adv-x="561" 
d="M54 523l263.001 -0.000976562c132.667 0 199 -42.333 199 -127v-1c0 -33.333 -8.83301 -59.666 -26.5 -78.999s-44.834 -33 -81.501 -41c85.333 -13.333 128 -53 128 -119v-1c0 -49.333 -17 -87.5 -51 -114.5s-85.667 -40.5 -155 -40.5h-276v523zM273.001 319.999
c42.667 0 64 17 64 51c0 18 -5.83301 30.333 -17.5 37s-30.167 10 -55.5 10h-32v-98h41zM284.001 103.999c48.667 0 73 18.667 73 56s-21 56 -63 56h-62v-112h52z" />
    <glyph glyph-name="uni0433" unicode="&#x433;" horiz-adv-x="444" 
d="M232 401v-401h-178v523h375v-122h-197z" />
    <glyph glyph-name="uni0434" unicode="&#x434;" horiz-adv-x="623" 
d="M251 253c-4 -53.333 -12.667 -97 -26 -131h140v279h-109c0 -50.667 -1.66699 -100 -5 -148zM168 -127h-158v249h26c30.667 16 50 64 58 144c4 49.333 6 135 6 257h443v-401h70v-249h-158v127h-287v-127z" />
    <glyph glyph-name="uni0435" unicode="&#x435;" horiz-adv-x="598" 
d="M313 -12c-85.333 0 -153 23 -203 69c-54 47.333 -81 113.333 -81 198v8c0 82 27.333 148.667 82 200c52.667 49.333 119.667 74 201 74c76.667 0 139 -21.667 187 -65c52.667 -48 79 -116.333 79 -205v-47h-368c2.66699 -34.667 13.5 -61.5 32.5 -80.5
s44.5 -28.5 76.5 -28.5c52.667 0 83 20.667 91 62h168c-8 -60 -34.5 -105.833 -79.5 -137.5s-106.833 -47.5 -185.5 -47.5zM404 321c-3.33301 65.333 -34.001 98 -92.001 98c-57.333 0 -90.666 -32.667 -99.999 -98h192z" />
    <glyph glyph-name="uni0436" unicode="&#x436;" horiz-adv-x="805" 
d="M313 236l-119 -236h-190l158 282l-149 241h183l117 -214v214h177v-214l117 214h181l-148 -235l161 -288h-194l-117 236v-236h-177v236z" />
    <glyph glyph-name="uni0437" unicode="&#x437;" horiz-adv-x="541" 
d="M502 395c0 -33.333 -8.83203 -59.668 -26.499 -79.001s-44.834 -33 -81.501 -41c81.333 -13.333 122 -52 122 -116v-3c0 -48 -22.333 -88 -67 -120s-101.667 -48 -171 -48c-150 0 -236 66.667 -258 200h157c16.667 -48.667 49.667 -73 99 -73c38.667 0 58 17.667 58 53v3
c0 30 -20 45 -60 45h-61v104h56c34 0 51 13.667 51 41v2c0 26 -19 39 -57 39c-40.667 0 -67 -20 -79 -60h-157c6 62.667 31.667 110.834 77 144.501s99.333 50.5 162 50.5c70 0 126.833 -12.833 170.5 -38.5s65.5 -59.5 65.5 -101.5v-2z" />
    <glyph glyph-name="uni0438" unicode="&#x438;" horiz-adv-x="628" 
d="M54 0v523h178v-318l164 318h178v-523h-178v318l-164 -318h-178z" />
    <glyph glyph-name="uni0439" unicode="&#x439;" horiz-adv-x="628" 
d="M309 588c-51.333 0 -90.834 13.333 -118.501 40s-43.167 64.334 -46.5 113.001h121c3.33301 -34 18 -51 44 -51c26.667 0 42.334 17 47.001 51h120c-4 -48.667 -20.5 -86.334 -49.5 -113.001s-68.167 -40 -117.5 -40zM53.999 0v523h178v-318l164 318h178v-523h-178v318
l-164 -318h-178z" />
    <glyph glyph-name="uni043A" unicode="&#x43a;" horiz-adv-x="577" 
d="M232 229v-229h-179v523h179v-207l141 207h186l-171 -235l185 -288h-200z" />
    <glyph glyph-name="uni043B" unicode="&#x43b;" horiz-adv-x="604" 
d="M259 223c-8.66699 -79.333 -26.1689 -138.501 -52.502 -177.501s-67.166 -58.5 -122.499 -58.5c-7.33301 0 -14.5 0.333008 -21.5 1s-12.667 1.5 -17 2.5s-8.16602 2 -11.499 3s-6 1.83301 -8 2.5l-2 1v135c0.666992 -0.666992 1.33398 -1 2.00098 -1
c1.33301 -0.666992 2.33301 -1 3 -1c1.33301 -0.666992 6 -1 14 -1c35.333 0 56.666 45.333 63.999 136c0 2.66699 0.666992 21.167 2 55.5s2 63.5 2 87.5l2 115h437v-523h-178v401h-104c-1.33301 -83.333 -4.33301 -142.666 -9 -177.999z" />
    <glyph glyph-name="uni043C" unicode="&#x43c;" horiz-adv-x="758" 
d="M194 336v-336h-140v523h229l102 -261l104 261h215v-523h-176v336l-135 -336h-67z" />
    <glyph glyph-name="uni043D" unicode="&#x43d;" horiz-adv-x="621" 
d="M389 205h-157v-205h-178v523h178v-196h157v196h178v-523h-178v205z" />
    <glyph glyph-name="uni043E" unicode="&#x43e;" horiz-adv-x="622" 
d="M316 121c68.667 0 103 45.667 103 137v8c0 91.333 -34.333 137 -103 137c-69.333 0 -104 -45 -104 -135v-8c0 -92.667 34.667 -139 104 -139zM315 -12c-82.667 0 -150.333 23.335 -203 70.002c-55.333 48 -83 113.667 -83 197v8c0 82 27.667 148.667 83 200
c52.667 49.333 120.667 74 204 74s151 -24 203 -72c54.667 -50.667 82 -116.334 82 -197.001v-8c0 -82.667 -27.333 -149.334 -82 -200.001c-53.333 -48 -121.333 -72 -204 -72z" />
    <glyph glyph-name="uni043F" unicode="&#x43f;" horiz-adv-x="611" 
d="M379 401h-147v-401h-178v523h503v-523h-178v401z" />
    <glyph glyph-name="uni0440" unicode="&#x440;" horiz-adv-x="643" 
d="M57 523l179.001 0.000976562v-78c37.333 61.333 91.666 92 162.999 92c64 0 116 -22.667 156 -68c43.333 -48.667 65 -116.334 65 -203.001v-8c0 -86.667 -21.667 -154 -65 -202c-40 -45.333 -92.333 -68 -157 -68c-77.333 0 -131.333 29.667 -162 89v-252h-179v698z
M335.001 125.001c68.667 0 103 44.332 103 132.999v8c0 45.333 -9 79.333 -27 102s-43.333 34 -76 34s-58.167 -11.667 -76.5 -35s-27.5 -56.666 -27.5 -99.999v-8c0 -44 9 -77.333 27 -100s43.667 -34 77 -34z" />
    <glyph glyph-name="uni0441" unicode="&#x441;" horiz-adv-x="583" 
d="M304 -12c-81.333 0 -146.666 22.668 -195.999 68.001c-52.667 47.333 -79 113.666 -79 198.999v8c0 84 27.333 151.333 82 202c52 48 117.667 72 197 72c70 0 127.333 -15.667 172 -47c51.333 -38 79.333 -94 84 -168h-168c-8 50.667 -36 76 -84 76
c-66.667 0 -100 -44.333 -100 -133v-8c0 -92 34.333 -138 103 -138c53.333 0 83.666 29 90.999 87h161c-2.66699 -67.333 -26.5 -120.5 -71.5 -159.5s-108.833 -58.5 -191.5 -58.5z" />
    <glyph glyph-name="uni0442" unicode="&#x442;" horiz-adv-x="492" 
d="M482 401h-147v-401h-178v401h-147v122h472v-122z" />
    <glyph glyph-name="uni0443" unicode="&#x443;" horiz-adv-x="589" 
d="M221 53l-209 470h194l108 -279l100 279h171l-280 -698h-171z" />
    <glyph glyph-name="uni0444" unicode="&#x444;" horiz-adv-x="820" 
d="M498 536c85.333 -4 154.5 -29 207.5 -75s79.5 -109.667 79.5 -191v-8c0 -81.333 -26.833 -146.5 -80.5 -195.5s-122.5 -74.833 -206.5 -77.5v-164h-176v164c-85.333 4 -154.5 29 -207.5 75s-79.5 109.667 -79.5 191v8c0 81.333 26.833 146.5 80.5 195.5
s122.5 74.833 206.5 77.5v217h176v-217zM498 117c33.333 3.33301 59.167 17.332 77.5 41.999s27.5 57.334 27.5 98.001v8c0 89.333 -35 137.333 -105 144v-292zM322.001 407.999c-33.333 -3.33301 -59.167 -17.332 -77.5 -41.999s-27.5 -57.334 -27.5 -98.001v-8
c0 -89.333 35 -137.333 105 -144v292z" />
    <glyph glyph-name="uni0445" unicode="&#x445;" horiz-adv-x="600" 
d="M189 266l-163 257h206l81 -138l79 138h184l-165 -243l181 -280h-206l-93 156l-95 -156h-183z" />
    <glyph glyph-name="uni0446" unicode="&#x446;" horiz-adv-x="637" 
d="M475 -127l-6 127h-415v523h178v-401h147v401h178v-401h70v-249h-152z" />
    <glyph glyph-name="uni0447" unicode="&#x447;" horiz-adv-x="595" 
d="M362 0l-0.00195312 214c-9.33301 -12 -21 -22 -35 -30c-33.333 -20 -73.666 -30 -120.999 -30c-52 0 -92.667 16.167 -122 48.5s-44 80.833 -44 145.5v175h179v-146c0 -31.333 4.5 -53.833 13.5 -67.5s25.833 -20.5 50.5 -20.5c25.333 0 46 6 62 18
c6.66699 4.66699 12.334 11 17.001 19v197h179v-523h-179z" />
    <glyph glyph-name="uni0448" unicode="&#x448;" horiz-adv-x="846" 
d="M54 523h178v-401h102v401h178v-401h102v401h178v-523h-738v523z" />
    <glyph glyph-name="uni0449" unicode="&#x449;" horiz-adv-x="872" 
d="M710 -127l-6 127h-650v523h178v-401h102v401h178v-401h102v401h178v-401h70v-249h-152z" />
    <glyph glyph-name="uni044A" unicode="&#x44a;" horiz-adv-x="626" 
d="M127 401h-116.999v122h295v-156h96c64 0 113.833 -16.667 149.5 -50s53.5 -78.333 53.5 -135v-3c0 -57.333 -17.333 -101.5 -52 -132.5s-87.334 -46.5 -158.001 -46.5h-267v401zM348.001 122c24.667 0 43 4.33301 55 13s18 23.667 18 45v3c0 41.333 -24.333 62 -73 62
h-43v-123h43z" />
    <glyph glyph-name="uni044B" unicode="&#x44b;" horiz-adv-x="784" 
d="M553 523h177v-523h-177v523zM54 523h178.001v-156h84c64 0 113.833 -16.667 149.5 -50s53.5 -78.333 53.5 -135v-3c0 -57.333 -17.333 -101.5 -52 -132.5s-87.334 -46.5 -158.001 -46.5h-255v523zM265.001 122c24.667 0 43 4.33301 55 13s18 23.667 18 45v3
c0 41.333 -24.333 62 -73 62h-33v-123h33z" />
    <glyph glyph-name="uni044C" unicode="&#x44c;" horiz-adv-x="553" 
d="M54 523h178.001v-156h96c64 0 113.833 -16.667 149.5 -50s53.5 -78.333 53.5 -135v-3c0 -57.333 -17.333 -101.5 -52 -132.5s-87.334 -46.5 -158.001 -46.5h-267v523zM275.001 122c24.667 0 43 4.33301 55 13s18 23.667 18 45v3c0 41.333 -24.333 62 -73 62h-43v-123h43z
" />
    <glyph glyph-name="uni044D" unicode="&#x44d;" horiz-adv-x="583" 
d="M283 -12c-82 0 -143.831 17.499 -185.498 52.499s-67.5 86.833 -77.5 155.5h161c7.33301 -27.333 18.333 -47 33 -59s34 -18 58 -18c52.667 0 85.334 29.333 98.001 88h-156v112h156c-10.667 52.667 -41.334 79 -92.001 79c-44.667 0 -73.334 -22 -86.001 -66h-168
c6 68.667 33.167 120 81.5 154s107.166 51 176.499 51c80 0 146 -24.167 198 -72.5s78 -114.5 78 -198.5v-8c0 -85.333 -25.667 -151.666 -77 -198.999s-117.333 -71 -198 -71z" />
    <glyph glyph-name="uni044E" unicode="&#x44e;" horiz-adv-x="844" 
d="M543 -11c-68.667 0 -126.333 17.5 -173 52.5s-76.667 84.5 -90 148.5l-3 15h-45v-205h-178v523h178v-196h47c12 64.667 42 116 90 154s106.333 57 175 57c80 0 145.833 -24.5 197.5 -73.5s77.5 -114.167 77.5 -195.5v-8c0 -83.333 -26 -149.5 -78 -198.5
s-118 -73.5 -198 -73.5zM544.001 122c28.667 0 51.334 11.999 68.001 35.999s25 57.667 25 101v8c0 44 -8 77.833 -24 101.5s-39 35.5 -69 35.5c-28.667 0 -51.334 -11.667 -68.001 -35s-25 -56.666 -25 -99.999v-8c0 -92.667 31 -139 93 -139z" />
    <glyph glyph-name="uni044F" unicode="&#x44f;" horiz-adv-x="559" 
d="M292 403c-23.333 0 -41.333 -5 -54 -15s-19 -23.667 -19 -41v-3c0 -21.333 6 -36.5 18 -45.5s30.333 -13.5 55 -13.5h49v118h-49zM199 0l-190.999 -0.00195312l118 209c-58 28.667 -87 74.334 -87 137.001v3c0 52.667 17.667 94.834 53 126.501s87.666 47.5 156.999 47.5
h270v-523h-178v171h-55z" />
    <glyph glyph-name="uni0451" unicode="&#x451;" horiz-adv-x="598" 
d="M313 -12c-85.333 0 -153 23 -203 69c-54 47.333 -81 113.333 -81 198v8c0 82 27.333 148.667 82 200c52.667 49.333 119.667 74 201 74c76.667 0 139 -21.667 187 -65c52.667 -48 79 -116.333 79 -205v-47h-368c2.66699 -34.667 13.5 -61.5 32.5 -80.5
s44.5 -28.5 76.5 -28.5c52.667 0 83 20.667 91 62h168c-8 -60 -34.5 -105.833 -79.5 -137.5s-106.833 -47.5 -185.5 -47.5zM404 321c-3.33301 65.333 -34.001 98 -92.001 98c-57.333 0 -90.666 -32.667 -99.999 -98h192zM199.999 580c-24 0 -44 7.99902 -60 23.999
c-16.667 15.333 -25 35 -25 59c0 23.333 8.33301 43.333 25 60c16 16 36 24 60 24s44.333 -8.16699 61 -24.5s25 -36.166 25 -59.499s-8.33301 -43 -25 -59s-37 -24 -61 -24zM412.999 579.999c-24 0 -44.167 8 -60.5 24s-24.5 35.667 -24.5 59s8.16699 43.166 24.5 59.499
s36.5 24.5 60.5 24.5s44.333 -8.16699 61 -24.5s25 -36.166 25 -59.499s-8.33301 -43 -25 -59s-37 -24 -61 -24z" />
    <glyph glyph-name="uni0452" unicode="&#x452;" horiz-adv-x="624" 
d="M396 304c0 58.667 -25 88.001 -75 88.001c-27.333 0 -49 -8.33301 -65 -25s-24 -41.334 -24 -74.001v-293h-179v587h-57v96h57v70h179v-70h155v-96h-155v-148c33.333 65.333 90.666 98 171.999 98c52 0 93.5 -16.667 124.5 -50s46.5 -82.333 46.5 -147v-287
c0 -86 -17.5 -147.667 -52.5 -185s-98.167 -56 -189.5 -56v130c22.667 1.33301 38.834 8 48.501 20s14.5 33.667 14.5 65v277z" />
    <glyph glyph-name="uni0453" unicode="&#x453;" horiz-adv-x="444" 
d="M237 749h180l-105 -166h-128zM232 401v-401h-178v523h375v-122h-197z" />
    <glyph glyph-name="uni0454" unicode="&#x454;" horiz-adv-x="583" 
d="M563 196c-10 -68.667 -35.832 -120.498 -77.499 -155.498s-103.5 -52.5 -185.5 -52.5c-81.333 0 -147.5 23.167 -198.5 69.5s-76.5 112.166 -76.5 197.499v8c0 84 26.5 150.667 79.5 200s119.5 74 199.5 74c69.333 0 127.666 -17 174.999 -51s74 -85.333 80 -154h-168
c-6 21.333 -15.167 37.666 -27.5 48.999s-30.833 17 -55.5 17c-50.667 0 -82 -26.333 -94 -79h155v-112h-157c12 -58.667 45 -88 99 -88c24 0 43.333 6 58 18s25.667 31.667 33 59h161z" />
    <glyph glyph-name="uni0455" unicode="&#x455;" horiz-adv-x="515" 
d="M262 -12c-75.333 0 -133.665 15.168 -174.998 45.501s-63 74.5 -65 132.5h165c4 -20.667 11.167 -35.667 21.5 -45s27.833 -14 52.5 -14c42.667 0 64 14.333 64 43c0 12.667 -7 22.334 -21 29.001s-39.333 12.667 -76 18c-72.667 9.33301 -123.334 26 -152.001 50
c-31.333 24.667 -47 64 -47 118c0 55.333 22.333 98.666 67 129.999c40 28 92.333 42 157 42c68.667 0 121.667 -12.667 159 -38c41.333 -28 65.333 -71.667 72 -131h-162c-6.66699 34.667 -29 52 -67 52c-18.667 0 -33.167 -3.66699 -43.5 -11s-15.5 -17.333 -15.5 -30
c0 -12 6.5 -21.167 19.5 -27.5s35.833 -11.5 68.5 -15.5c75.333 -9.33301 129.333 -25.333 162 -48c35.333 -26.667 53 -66.667 53 -120c0 -60.667 -20.833 -105.834 -62.5 -135.501s-99.834 -44.5 -174.501 -44.5z" />
    <glyph glyph-name="uni0456" unicode="&#x456;" horiz-adv-x="295" 
d="M62 523h179v-523h-179v523zM151 573c-28 0 -51.333 8.66699 -70 26s-28 39.333 -28 66s9.33301 48.834 28 66.501s42 26.5 70 26.5s51.5 -8.83301 70.5 -26.5s28.5 -39.834 28.5 -66.501s-9.5 -48.667 -28.5 -66s-42.5 -26 -70.5 -26z" />
    <glyph glyph-name="uni0457" unicode="&#x457;" horiz-adv-x="295" 
d="M46 580c-23.333 0 -43.666 7.99902 -60.999 23.999c-16 16 -24 35.667 -24 59c0 22.667 8 42.667 24 60c17.333 16 37.666 24 60.999 24c24 0 44.333 -8.16699 61 -24.5s25 -36.166 25 -59.499s-8.33301 -43 -25 -59s-37 -24 -61 -24zM256 579.999
c-24 0 -44 7.99902 -60 23.999c-16.667 15.333 -25 35 -25 59c0 23.333 8.33301 43.333 25 60c16 16 36 24 60 24s44.333 -8.16699 61 -24.5s25 -36.166 25 -59.499s-8.33301 -43 -25 -59s-37 -24 -61 -24zM62 522.998h179v-523h-179v523z" />
    <glyph glyph-name="uni0458" unicode="&#x458;" horiz-adv-x="295" 
d="M-2 -54c22 1.33301 38.167 7 48.5 17s15.5 25 15.5 45v515h178v-519c0 -61.333 -16.667 -107 -50 -137c-39.333 -34 -103.333 -51 -192 -51v130zM151 573c-28 0 -51.333 8.66699 -70 26s-28 39.333 -28 66s9.33301 48.834 28 66.501s42 26.5 70 26.5
s51.5 -8.83301 70.5 -26.5s28.5 -39.834 28.5 -66.501s-9.5 -48.667 -28.5 -66s-42.5 -26 -70.5 -26z" />
    <glyph glyph-name="uni0459" unicode="&#x459;" horiz-adv-x="850" 
d="M361 401h-93c-1.33301 -64 -3.66602 -117 -6.99902 -159c-8.66699 -86 -26 -150 -52 -192s-67.667 -63 -125 -63c-7.33301 0 -14.5 0.333008 -21.5 1s-12.667 1.5 -17 2.5s-8.16602 2 -11.499 3s-6 1.83301 -8 2.5l-2 1v135c0.666992 -0.666992 1.33398 -1 2.00098 -1
c1.33301 -0.666992 2.33301 -1 3 -1c1.33301 -0.666992 6 -1 14 -1c19.333 0 34.166 12 44.499 36s17.166 62.667 20.499 116c2.66699 30 4 110.667 4 242h427v-156h86c64 0 113.833 -16.667 149.5 -50s53.5 -78.333 53.5 -135v-3c0 -57.333 -17.333 -101.5 -52 -132.5
s-87.334 -46.5 -158.001 -46.5h-257v401zM572 122c24.667 0 43 4.33301 55 13s18 23.667 18 45v3c0 41.333 -24.333 62 -73 62h-33v-123h33z" />
    <glyph glyph-name="uni045A" unicode="&#x45a;" horiz-adv-x="867" 
d="M589 122c24.667 0 43 4.33301 55 13s18 23.667 18 45v3c0 41.333 -24.333 62 -73 62h-33v-123h33zM378 205h-145.999v-205h-178v523h178v-196h146v196h178v-156h86c64 0 113.833 -16.667 149.5 -50s53.5 -78.333 53.5 -135v-3c0 -57.333 -17.333 -101.5 -52 -132.5
s-87.334 -46.5 -158.001 -46.5h-257v205z" />
    <glyph glyph-name="uni045B" unicode="&#x45b;" horiz-adv-x="624" 
d="M0 683l57.001 0.000976562v70h179v-70h155v-96h-155v-148c33.333 65.333 90.666 98 171.999 98c52 0 93.5 -16.667 124.5 -50s46.5 -82.333 46.5 -147v-340h-179v304c0 58.667 -25 88 -75 88c-27.333 0 -49 -8.33301 -65 -25s-24 -41.334 -24 -74.001v-293h-179v587h-57
v96z" />
    <glyph glyph-name="uni045C" unicode="&#x45c;" horiz-adv-x="577" 
d="M288 749h180l-105 -166h-128zM232 229v-229h-179v523h179v-207l141 207h186l-171 -235l185 -288h-200z" />
    </font>
</defs>
</svg>
